<svg xmlns="http://www.w3.org/2000/svg" fill="none" height="40" viewBox="0 0 40 40" width="40" class="injected-svg" data-src="/assets/img/sound-on-icon.59a6aa.svg" xmlns:xlink="http://www.w3.org/1999/xlink"><g fill="#FFFFFF"><g clip-rule="evenodd" fill-rule="evenodd" fill="#FFFFFF"><path d="M24.68 16.616a.5.5 0 0 1 .704.063 4.392 4.392 0 0 1 .116 5.49l-.103.135a.5.5 0 1 1-.794-.608l.103-.135a3.392 3.392 0 0 0-.09-4.24.5.5 0 0 1 .063-.705zM27.714 14.59a.5.5 0 0 1 .696.124 8.36 8.36 0 0 1 .186 9.28l-.175.275a.5.5 0 1 1-.842-.538l.175-.274a7.36 7.36 0 0 0-.164-8.171.5.5 0 0 1 .124-.696z" fill="#FFFFFF"></path><path d="M20 39c10.493 0 19-8.507 19-19S30.493 1 20 1 1 9.507 1 20s8.507 19 19 19zm0 1c11.046 0 20-8.954 20-20S31.046 0 20 0 0 8.954 0 20s8.954 20 20 20z" fill="#FFFFFF"></path></g><path d="M20.69 13.07a.582.582 0 0 1 .227.197.49.49 0 0 1 .083.272V26.46a.49.49 0 0 1-.083.272c-.055.082-.133.15-.227.197a.677.677 0 0 1-.615-.007l-5.966-3.154h-2.276c-.486 0-.952-.17-1.296-.473A1.525 1.525 0 0 1 10 22.154v-4.311c0-.428.194-.839.537-1.141s.81-.473 1.296-.473h2.276l5.965-3.152a.674.674 0 0 1 .616-.007z" fill="#FFFFFF"></path></g></svg>