<svg xmlns="http://www.w3.org/2000/svg" fill="none" height="40" viewBox="0 0 40 40" width="40" class="injected-svg" data-src="/assets/img/sound-off-icon.53d7be.svg" xmlns:xlink="http://www.w3.org/1999/xlink"><g fill="#FFFFFF"><path clip-rule="evenodd" d="M20 39c10.493 0 19-8.507 19-19S30.493 1 20 1 1 9.507 1 20s8.507 19 19 19zm0 1c11.046 0 20-8.954 20-20S31.046 0 20 0 0 8.954 0 20s8.954 20 20 20z" fill-rule="evenodd" fill="#FFFFFF"></path><path clip-rule="evenodd" d="M28.646 17.646a.5.5 0 0 1 .708.708L27.707 20l1.647 1.646a.5.5 0 0 1-.708.708L27 20.707l-1.646 1.647a.5.5 0 0 1-.708-.708L26.293 20l-1.647-1.646a.5.5 0 0 1 .708-.708L27 19.293z" fill-rule="evenodd" fill="#FFFFFF"></path><path d="M20.69 13.07a.582.582 0 0 1 .227.197.49.49 0 0 1 .083.272V26.46a.49.49 0 0 1-.083.272c-.055.082-.133.15-.227.197a.677.677 0 0 1-.615-.007l-5.966-3.154h-2.276c-.486 0-.952-.17-1.296-.473A1.525 1.525 0 0 1 10 22.154v-4.311c0-.428.194-.839.537-1.141s.81-.473 1.296-.473h2.276l5.965-3.152a.674.674 0 0 1 .616-.007z" fill="#FFFFFF"></path></g></svg>