<svg xmlns="http://www.w3.org/2000/svg" fill="none" height="426" viewBox="0 0 768 426" width="768" class="injected-svg" data-src="/assets/img/mob-grass-top.c649d5.svg" xmlns:xlink="http://www.w3.org/1999/xlink"><clipPath id="a-18" fill="none"><path d="M0 0h768v426H0z" fill="none"></path></clipPath><g clip-path="url(#a-18)" fill="#101615"><path d="m308.35-15.74-1.959 4.897s-49.314 63.864-179.629 82.96C6.659 89.674-43.005 48.964-50.07 42.459-43.495 48.754.643 87.506 99.55 100.027c0 0-105.063.979-169.627-58.408v21.195s-205.161-12.381-287.911-73.587c0 0 .07 0 .07-.07.07 0 .07-2.868.07-2.938z" fill="#101615"></path><path d="M536.176-14.062 98.783-18.398s21.334 33.925 65.332 66.661c11.122 8.254 23.643 16.508 37.703 24.063 63.864 34.415 115.486 25.811 120.802 27.63-32.456-13.08-73.446-43.719-74.705-44.698 126.048 50.434 188.093 32.736 189.772 32.247l-6.575 12.521c6.435-4.827 18.396-10.703 29.099-15.39 15.319-6.784 28.889-15.388 40.081-25.6l6.715-6.086 5.316 14.41c4.826-21.405-4.827-38.123-5.316-38.892 15.948 20.005 46.586 46.166 47.565 47.005l-30.008-41.27c33.226 25.182 59.877 40.431 78.413 49.385 18.117 8.743 28.609 11.611 29.938 11.891-7.834-3.917-15.249-8.324-22.174-12.94-39.731-26.232-74.565-96.6-74.565-96.6z" fill="#101615"></path><path d="M1079.75-13.432s-17.56 56.94-105.273 120.033l31.123-63.584s-24.408 28.54-138.915 39.871-211.596-32.736-211.596-32.736l67.431 47.356S586.398 67.64 536.315 35.743c-74.776-47.566-71.209-44.138-71.209-44.138z" fill="#101615"></path><path clip-rule="evenodd" d="m1053.17 50.152 3.43-30.148s-179.492-13.85-295.678-4.826L901.24 40.919s-138.289-18.537-254.475-13.5l-39.591 16.508 28.609 24.272S541.491 34.064 509.035-8.046l570.645-5.386c.07 0-6.57 41.34-26.51 63.584z" fill-rule="evenodd" fill="#101615"></path><path d="M1154.32-18.327s-114.23 180.259-304.281 187.324c-190.053 7.135-552.95-227.195-552.95-227.195l-25.601-.21s373.04 231.112 571.766 233.49c198.656 2.379 329.946-191.38 329.946-191.38z" fill="#101615"></path><path d="M854.095 192.079c47.636 0 108.981-27.7 168.575-76.105 52.88-42.949 95.27-94.781 108.07-132.064l-4.4-.28c-26.16 76.175-170.189 206.49-272.175 206.49h-.979C749.871 189.281 544.5 77.502 531.909 67.29c-4.477-3.638-10.702-9.864-16.788-15.95-11.402-11.4-18.676-18.466-22.803-19.795-2.169-.7-6.296-.98-18.747-1.609-28.469-1.399-81.421-3.987-106.323-15.808-33.435-15.879-23.992-56.1-23.922-56.52l-4.407-.21c-.42 1.68-9.723 41.48 24.972 57.989 26.021 12.38 80.092 15.039 109.121 16.438 8.184.42 16.578.84 17.977 1.259 3.497 1.12 12.031 11.052 20.005 19.026 6.086 6.086 12.381 12.381 16.928 16.089 12.731 10.282 220.2 122.97 325.124 123.81.35.07.7.07 1.049.07zM200.7 60.295s-8.814 1.609-10.423 5.106c-1.609 3.498-6.785 20.006-18.816 22.454-12.031 2.378-14.969 4.547-14.969 4.547s2.518-13.36 11.332-18.956c8.813-5.596 16.577-9.583 20.215-10.703 3.637-1.049 6.155-2.938 7.694-3.707 1.609-.77 4.057 0 4.967-1.888z" fill="#101615"></path><path d="M188.039 58.826s8.463 3.078 9.443 6.715c.979 3.708 3.427 20.845 14.899 25.182s14.06 6.925 14.06 6.925-.28-13.57-8.114-20.565c-7.835-6.995-14.76-12.171-18.187-13.85-3.428-1.679-5.596-3.917-6.995-4.966-1.469-1.05-4.057-.63-4.617-2.658zM61.864 45.03l-5.416 368.738-1.915 2.873L58.453 45z" fill="#101615"></path><path d="M57.735 111.967s-9.186 7.301-11.131 24.597c0 0 8.647-3.561 11.43-12.658zM57.914 164.063s-9.186 7.301-11.131 24.596c0 0 8.647-3.561 11.43-12.657zM56.478 313.946s-9.186 7.301-11.131 24.597c0 0 8.647-3.561 11.43-12.658zM55.79 372.774s-5.925 4.698-7.182 15.859c0 0 5.566-2.304 7.361-8.169zM55.97 396.533s-5.926 4.698-7.182 15.859c0 0 5.565-2.304 7.36-8.169zM58.423 206.433S45.945 208.498 44 225.763c0 0 11.97 1.676 14.752-7.39zM56.059 261.013s-3.83 9.276-5.775 26.571c0 0 3.291-5.536 6.074-14.632zM56.598 410.238s1.077 6.553.359 9.575c-.748 3.022-3.62 6.164-3.62 6.164s-.72-8.977 1.256-13.346zM56.747 394.169s5.506 6.343 6.254 12.687c0 0-4.01-2.214-6.673-6.493zM56.897 361.434s6.553 4.458 7.42 15.2c0 0-6.253-5.116-7.72-9.754zM57.376 300.63s6.553 4.459 7.42 15.201c0 0-6.253-5.117-7.72-9.755zM57.794 244.256s8.23 5.595 9.306 19.12c0 0-7.87-6.433-9.724-12.268zM61.205 85.635S73.384 93.894 75 113.912c0 0-11.64-9.485-14.393-18.163zM58.692 178.396s8.229 5.595 9.306 19.12c0 0-7.87-6.433-9.725-12.268zM104.227 35l-3.736 132.846 3.736 2.319 5.958-133.845z" fill="#101615"></path><path d="M103.551 127.815s-13.688 7.665-16.78 21.481c0 0 11.498-3.124 15.91-10.724zM102.52 147.621s-12.399 12.206-12.206 28.727c0 0 8.438-2.995 12.206-7.954zM102.874 169.328s-.644 16.682 7.311 22.672c0 0 .837-14.653-6.634-30.015zM106.546 113.323s8.18 10.08 11.69 26.247c0 0-13.107-1.513-13.107-16.553zM106.449 78.251s6.86 2.867 9.919 16.811c0 0-9.726-.257-11.11-8.437zM103.744 85.337s-11.69 8.727-12.174 23.542c0 0 10.628-4.38 13.559-14.75zM105.322 39.477S88.962 51.682 88.285 72.39c0 0 14.847-6.119 18.969-20.643z" fill="#101615"></path></g></svg>