<svg xmlns="http://www.w3.org/2000/svg" fill="none" height="60" viewBox="0 0 768 60" width="768" class="injected-svg" data-src="/assets/img/mob-grass-bottom.1d5923.svg" xmlns:xlink="http://www.w3.org/1999/xlink"><clipPath id="a-22" fill="none"><path d="M0 0h768v60H0z" fill="none"></path></clipPath><g clip-path="url(#a-22)" fill="#101615"><path d="m1129.51 64.204-2.24-2.053s-55.5-26.726-202.21-34.73c-135.193-7.342-191.135 9.71-199.069 12.423 7.396-2.644 57.107-18.86 168.454-24.115 0 0-118.295-.418-191.002 24.463l16.631-7.481s-106.685 1.634-206.343 10c-8.805.74-17.556 1.531-26.173 2.379-25.254-3.974-39.948-4.33-54.641-2.379 12.397-.526 31.223 1.97 34.438 4.503-34.53 3.88-65.723 8.764-88.045 14.902 0 0 .045 0 .045.034.045 0 .09 2.262.09 2.262z" fill="#101615"></path><path d="M549.209 46.874S537.4 34.203 508.932 31.173c24.696.278 65.916 14.135 65.916 14.135-4.849-8.182-12.842-13.996-20.7-19.427 14.997 4.595 23.08 11.698 30.354 19.113 0 0 23.079-14.83 51.681-19.914-36.145 15.423-36.864 19.706-36.864 19.706s19.308-13.648 91.33-23.988c-72.606 18.313-70.001 21.098-70.001 21.098 21.013-7.137 41.578-11.49 61.2-10.062-21.283 2.785-39.738 7.103-52.939 14.275l-2.918 4.63-93.261 1.427c-22.271-11.07-59.36-14.692-101.971-15.527 39.558-2.785 86.615 1.114 118.45 10.235zM334.664 64.204l-1.21-2.053s-29.54-26.726-107.716-34.73c-72.035-7.342-101.799 9.71-106.057 12.423 3.945-2.644 30.436-18.86 89.741-24.115 0 0-63.025-.418-101.754 24.463l8.83-7.481S-15.378 36.504-65 62.116c0 0 .045 0 .045.034.045 0 .045 2.262.045 2.262z" fill="#101615"></path><path d="M88.393 36.365s15.061-17.295 36.354-22.724c-18.872 2.888-55.674 25.264-55.674 25.264 2.242-6.786 12.73-14.86 17.751-19.87-10.668 5.15-22.233 11.692-26.492 18.165-2.24-4.037-.717-11.136 2.152-19.348-4.752 7.62-7.576 14.337-7.71 18.86-5.38-4.28-15.151-8.838-30.885-9.36 30.482 7.9 27.03 12.04 27.03 12.04s-27.03-12.04-54.15-11.588c31.11 4.559 42.092 13.084 42.092 13.084-17.392-3.166-45.05-3.48-59.797-.278 28.105-1.879 44.646.522 56.076 4.593l-2.24 2.332 75.037-10.683c15.061-10.927 42.808-17.713 75.262-23.002-30.75 2.157-72.079 12.075-94.806 22.515zM240.635 28.457s-1.893-13.191-15.64-19.02c12.665 2.795 29.387 20.18 29.387 20.18.18-8.25-2.028-14.59-4.282-20.52 6.22 5.896 8.068 13.463 9.375 21.235 0 0 16.812-11.658 33.308-13.498-23.798 10.873-25.556 14.827-25.556 14.827s14.468-10.907 55.168-13.293c-43.584 9.817-43.179 12.748-43.179 12.748 13.206-4.568 25.286-6.579 34.976-3.204-11.944.443-22.896 2.625-32.091 8.044l-3.02 4.09-48.677-8.282C222.561 18.98 204.577 11.72 182.808 6.54c21.364 1.431 44.395 10.021 57.827 21.917z" fill="#101615"></path><path d="M309.557 60.828s-24.243-19.082-52.804-22.106c24.738.278 77.993 21.863 77.993 21.863-4.858-8.168-20.556-16.44-28.427-21.828 15.023 4.588 31.665 10.775 38.952 18.144 1.619-5.492-2.429-14.182-8.501-23.983 8.276 8.724 13.853 16.718 15.427 22.384 5.533-6.36 16.552-13.834 36.298-17.344-36.208 15.397-30.63 19.985-30.63 19.985s30.63-19.985 65.039-24.295C384.897 44.978 373.517 57.7 373.517 57.7c21.05-7.125 55.954-12.478 75.609-11.053-36.118 2.676-56.358 8.655-69.627 15.815l3.554 2.537h-98.099c-22.309-11.053-59.462-14.668-102.146-15.502 39.626-2.815 94.86 2.225 126.749 11.331z" fill="#101615"></path></g></svg>