<svg xmlns="http://www.w3.org/2000/svg" fill="none" height="229" viewBox="0 0 768 229" width="768" class="injected-svg" data-src="/assets/img/mob-leaves-bottom.63b672.svg" xmlns:xlink="http://www.w3.org/1999/xlink"><filter id="a-20" color-interpolation-filters="sRGB" filterUnits="userSpaceOnUse" height="221.869" width="199.869" x="-28.934" y="29.066" fill="none"><feFlood flood-opacity="0" result="BackgroundImageFix" fill="none"></feFlood><feBlend in="SourceGraphic" in2="BackgroundImageFix" result="shape" fill="none"></feBlend><feGaussianBlur result="effect1_foregroundBlur_805_5080" stdDeviation="4.467" fill="none"></feGaussianBlur></filter><filter id="b-21" color-interpolation-filters="sRGB" filterUnits="userSpaceOnUse" height="242.869" width="223.869" x="588.066" y="4.066" fill="none"><feFlood flood-opacity="0" result="BackgroundImageFix" fill="none"></feFlood><feBlend in="SourceGraphic" in2="BackgroundImageFix" result="shape" fill="none"></feBlend><feGaussianBlur result="effect1_foregroundBlur_805_5080" stdDeviation="4.467" fill="none"></feGaussianBlur></filter><clipPath id="c-19" fill="none"><path d="M0 0h768v229H0z" transform="matrix(1 0 0 -1 0 229)" fill="none"></path></clipPath><g clip-path="url(#c-19)" fill="none"><g filter="url(#a-20)" fill="none"><path d="M5.612 42.447c-1.863.31-4.398 1.934-5.433 2.707H-20v196.839c43.592-.129 134.424-.31 149.015 0 18.239.386 32.985-14.309 32.985-16.243 0-1.933-10.09-10.828-29.881-11.601-19.791-.774-18.626 1.547-21.343 4.254-2.716 2.707-3.104 6.574-8.149 6.574-5.045 0-29.493-1.16-32.985-2.32s-24.836-15.856-24.06-16.629 9.702 3.867 17.075 8.121c7.373 4.254 12.806 4.64 19.79 3.48 6.986-1.16 19.016-8.121 28.329-12.375 9.314-4.254 26-15.468 26-16.628 0-1.161-7.761-3.481-17.851-4.254-10.089-.774-12.418 3.867-12.806 2.32s6.985-5.027 6.597-6.187c-.388-1.161-3.104-1.547-23.283-.774-16.143.619-26.906 11.602-30.269 17.016-1.94 0-3.492-2.707-3.104-5.801s8.149-7.348 8.149-8.508-10.09-.773-11.254-.773-2.716-1.547-2.328-4.254c.388-2.707 1.552-4.641 12.418-3.094 10.865 1.547 13.194-2.32 15.91-5.027s13.582-14.695 13.582-16.629c0-1.933-19.79-.387-20.179-5.027-.388-4.641 6.985-5.801 9.314-6.574 2.328-.774 6.597.773 17.85.773 11.254 0 19.791-27.457 23.284-34.418 3.493-6.96 5.821-17.788 4.657-18.562s-3.881-.387-6.985.774c-3.105 1.16-16.299 14.695-19.015 14.308-2.717-.387-1.94-7.734-5.821-7.734s-16.687 8.507-20.567 15.082c-3.881 6.574-1.94 11.988-1.553 15.468.388 3.481 2.329 5.414-1.552 7.735-3.88 2.32-6.209-3.094-7.373-5.801s.776-15.856.388-15.856-19.403 15.469-19.791 15.856c-.388.387 0 7.347-1.164 7.347s0-2.707-2.329-3.867-6.985 1.547-9.313 3.094c-2.328 1.547-9.701 8.894-12.03 9.281-2.328.387 4.269-11.215 6.985-21.269 2.173-8.044 2.2-20.625 1.94-25.91-.388-1.805-1.086-5.956-.776-8.121.31-2.166.906-6.574 1.165-8.508-3.105 2.707-8.848 7.27-6.985 3.867 2.328-4.254 3.104-16.628 3.104-20.882s-.776-4.254-1.164-5.801c-.388-1.547-.776-8.121-1.552-9.668-.777-1.547-1.94-8.894-3.105-9.668-1.164-.773-2.716-.773-3.492 0-.777.774-2.329.774-3.881.774-1.552 0-5.045 6.96-7.761 7.734s3.104-5.027.776-4.64z" fill="#101615"></path></g><g filter="url(#b-21)" fill="none"><path d="M774.497 17.905c2.073.341 4.894 2.133 6.046 2.986H803v217.104c-48.513-.143-149.598-.342-165.836 0-20.298.426-40.164-24.739-40.164-26.872 0-2.132 9.501 6.401 31.526 5.548s25.912-7.68 28.935-4.695c3.023 2.986 3.455 7.251 9.069 7.251 3.455 0-5.208-7.251-5.208-14.266 0-7.791 6.504-2.795-3.861-7.487s-28.935-17.061-28.935-18.341c0-1.279 8.638-3.839 19.866-4.692 11.229-.853 13.82 4.266 14.252 2.56.431-1.706-7.774-5.545-7.342-6.825.432-1.279 3.455-1.706 25.912-.853 17.965.683 29.943 12.796 33.685 18.767 2.16 0 3.887-2.985 3.455-6.398-.432-3.412-9.069-8.104-9.069-9.383 0-1.28 11.229-.853 12.524-.853 1.296 0 3.023-1.706 2.591-4.692-.431-2.986-1.727-5.118-13.819-3.412-12.093 1.706-14.684-2.559-17.707-5.545s-15.115-16.208-15.115-18.341c0-2.132 8.356 1.608 8.788-3.511.432-5.118 5.895-8.432 3.304-9.285s-7.342.853-19.866.853-22.025-30.283-25.912-37.96c-3.886-7.678-6.478-19.621-5.182-20.474 1.296-.853 4.319-.427 7.774.853 3.454 1.28 18.138 16.208 21.161 15.781 3.023-.426 2.159-8.53 6.478-8.53s18.57 9.383 22.889 16.634c4.319 7.251 2.159 13.223 1.727 17.062-.432 3.838-2.591 5.971 1.728 8.53 4.318 2.559 3.942-5.545 5.238-8.53 1.295-2.986 2.104-15.356 2.535-15.356.432 0 21.594 17.062 22.026 17.488.431.427 0 8.104 1.295 8.104 1.296 0 0-2.985 2.591-4.265 2.592-1.28 6.798 29.936 9.389 31.642 2.592 1.706.241-32.095-1.681-33.876-8.203-7.595-8.571-13.974-11.594-25.064-2.419-8.872 17.418-5.26 17.706-11.09.432-1.99 1.209-6.568.864-8.957-.346-2.388-1.008-7.25-1.296-9.383 3.455 2.985 9.847 8.018 7.774 4.265-2.591-4.692-3.455-18.34-3.455-23.033 0-4.692.864-4.692 1.295-6.398.432-1.706.864-8.957 1.728-10.663s2.159-9.81 3.455-10.663c1.295-.853 3.023-.853 3.887 0 .863.853 2.591.853 4.318.853 1.728 0 5.615 7.677 8.638 8.53 3.023.854-3.455-5.544-.864-5.118z" fill="#101615"></path></g></g></svg>