<svg xmlns:xlink="http://www.w3.org/1999/xlink" xmlns="http://www.w3.org/2000/svg" viewBox="0 0 240 75" width="240" height="75" preserveAspectRatio="xMidYMid meet" style="width: 100%; height: 100%; transform: translate3d(0px, 0px, 0px); content-visibility: visible;"><defs><clipPath id="__lottie_element_3"><rect width="240" height="75" x="0" y="0"></rect></clipPath><filter id="__lottie_element_9" filterUnits="objectBoundingBox" x="0%" y="0%" width="100%" height="100%"><feComponentTransfer in="SourceGraphic"><feFuncA type="table" tableValues="1.0 0.0"></feFuncA></feComponentTransfer></filter><mask id="__lottie_element_8" mask-type="alpha"><g filter="url(#__lottie_element_9)"><rect width="240" height="75" x="0" y="0" fill="#ffffff" opacity="0"></rect><g transform="matrix(1,0,0,1,150.768310546875,126.0048828125)" opacity="1" style="display: block;"><g opacity="1" transform="matrix(1,0,0,1,-106,-56.5)"><path fill="rgb(255,255,255)" fill-opacity="1" d=" M0,-10.5 C5.794950008392334,-10.5 10.5,-5.794950008392334 10.5,0 C10.5,5.794950008392334 5.794950008392334,10.5 0,10.5 C-5.794950008392334,10.5 -10.5,5.794950008392334 -10.5,0 C-10.5,-5.794950008392334 -5.794950008392334,-10.5 0,-10.5z"></path></g></g></g></mask></defs><g clip-path="url(#__lottie_element_3)"><g mask="url(#__lottie_element_8)" style="display: block;"><g transform="matrix(1,0,0,1,118.75,4648.75)" opacity="1"><g opacity="1" transform="matrix(1,0,0,1,1.5299999713897705,-4611.2451171875)"><path stroke-linecap="butt" stroke-linejoin="miter" fill-opacity="0" stroke-miterlimit="4" stroke="#FFFFFF" stroke-opacity="1" stroke-width="2px" d=" M114.5,0 C114.5,0 114.5,0 114.5,0 C114.5,17.66080093383789 100.16079711914062,32 82.5,32 C82.5,32 -82.5,32 -82.5,32 C-100.16079711914062,32 -114.5,17.66080093383789 -114.5,0 C-114.5,0 -114.5,0 -114.5,0 C-114.5,-17.66080093383789 -100.16079711914062,-32 -82.5,-32 C-82.5,-32 82.5,-32 82.5,-32 C100.16079711914062,-32 114.5,-17.66080093383789 114.5,0z"></path></g></g></g><g transform="matrix(1,0,0,1,150.768310546875,126.0048828125)" opacity="1" style="display: block;"><g opacity="1" transform="matrix(1,0,0,1,-106,-56.5)"><path fill="#FFFFFF" fill-opacity="1" d=" M0,-4 C2.2076001167297363,-4 4,-2.2076001167297363 4,0 C4,2.2076001167297363 2.2076001167297363,4 0,4 C-2.2076001167297363,4 -4,2.2076001167297363 -4,0 C-4,-2.2076001167297363 -2.2076001167297363,-4 0,-4z"></path></g></g></g></svg>