<svg xmlns="http://www.w3.org/2000/svg" width="32" height="32" viewBox="0 0 32 32" fill="none" class="injected-svg" data-src="/assets/img/discord-icon.53270b.svg" xmlns:xlink="http://www.w3.org/1999/xlink"><path d="M19.76 5.68c-.265.474-.5.964-.707 1.466a19.546 19.546 0 0 0-6.106 0 13.525 13.525 0 0 0-.707-1.466 21.333 21.333 0 0 0-5.507 1.733 23.107 23.107 0 0 0-4 15.453 22.133 22.133 0 0 0 6.76 3.454 17.182 17.182 0 0 0 1.48-2.32 12.873 12.873 0 0 1-2.28-1.107c.198-.132.385-.279.56-.44a15.546 15.546 0 0 0 13.494 0c.186.16.373.307.56.44-.726.44-1.489.814-2.28 1.12.412.83.894 1.624 1.44 2.373a21.922 21.922 0 0 0 6.746-3.453 22.96 22.96 0 0 0-4-15.453 21.453 21.453 0 0 0-5.453-1.8Zm-8.187 14.066a2.587 2.587 0 0 1-2.4-2.666 2.573 2.573 0 0 1 2.4-2.667 2.573 2.573 0 0 1 2.4 2.667 2.573 2.573 0 0 1-2.4 2.666Zm8.854 0a2.587 2.587 0 0 1-2.4-2.666 2.573 2.573 0 0 1 2.4-2.667 2.56 2.56 0 0 1 2.4 2.667 2.56 2.56 0 0 1-2.4 2.666Z" fill="#305B3F"></path></svg>