<svg xmlns="http://www.w3.org/2000/svg" width="32" height="32" viewBox="0 0 32 32" fill="none" class="injected-svg" data-src="/assets/img/youtube-icon.b9fd61.svg" xmlns:xlink="http://www.w3.org/1999/xlink"><path d="M29.416 22.747a3.51 3.51 0 0 1-2.475 2.478c-2.185.587-10.941.587-10.941.587s-8.756 0-10.94-.584a3.503 3.503 0 0 1-2.476-2.478C2 20.562 2 16 2 16s0-4.563.584-6.747A3.51 3.51 0 0 1 5.06 6.775C7.244 6.187 16 6.187 16 6.187s8.756 0 10.94.588a3.504 3.504 0 0 1 2.476 2.478C30 11.437 30 16 30 16s0 4.563-.584 6.747ZM13.219 11.813v8.374l7.25-4.156-7.25-4.218Z" fill="#305B3F"></path></svg>