<svg xmlns:xlink="http://www.w3.org/1999/xlink" xmlns="http://www.w3.org/2000/svg" fill="none" height="846" viewBox="0 0 1441 846" width="1441"><clipPath id="a"><path d="M0 0h1441v846H0z"/></clipPath><g clip-path="url(#a)" fill="#101615"><path d="m529.561 243.556 1.347.815s33.921 24.812 123.559 32.231c82.613 6.822 116.774-8.995 121.634-11.522-4.523 2.445-34.883 17.501-102.918 22.366 0 0 72.269.38 116.679-22.693v8.235s141.12-4.81 198.04-28.59c0 0-.048 0-.048-.027-.048 0-.048-2.201-.048-2.228l-440.058-.761z"/><path d="m372.899 243.093 300.861-1.685s-14.675 13.181-44.939 25.899a268.562 268.562 0 0 1-25.934 9.349c-43.928 13.371-79.437 10.028-83.094 10.735 22.326-5.082 50.521-16.985 51.387-17.366-86.703 19.594-129.381 12.719-130.535 12.528l4.522 4.865c-4.426-1.875-12.654-4.158-20.015-5.979-10.537-2.636-19.872-5.979-27.57-9.946l-4.619-2.365-3.657 5.599c-3.32-8.316 3.32-14.812 3.657-15.111-10.97 7.773-32.044 17.937-32.718 18.263l20.641-16.034c-22.854 9.784-41.186 15.708-53.936 19.187-12.462 3.397-19.679 4.511-20.594 4.62a189.36 189.36 0 0 0 15.253-5.028c27.281-10.191 51.29-37.531 51.29-37.531zM971.735 221.855s48.015 27.475 92.235 36.525l-6.93-5.408s60.29 14.077 149.5 16.822l-13.38-3.696s96.47-7.718 141.65-21.116c0 0-34.5 16.442-59.62 23.182 0 0 70.49-12.692 97.39-21.551l82.52-21.144z"/><path clip-rule="evenodd" d="M994.108 249.317s37.292 4.457 94.062 7.392l-12.17-4.675s71.02-7.038 145.93-1.82c74.87 5.217 96.81 9.403 96.81 9.403l-25.69 11.332s31.22-6.196 41.76-9.05l59.81-12.229-22.04 13.86 86.08-21.334-486.925-3.424z" fill-rule="evenodd"/><path d="M-1 243.365S11.077 265.487 71.413 290l-21.411-24.704s16.792 11.088 95.555 15.491c78.764 4.403 145.547-12.691 145.547-12.691l-46.43 18.398s93.631-11.604 128.081-23.997c51.435-18.48 48.981-20.138 48.981-20.138z"/><path clip-rule="evenodd" d="m17.284 268.069-2.358-11.741s123.462-5.381 203.381-1.875l-96.518 10.028s95.123-7.201 175.041-5.245l27.233 6.414-19.679 9.43s64.859-13.262 87.184-29.622l-392.52-2.093c-.048 0 4.523 16.062 18.236 24.704z" fill-rule="evenodd"/><path d="M115.149 231.57s78.571 123.991 209.299 128.851c130.727 4.908 380.347-156.277 380.347-156.277l17.61-.144s-256.596 158.971-393.29 160.607c-136.646 1.636-226.957-131.642-226.957-131.642z"/><path d="M321.657 376.251c-32.766 0-74.963-19.054-115.956-52.349-36.375-29.542-65.533-65.195-74.338-90.841l3.032-.192c17.994 52.445 117.015 142.083 187.214 142.083h.673c71.066-.578 212.331-77.465 220.991-84.49 3.08-2.502 7.362-6.784 11.548-10.97 7.843-7.843 12.847-12.702 15.685-13.616 1.492-.482 4.331-.674 12.895-1.107 19.583-.962 56.006-2.743 73.134-10.874 22.999-10.922 16.504-38.588 16.456-38.877l3.031-.144c.289 1.155 6.688 28.532-17.177 39.887-17.899 8.516-55.091 10.345-75.059 11.307-5.629.289-11.403.577-12.365.866-2.406.77-8.276 7.602-13.761 13.087-4.186 4.186-8.517 8.517-11.644 11.067-8.757 7.073-151.465 84.585-223.637 85.163h-.722zM1031.97 222.428s45.62 92.284 129.19 123.703c65.29 24.539 340.61-54.273 340.61-54.273l1.54 11.018s-260.64 68.179-335.99 48.644c-87.9-22.806-137.99-124.328-137.99-124.328z"/><path d="M1214.09 371.92c-16.84 2.358-31.95 2.502-42.44-1.203-18.47-6.591-54.99-47.296-61.2-54.369-.87 7.169-4.62 35.268-10.87 36.134h-.39c-6.49-.192-15.83-47.345-18.23-60.095-1.59 2.165-5.59 6.303-11.74 5.581-5.49-.674-9.68-19.053-13.77-39.454-1.1-5.533-2.16-10.73-2.64-11.355-.43-.385-3.13.144-5.29.577-4.91.963-11.65 2.31-14.87-.77-5.1-4.907 3.7-14.626 4.09-15.011l.86.769c-.09.097-8.42 9.287-4.13 13.424 2.79 2.647 9.14 1.396 13.81.482 3.56-.722 5.48-1.059 6.3-.289.62.577 1.25 3.368 2.98 11.98 2.7 13.232 7.65 37.915 12.8 38.54 7.46.915 11.4-6.11 11.4-6.206l.77-1.444.29 1.588c4.33 23.336 12.9 60.432 17.42 60.576h.24c4.33-.625 8.42-22.517 9.96-36.423l.14-1.299.87 1.011c.43.481 42.05 48.018 61.59 54.995 41.57 14.867 158.15-32.814 159.35-33.295l.44 1.058c-.87.337-67.03 27.425-117.74 34.498zM45.094 233.542 36.385 826.46l-3.08 4.619 6.304-597.585z"/><path d="M38.454 341.175s-14.771 11.74-17.899 39.55c0 0 13.905-5.725 18.38-20.352zM38.742 424.943s-14.77 11.74-17.898 39.55c0 0 13.905-5.726 18.38-20.352zM36.433 665.949s-14.771 11.74-17.899 39.551c0 0 13.905-5.726 18.38-20.353zM35.326 760.543s-9.526 7.554-11.547 25.501c0 0 8.95-3.705 11.836-13.136zM35.615 798.746s-9.527 7.554-11.548 25.501c0 0 8.95-3.705 11.837-13.136zM39.56 493.073s-20.063 3.32-23.19 31.082c0 0 19.245 2.695 23.72-11.884zM35.76 580.834s-6.16 14.916-9.287 42.726c0 0 5.293-8.901 9.767-23.528zM36.626 820.783s1.732 10.537.577 15.396c-1.203 4.86-5.822 9.912-5.822 9.912s-1.155-14.434 2.02-21.459zM36.866 794.945s8.853 10.2 10.056 20.4c0 0-6.447-3.56-10.73-10.44zM37.107 742.308s10.537 7.169 11.932 24.442c0 0-10.056-8.228-12.414-15.686zM37.877 644.538s10.537 7.169 11.932 24.443c0 0-10.056-8.228-12.413-15.686zM38.55 553.89s13.232 8.998 14.964 30.745c0 0-12.654-10.344-15.638-19.727zM44.035 298.834s19.583 13.28 22.18 45.468c0 0-18.716-15.252-23.142-29.205zM39.993 447.99s13.232 8.997 14.964 30.745c0 0-12.654-10.345-15.637-19.727zM100.858 232.292l-5.581 198.473 5.581 3.464 8.901-199.965z"/><path d="M99.848 370.958s-20.449 11.451-25.068 32.093c0 0 17.177-4.668 23.769-16.023zM98.308 400.549s-18.524 18.235-18.235 42.918c0 0 12.606-4.475 18.235-11.884zM98.838 432.978s-.963 24.923 10.922 33.873c0 0 1.251-21.892-9.912-44.843zM104.323 349.307s12.221 15.06 17.465 39.213c0 0-19.582-2.261-19.582-24.731zM104.178 296.909s10.249 4.283 14.82 25.116c0 0-14.531-.385-16.6-12.606zM100.137 307.495s-17.466 13.039-18.188 35.172c0 0 15.878-6.544 20.257-22.037zM102.494 238.979s-24.442 18.236-25.453 49.174c0 0 22.181-9.142 28.34-30.842zM612.754 273.224s6.062 1.106 7.169 3.512 4.667 13.761 12.943 15.445c8.276 1.636 10.296 3.127 10.296 3.127s-1.732-9.19-7.794-13.039c-6.063-3.849-11.403-6.592-13.905-7.361-2.502-.722-4.234-2.021-5.293-2.551-1.107-.529-2.791 0-3.416-1.299zM890.036 272.564s-6.062 1.106-7.169 3.512c-1.106 2.406-4.667 13.761-12.943 15.445-8.275 1.636-10.296 3.127-10.296 3.127s1.732-9.19 7.795-13.039c6.062-3.849 11.403-6.592 13.905-7.361 2.502-.722 4.234-2.021 5.292-2.55 1.107-.53 2.791 0 3.416-1.3z"/><path d="M890.373 266.309s-2.598 3.608-1.828 5.629 5.292 10.826 1.828 15.83-3.705 6.88-3.705 6.88-4.282-6.543-3.223-11.884c1.058-5.293 2.309-9.575 3.223-11.211.915-1.636 1.107-3.272 1.348-4.138.288-.866 1.491-1.347 1.106-2.454zM621.415 272.213s-5.822 2.117-6.496 4.619c-.673 2.55-2.357 14.338-10.248 17.322-7.891 2.983-9.671 4.763-9.671 4.763s.192-9.334 5.581-14.146c5.389-4.811 10.153-8.372 12.51-9.526 2.358-1.155 3.849-2.695 4.812-3.417 1.01-.721 2.79-.433 3.175-1.828zM926.748 261.497s1.732 4.619 3.031 5.196c1.347.578 3.272-1.972 8.372-2.742 5.1-.722 10.393 1.876 10.393 1.876s-.626 1.829-4.427 3.561c-7.746 3.512-11.307 1.395-12.461.77-1.155-.626-5.293-5.293-5.293-5.293zM0 0h1441v247H0z"/></g></svg>