<svg xmlns="http://www.w3.org/2000/svg" xmlns:xlink="http://www.w3.org/1999/xlink" fill="none" height="500" viewBox="0 0 1440 500" width="1440"><linearGradient id="a" gradientUnits="userSpaceOnUse" x1="720" x2="720" y1="49" y2="263"><stop offset="0" stop-color="#2d583c" stop-opacity="0"/><stop offset="1" stop-color="#254b32"/></linearGradient><linearGradient id="b"><stop offset="0" stop-color="#202825"/><stop offset="1" stop-color="#202825" stop-opacity="0"/></linearGradient><linearGradient id="c" gradientUnits="userSpaceOnUse" x1="181.636" x2="182.559" xlink:href="#b" y1="226.261" y2="265.571"/><linearGradient id="d" gradientUnits="userSpaceOnUse" x1="264.817" x2="266.553" xlink:href="#b" y1="232.287" y2="265.486"/><linearGradient id="e" gradientUnits="userSpaceOnUse" x1="210.058" x2="211.567" xlink:href="#b" y1="215.911" y2="265.575"/><linearGradient id="f" gradientUnits="userSpaceOnUse" x1="227.483" x2="227.855" xlink:href="#b" y1="231.068" y2="265.508"/><linearGradient id="g" gradientUnits="userSpaceOnUse" x1="275.612" x2="275.895" xlink:href="#b" y1="240.82" y2="265.55"/><linearGradient id="h" gradientUnits="userSpaceOnUse" x1="294.863" x2="294.996" xlink:href="#b" y1="246.922" y2="265.536"/><linearGradient id="i" gradientUnits="userSpaceOnUse" x1="302.826" x2="302.851" xlink:href="#b" y1="256.583" y2="265.51"/><linearGradient id="j" gradientUnits="userSpaceOnUse" x1="1312.5" x2="1311.12" xlink:href="#b" y1="208.781" y2="268.13"/><linearGradient id="k" gradientUnits="userSpaceOnUse" x1="1186.95" x2="1184.32" xlink:href="#b" y1="217.704" y2="268"/><linearGradient id="l" gradientUnits="userSpaceOnUse" x1="1269.92" x2="1267.65" xlink:href="#b" y1="192.962" y2="268.137"/><linearGradient id="m" gradientUnits="userSpaceOnUse" x1="1243.82" x2="1243.26" xlink:href="#b" y1="216.082" y2="268.136"/><linearGradient id="n" gradientUnits="userSpaceOnUse" x1="1170.84" x2="1170.42" xlink:href="#b" y1="231.089" y2="268.096"/><linearGradient id="o" gradientUnits="userSpaceOnUse" x1="1142.04" x2="1141.84" xlink:href="#b" y1="240.013" y2="268.075"/><linearGradient id="p" gradientUnits="userSpaceOnUse" x1="1131.14" x2="1131.07" xlink:href="#b" y1="251.776" y2="268.044"/><linearGradient id="q"><stop offset="0" stop-color="#f8f8f8"/><stop offset=".002" stop-color="#f8f8f7"/><stop offset=".079" stop-color="#f8eab7"/><stop offset=".15" stop-color="#f8e085"/><stop offset=".211" stop-color="#f8d861"/><stop offset=".261" stop-color="#f8d44b"/><stop offset=".293" stop-color="#f8d243"/><stop offset=".352" stop-color="#f5d343" stop-opacity=".887"/><stop offset=".4" stop-color="#ebd443" stop-opacity=".795"/><stop offset=".444" stop-color="#dad843" stop-opacity=".71"/><stop offset=".486" stop-color="#c1dc43" stop-opacity=".63"/><stop offset=".527" stop-color="#a2e243" stop-opacity=".552"/><stop offset=".566" stop-color="#7ce843" stop-opacity=".477"/><stop offset=".604" stop-color="#4ff144" stop-opacity=".404"/><stop offset=".641" stop-color="#1cfa44" stop-opacity=".334"/><stop offset=".659" stop-color="#0f4" stop-opacity=".3"/><stop offset="1" stop-color="#204531" stop-opacity="0"/></linearGradient><radialGradient id="r" cx="634.079" cy="160.503" gradientUnits="userSpaceOnUse" r="15.658" xlink:href="#q"/><radialGradient id="s" cx="669.938" cy="186.052" gradientUnits="userSpaceOnUse" r="7.829" xlink:href="#q"/><radialGradient id="t" cx="457.025" cy="215.768" gradientUnits="userSpaceOnUse" r="7.829" xlink:href="#q"/><radialGradient id="u" cx="46.867" cy="79.85" gradientUnits="userSpaceOnUse" r="7.829" xlink:href="#q"/><radialGradient id="v" cx="0" cy="0" gradientTransform="matrix(7.82898 0 0 7.82901 1158.2 154.087)" gradientUnits="userSpaceOnUse" r="1" xlink:href="#q"/><radialGradient id="w" cx="0" cy="0" gradientTransform="matrix(7.82901 0 0 7.82898 1404.4 215.768)" gradientUnits="userSpaceOnUse" r="1" xlink:href="#q"/><radialGradient id="x" cx="0" cy="0" gradientTransform="matrix(3.91451 0 0 3.91453 1229.08 244.206)" gradientUnits="userSpaceOnUse" r="1" xlink:href="#q"/><radialGradient id="y" cx="0" cy="0" gradientTransform="matrix(3.91452 0 0 3.91451 582.187 202.005)" gradientUnits="userSpaceOnUse" r="1" xlink:href="#q"/><radialGradient id="z" cx="0" cy="0" gradientTransform="matrix(3.91452 0 0 3.91453 603.488 102.03)" gradientUnits="userSpaceOnUse" r="1" xlink:href="#q"/><radialGradient id="A" cx="0" cy="0" gradientTransform="matrix(3.91451 0 0 3.91453 65.764 138.305)" gradientUnits="userSpaceOnUse" r="1" xlink:href="#q"/><clipPath id="B"><path d="M0 0h1441v500H0z"/></clipPath><g clip-path="url(#B)"><path d="M0 49h1440v214H0z" fill="url(#a)" opacity=".4"/><path d="m1204.96 288.001-2.04-1.864s-50.37-24.258-183.54-31.523c-122.716-6.665-173.495 8.812-180.697 11.276 6.714-2.4 51.837-17.12 152.907-21.89 0 0-107.377-.379-173.373 22.206l15.095-6.791s-93.312-2.836-187.298.077c-7.992.671-15.935-2.61-23.757-1.841-22.924-3.607-36.261-3.93-49.598-2.159 11.253-.477 28.342 1.788 31.259 4.087-31.343 3.522-59.656 7.956-79.918 13.527 0 0 .041 0 .041.031.04 0 .081 2.054.081 2.054z" fill="#101615"/><path d="M0 263h1440v237H0z" fill="#101615"/><path d="M1474.76 183.574c26.6 22.114 42.93 54.548 48.59 97.715h-168.36l-53.96-1.121-1.94-37.918s28.24-17.632 50.59-25.534c22.29-7.843 54.61-27.539 62.51-31.137 7.9-3.538 27.31-15.513 29.31-18.579 1.95-3.066 12.68-13.796 12.68-13.796s23.47 18.871 20.58 30.37z" fill="#101615"/><path d="M1288.29 188.941s-1.71 10.084 15.34 10.615c17.04.53 25.77 2.83 32.08 5.543 6.31 2.712 4.83 16.335 4.83 16.335s68.47-29.014 77.25-36.621c8.73-7.548 23.36-14.802 25.24-16.984 1.89-2.181 14.86-13.681 11.15-14.565-3.66-.944-19.93-5.19-25.18-5.779-5.25-.649-15.81-2.182-17.63-1.121-.42.236-1.01 2.359-8.67 5.013-3.01 1.061-13.27-.059-16.99 1.179-4.18 1.415-6.36 4.954-11.08 6.546-29.02 9.907-65.28 22.232-70 24.001-7.78 2.889-15.69 4.305-16.34 5.838z" fill="#101615"/><path d="M1280.98 194.307s-10.32 4.836-11.03 7.076c-.76 2.3-2.06 12.974-2.06 12.974s17.1 1.946 26.36 2.595c8.79.589 32.38.648 36.39 2.653s-16.16 13.21-16.16 13.21 22.29-9.553 25.35-11.971c3.13-2.418 12.09-5.131 13.45-7.666 1.36-2.536 11.09-7.313 11.09-7.313s-18.99-4.01-27.9-3.715c-12.14-1.946-20.11-4.423-27.01-6.487-8.02-2.418-14.68-6.722-19.93-7.902-4.18 4.305-4.89 5.308-8.55 6.546z" fill="#202825"/><path d="M1297.85 243.37s.29 4.954 4.83 16.335c3.42 8.492 22.47 16.866 24.12 21.053.06.118-25.77-.531-25.77-.531l-60.03-.295s8.9-18.399 9.02-27.185c0-1.652 7.31-24.65 7.55-27.599.24-3.479.94-6.427.94-6.427l14.39-7.49c32.97 2.536 77.43 2.713 49.13 17.692 0 0-21 11.499-22.88 13.386-1.89 1.887-1.3 1.061-1.3 1.061z" fill="#101615"/><path d="M1319.02 192.538s-20.11-5.543-6.84-10.202 33.26-22.35 63.92-20.758c4.19.236 23.41 4.954 24.18 2.123.77-2.83-12.74-11.44-12.74-11.44s21-.059 29.9 1.179c-2.18-2.771-6.01-7.076-6.01-7.076s16.8 4.305 23.11 6.723c6.31 2.417 6.84 3.656 6.84 3.656s-1.94-3.126-8.84-5.897c-6.9-2.772-15.16-4.6-15.16-4.6s15.45.118 27.36 4.01c5.25 1.179 9.44 3.066 9.44 3.066s-9.02 9.2-13.39 12.148c-4.3 2.89-18.75 14.33-23.82 17.456-6.25 3.833-10.73 5.838-18.81 10.555-6.84 4.01-33.97 18.222-38.69 17.81 12.27-4.364 24-26.773 27.66-28.601s-6.37 4.894-6.37 4.894-4.84 9.436-17.46 12.384c-10.37 2.477-29.3-2.064-37.15-3.125 1.01 1.238 9.62 2.182 13.04 3.538s25.18 5.13 25.18 5.13-36.03-1.769-54.61-3.833c-7.08.118-35.38.413-39.39-1.061 1.29-1.651 10.73-6.133 10.73-6.133s13.86.236 20.34.943c6.43.708-7.6-7.017-12.32-7.607.18-.118 25.36 1.769 29.9 4.718z" fill="#202825"/><g clip-rule="evenodd" fill-rule="evenodd"><path d="M226.648 267.322s-43.299-28.743-84.048-55.799c-5.14-3.413-39.722.123-44.574-3.084-21.875-14.433-8.141-30.388-14.556-32.197-17.722-4.934-12.624-16.201-21.958-29.4-11.184 1.768-20.477-10.568-23.808-10.362 0 0-19.573-13.611-29.647-14.392C-1.976 121.307-44 88-44 88v179.28h270.648z" fill="#101615"/><path d="M-43.507 88.576s24.549 12.13 36.432 24.548c18.75 3.701 29.812 8.43 39.146 12.418 9.745 5.099 11.06 6.415 18.01 12.912 7.648 1.398 15.667 12.664 15.667 12.664s-20.149 3.619-44.368 7.484C10.36 160 1.314 150.131-.043 149.474c-1.07-.535 15.954-6.991 32.196-3.29-8.676-5.51-31.703-27.098-40.708-29.976 4.729 9.581-1.07 21.793-2.467 20.724-4.564-10.691-14.885-22.903-21.547-28.66-4.564-4.071-10.938-19.696-10.938-19.696z" fill="#202825"/><path d="M-8.39 117.565s5.098 1.398 6.496 2.22c1.398.823 4.811.905 4.811.905l6.826 1.233-9.128-.329s2.302 2.262 4.03 3.208c1.932 1.028 3.124 2.672 3.124 2.672l5.675 3.619s-5.716-5.674-5.017-5.428c.7.288 1.398-1.891 1.398-1.891s1.398.123 2.262.534c.863.412.863-1.357.863-1.357s2.96.412 3.866 0c.863-.411 1.768 1.357 1.768 1.357s-3.495.124-1.933 1.357c1.563 1.193 2.632 1.563 2.426 1.974-.164.452-2.714-.247-2.22 1.192.493 1.399.822 1.933.822 1.933s-.864.822-2.097.822c-1.234 0-2.632.288-2.632.288l-1.48 1.933c.617.247.658 1.233 2.467 2.344 1.81 1.11 17.065 9.909 18.463 10.033-.165-.658-10.362-10.28-9.663-10.403.699-.124.699-2.015-.864-1.892-1.562.123-1.028-1.069-.164-1.069.863 0 2.714-.041 2.467-.822-.206-.782-.74-1.316-.74-1.316s1.357.452 3.166.658c3.166.411 1.563-1.892 1.563-1.892s5.345 4.071 6.99 5.222c5.14.741 14.72 3.948 14.72 3.948s-11.266-11.431-17.27-11.884c-.699.124-3.988.206-4.646-1.521s-1.151-1.563-2.18-1.727c-1.027-.123-3.412-1.85-4.235-2.056s-6.085-1.686-7.648-2.097c-1.562-.411-12.87-1.563-12.87-1.563l2.467-1.028-4.564-1.233-5.84-2.303c-2.754-.905-.452 3.413-1.48 4.359z" fill="#202825"/><path d="M222.001 221.926s-11.513 14.186-11.02 20.806 2.385 24.631 2.385 24.631H354.94s-20.313-10.28-26.275-15.955c-8.142-3.906-61.268-20.354-69.862-20.354 10.362 5.263-26.07-9.211-36.802-9.128z" fill="#101615"/><path d="M222.001 222.46s-12.089 28.907-4.934 28.907c3.577 0 24.425-9.334 25.823-8.552 6.455-2.18 30.634 6.99 32.073 8.552-.247 9.129-8.512 15.955-8.512 15.955h-83.678s26.317-40.174 39.228-44.862z" fill="#101615"/><path d="M239.888 244.542c1.398-.206 8.882-3.537 12.788-4.277 0 0 15.009 11.431 21.711 14.556 22.821-5.14 51.975-4.687 51.975-4.687s-34.705-13.282-49.672-15.872c-4.318-1.933-12.829-1.028-12.829-1.028s-4.482-9.005-10.691-9.005c0 0-11.308-4.565-13.693-4.153-2.385.37-17.723 1.727-17.723 1.727s10.691 11.719 18.134 22.739z" fill="#202825"/><path d="M327.184 250.545s.494 2.714-5.756 6.62-29.195 10.198-29.195 10.198h62.666c.041-.041-16.982-10.774-27.715-16.818zM8.057 186.44s-8.676 22.533-14.844 26.686c-2.138 1.439-23.356-17.023-26.85-24.795-1.317.946 6.62 19.696 5.386 20.683-9.581 7.402 10.567 15.009 7.689 16.16C-23.44 226.325-44 226.366-44 226.366v40.997s21.259-28.044 25.083-38.57c1.151-3.167 20.066-.371 28.167-1.563 2.426-1.768-6.744-10.897-3.989-12.706 15.584-10.362 32.525-21.217 37.336-24.014 8.142-4.687 37.871 5.757 41.243 6.127 3.33.37-16.365-15.091-22.122-19.778-.946-4.688-34.828-7.073-34.828-7.073s-10.362 9.746-18.833 16.654z" fill="#101615"/><path d="M-8.308 140.181s-25.042 19.901-22.657 33.553c.452 2.508 24.178-21.588 31.21-24.589 1.233 3.7 19.696 5.386 21.3 9.21 18.05 28.907-55.018 36.596-53.826 39.228 3.207 7.114 22.41 17.517 22.41 17.517 8.635 7.484 17.065 7.854 21.382 13.076-9.95.493-30.1-.987-30.1-.987s-8.593-8.183-13.404-12.5c-6.045-.781-12.007-.781-12.007-.781v-58.925s28.043-16.735 35.692-14.802zM140.009 267.322s3.454-6.991.124-15.009c-3.496-8.47-13.858-18.092-17.805-21.505-7.648-6.62-12.295-11.514-12.295-11.514s29.195-7.401 31.58-7.812c2.385-.37 15.995 5.88 15.995 5.88l41.408 28.084-15.914 21.876z" fill="#101615"/><path d="M51.685 229.08s-8.142 10.938-10.527 16.366c-2.385 5.469-12.418 21.875-12.418 21.875h117.026s-17.188-23.314-22.904-28.413c-5.756-5.058-12.993-18.915-15.378-19.696s-22.616 22.41-30.264 22.78-14.968-10.979-18.792-9.828c-3.906 1.234-6.743-3.084-6.743-3.084z" fill="#101615"/><path d="M42.638 188.454s-6.209 11.843-5.756 21.588c.493 9.745 9.457 28.002 9.457 28.002s7.648-8.964 9.088-10.156c1.439-1.152 15.79-6.25 18.174-7.402 2.385-1.151 15.297-8.594 18.668-10.526 3.331-1.933 11.966-3.125 11.966-3.125s-23.438-13.282-35.404-14.803c-11.965-1.563-17.599-5.51-26.193-3.578z" fill="#202825"/><path d="M-19.575 228.587-44 267.322h80.512s21.71-39.352 23.15-40.133c.863-.452 13.323-5.017 12.788-6.867-.822-2.96 23.438-3.413 23.191-4.893-.288-1.686-46.752-9.252-55.51-12.912-.988-.411-9.211 4.482-9.13 4.195.083-.37 7.896-6.045 8.019-6.415.082-.37.206-.74.329-1.151 1.562-5.469 3.783-10.65 3.783-10.65s-32.813 15.707-39.68 25.37c-1.07 1.481 15.79 23.973 18.216 27.92-4.811 3.907-40.955-14.926-41.243-13.199z" fill="#101615"/><path d="M117.558 205.93s-15.584-1.028-25.165 2.879c-9.58 3.906-32.649 18.298-32.649 18.298s21.382-5.058 29.072-6.127c12.747-1.727 23.396.247 23.396.247s18.792-5.099 27.797-7.772c2.755-.822 17.558 4.564 18.792 4.564 0 0-13.529-9.334-17.188-10.444-5.675-1.645-20.025-1.891-24.055-1.645z" fill="#202825"/><path d="M141.654 207.863s1.48 1.439-11.678 5.14c-10.156 2.878-20.025 6.99-20.025 6.99 6.538 4.441 28.701 29.071 29.071 31.785.658-18.38-3.783-20.971-3.783-20.971s22.863 8.759 38.159 11.349c9.334 0 23.109 1.81 24.302 1.81 0 .041-39.763-32.402-56.046-36.103zM68.01 166.949s-12.912-1.439-19.82.206c-6.908 1.603-21.382 2.549-21.382 2.549s12.706 8.059 18.257 7.648c9.252-.74 23.643 3.989 23.643 3.989s12.418-1.933 14.68-4.852c-.041 0-9.046-7.237-15.379-9.54z" fill="#202825"/><path d="M34.004 205.807s-6.21 13.61-8.594 19.038c-1.686 6.908-6.538 9.828-6.538 17.229l-3.084 20.889s14.844-15.831 15.872-18.751c6.538-2.919 21.834.782 28.125-16.447.7-1.933 29.647-16.53 22-16.16s-37.83-7.155-41.943-8.471c-3.824 1.193-5.839 2.673-5.839 2.673z" fill="#101615"/><path d="M57.606 243.185s-17.27-3.578-24.178-1.933c-6.908 1.604-10.609 4.194-10.609 4.194s-27.961 6.703-28.537 10.527c16.16-2.591 57.814 2.549 57.814 2.549s32.484 3.207 50.947 8.841c0-.041-30.716-20.231-45.437-24.178z" fill="#101615"/></g><path d="M188.291 265.486s-3.328-14.709-5.352-31.216c-.045-.405 8.388-.832 8.343-1.237-.067-.449-9.445-.449-9.513-.922-.944-6.814-1.979-8.186-3.868-14.73-.247-.855 3.576-3.981 3.306-4.813-.922.922-4.16 1.867-3.463 1.169-2.721-7.736-1.867-11.02-2.744-17.901 6.59 6.769 12.099 6.859 14.663 16.732.135.54.652.922.99 1.372.382.539-2.856 2.991-2.497 3.553.45.697 4.543-.495 4.971.225 2.878 4.745 5.172 9.963 6.207 15.473.067.382-1.665 1.349-1.597 1.731.09.585 1.979.585 2.069 1.147 3.216 21.32 3.216 24.087 3.216 24.087s-.697-15.406.315-31.306l.202-2.788.135-1.62c.135-1.551.27-3.103.45-4.61.09-.765 4.7-.022 4.79-.787.068-.54-5.105-1.844-5.015-2.362.652-4.565 1.597-8.883 2.879-12.526.067-.225 5.375 4.048 5.465 3.823.157-.427-4.903-5.33-4.723-5.735 1.012-2.451 2.226-4.52 3.666-6.072.382-.405 3.935 5.937 4.295 5.532.18-.202-2.856-7.264-2.676-7.466.36-.405 1.439-.495 1.777-.877C224.432 181.96 225.129 176 225.129 176s1.125 18.981-1.147 33.329c-.067.428-6.117.945-6.184 1.372-.09.518 6.184.518 6.072 1.035-.607 2.946-1.395 5.622-2.429 7.804-1.957 4.093-1.732 9.828-3.306 15.517-.113.383-7.174.27-7.534.203 1.709.337 6.544 2.024 7.219 2.024-.607 2.406-1.844 8.411-2.361 10.682-.113.54-7.669-2.226-7.782-1.709 2.294.248 4.318 3.846 6.567 3.441-1.237 5.757-3.823 10.638-3.823 10.638s3.463-8.457 8.321-15.158c.337-.473 2.182 2.271 2.541 1.799.338-.45-1.304-3.554-.967-4.003 2.812-3.711 7.759-6.365 10.188-8.344.585-.472 1.012 3.508 1.552 3.194.495-.27-.832-4.543-.247-5.016 3.35-2.653 8.703-8.838 13.268-14.528.45-.562 2.564.09 3.329 1.035.45-.563-2.721-1.799-2.294-2.362 5.307-6.791 10.795-14.258 10.795-14.258s3.238 15.27-5.083 31.193c-.337.652-5.06-2.159-5.442-1.507-.338.585 3.89 3.868 3.71 4.521-1.889 6.724-3.598 8.59-5.352 11.739-1.754 3.126-7.399 6.814-7.399 6.814l-3.913-4.812 2.856 5.285-1.237.899-5.397 3.891s15.225-7.916 19.565-6.612c4.341 1.282 8.074 4.453 8.074 4.453s.247-4.296.765-10.21c.045-.428 4.835.629 4.88.18.045-.428-4.678-2.317-4.633-2.767.562-5.802 1.394-12.684 2.519-18.576 2.069 2.226 2.429 2.879 4.026 3.081-1.035-1.124-3.037-4.048-2.767-5.15 2.182-9.153 5.263-16.935 9.558-21.545 0 0 1.845 18.262 1.597 33.397-.022.585-5.69 3.261-5.69 3.846-.022.832 5.645-2.204 5.6-1.395-.247 5.128-.832 11.335-1.889 14.146 0 0 6.32-11.987 13.201-21.815.473-.674-.022 1.372 1.44 2.947.36-.495-.63-4.318-.27-4.813 3.868-5.083 8.186-9.648 12.459-12.032 0 0-1.192 4.903-3.081 11.312-.157.562-3.171 2.339-3.351 2.901 0 0 2.946-1.641 2.654-.674-2.519 7.938-6.5 19.116-9.873 23.838-1.732 2.452-4.138 6.455-4.251 6.927 2.069-2.833 5.825-7.579 5.825-7.579s3.396-3.261 8.074-7.984c.292-.292 3.778 3.936 4.093 3.644.337-.315-2.519-5.195-2.159-5.51 6.297-5.96 15.18-12.527 24.828-14.056 0 0-2.361 6.05-7.196 12.639-.27.382-7.219 2.586-7.489 2.969-.585.764 6.679-1.687 6.027-.922-2.519 2.946-6.792 7.196-10.3 9.49 0 0 6.747-2.811 14.775-4.273.338-.045.675-.112 1.012-.18a4.07 4.07 0 0 0 .518-.09c5.712-.877 11.852-.944 16.619 1.192 0 0-10.885 2.991-20.533 6.814-.742.293-3.868-3.148-4.587-2.833-.675.292 3.261 4.025 2.608 4.318-4.025 1.799-9.67 4.025-11.379 5.757H188.291z" fill="#101615"/><path d="M196.748 265.486s-2.947-48.982-21.073-68.953c0 .63 15.518 16.17 20.083 68.953z" fill="url(#c)"/><path d="M262.552 265.486s1.304-36.388 8.006-58.361c0 .473-4.88 17.677-6.859 58.361z" fill="url(#d)"/><path d="M205.316 265.486s1.147-35.376 12.977-66.772c1.776-4.722 4.767-11.334 6.521-20.375 0 .247-2.226 9.648-6.904 19.813a.765.765 0 0 1-.09.202c-5.352 13.224-12.257 35.759-13.583 67.132z" fill="url(#e)"/><path d="M217.798 265.396s1.776-15.788 19.97-29.844c14.394-10.84 16.62-24.468 18.487-30.518 0 .112-5.06 21.365-19.881 30.226-3.868 2.316-18.217 16.147-20.241 30.158h1.665z" fill="url(#f)"/><path d="M267.927 265.486s14.888-19.701 27.167-43.36c0 .27-11.942 25.436-26.02 43.36z" fill="url(#g)"/><path d="M285.581 265.486s15.968-22.175 32.812-32.632c0 .269-18.891 13.965-31.665 32.632z" fill="url(#h)"/><path d="M291.541 265.486s12.234-18.981 39.896-15.136c0 .27-25.975-3.508-38.749 15.136z" fill="url(#i)"/><path d="M1302.95 267.899s5.04-22.127 8.08-47.008c.07-.606-12.68-1.238-12.58-1.869.07-.682 14.25-.682 14.35-1.39 1.44-10.255 2.99-12.301 5.85-22.152.35-1.263-5.4-5.987-4.99-7.25 1.39 1.389 6.25 2.804 5.21 1.768 4.13-11.67 2.81-16.595 4.13-26.952-9.92 10.18-18.25 10.331-22.12 25.209-.21.834-1.02 1.364-1.5 2.072-.58.833 4.33 4.521 3.75 5.355-.68 1.061-6.86-.733-7.49.353-4.36 7.149-7.82 15.005-9.34 23.29-.1.555 2.5 2.02 2.43 2.601-.13.885-2.99.885-3.12 1.718-4.86 32.105-4.86 36.273-4.86 36.273s1.04-23.214-.45-47.135c-.1-1.389-.18-2.803-.31-4.218-.07-.808-.12-1.617-.2-2.425-.2-2.324-.4-4.648-.66-6.946-.12-1.162-7.08-.025-7.24-1.187-.1-.809 7.7-2.754 7.57-3.562-.98-6.896-2.4-13.362-4.33-18.844-.12-.328-8.1 6.088-8.22 5.759-.23-.656 7.39-8.032 7.14-8.638-1.55-3.688-3.37-6.795-5.55-9.119-.55-.606-5.95 8.942-6.48 8.336-.28-.304 4.31-10.938 4.03-11.241-.53-.606-2.18-.733-2.69-1.313-14.85-17.177-15.92-26.144-15.92-26.144s-1.69 28.568 1.72 50.165c.11.657 9.22 1.415 9.34 2.072.13.783-9.31.783-9.16 1.541.91 4.445 2.1 8.462 3.67 11.771 2.94 6.163 2.61 14.802 4.99 23.365.15.556 10.81.379 11.39.303-2.58.505-9.87 3.031-10.89 3.031.94 3.637 2.79 12.68 3.57 16.065.18.809 11.57-3.359 11.75-2.576-3.44.379-6.53 5.784-9.9 5.178 1.85 8.664 5.77 15.989 5.77 15.989s-5.24-12.731-12.55-22.809c-.51-.707-3.29 3.41-3.82 2.703-.51-.657 1.94-5.355 1.44-6.012-4.25-5.608-11.72-9.574-15.37-12.579-.88-.733-1.54 5.254-2.35 4.824-.73-.404 1.26-6.82.35-7.527-5.06-3.991-13.11-13.312-19.99-21.875-.69-.859-3.85.126-5.02 1.541-.68-.859 4.11-2.703 3.45-3.562-8-10.205-16.3-21.471-16.3-21.471s-4.89 22.987 7.67 46.958c.5.985 7.61-3.258 8.2-2.273.5.884-5.88 5.835-5.6 6.795 2.84 10.129 5.42 12.958 8.08 17.656 2.66 4.724 11.16 10.256 11.16 10.256l5.9-7.25-4.3 7.982 1.87 1.364 8.12 5.835s-22.98-11.897-29.51-9.952-12.18 6.694-12.18 6.694-.35-6.467-1.16-15.384c-.05-.631-7.32.935-7.37.278-.05-.631 7.07-3.511 7.02-4.168-.87-8.739-2.11-19.071-3.8-27.962-3.12 3.334-3.65 4.319-6.08 4.648 1.57-1.693 4.56-6.088 4.18-7.755-3.29-13.792-7.92-25.487-14.4-32.433 0 0-2.76 27.507-2.41 50.266.03.884 8.56 4.901 8.58 5.785.03 1.263-8.5-3.309-8.45-2.097.38 7.704 1.26 17.076 2.83 21.319 0 0-9.51-18.035-19.89-32.862-.71-1.011.02 2.071-2.18 4.445-.53-.732.96-6.517.41-7.224-5.85-7.654-12.36-14.524-18.81-18.111 0 0 1.8 7.376 4.66 17.025.25.833 4.81 3.511 5.06 4.37 0 0-4.46-2.476-4-1.036 3.8 11.948 9.8 28.771 14.88 35.894 2.64 3.688 6.23 9.725 6.43 10.432-3.14-4.269-8.81-11.417-8.81-11.417s-5.11-4.9-12.2-12.024c-.45-.454-5.69 5.936-6.17 5.482-.51-.48 3.79-7.805 3.26-8.311-9.51-8.992-22.91-18.869-37.46-21.142 0 0 3.57 9.093 10.86 19.02.4.556 10.88 3.916 11.31 4.471.89 1.162-10.07-2.551-9.08-1.414 3.82 4.446 10.25 10.836 15.54 14.297 0 0-10.18-4.244-22.3-6.416-.51-.076-1.01-.177-1.55-.253-.25-.05-.5-.075-.78-.126-8.61-1.313-17.9-1.44-25.06 1.793 0 0 16.43 4.497 30.98 10.281 1.14.455 5.82-4.723 6.91-4.269 1.02.43-4.91 6.063-3.95 6.492 6.08 2.728 14.58 6.062 17.17 8.664h169.84z" fill="#101615"/><path d="M1289.49 268s4.49-73.959 32.08-104.1c0 .962-23.63 24.416-30.55 104.1z" fill="url(#j)"/><path d="M1190.38 268s-1.98-55.122-12.12-88.414c0 .712 7.39 26.761 10.39 88.414z" fill="url(#k)"/><path d="M1277.13 268s-1.77-53.535-19.78-101.052c-2.71-7.136-7.29-17.142-9.93-30.856 0 .381 3.4 14.577 10.54 29.967.03.102.08.204.13.305 8.16 20.038 18.71 54.12 20.7 101.611h-1.66z" fill="url(#l)"/><path d="M1258.43 268s-2.68-23.869-30.15-45.126c-21.74-16.386-25.08-36.983-27.92-46.14 0 .177 7.65 32.316 30.03 45.684 5.85 3.5 27.49 24.402 30.58 45.582z" fill="url(#m)"/><path d="M1182.54 268s-22.67-29.504-41.36-64.885c0 .402 18.18 38.042 39.59 64.885z" fill="url(#n)"/><path d="M1156.15 268s-24.26-33.414-49.91-49.198c0 .405 28.76 21.07 48.18 49.198z" fill="url(#o)"/><path d="M1145.46 268s-15.54-34.56-50.63-27.593c0 .489 32.98-6.386 49.18 27.593z" fill="url(#p)"/><path d="M634.083 176.12c8.636 0 15.637-7.001 15.637-15.637s-7.001-15.637-15.637-15.637-15.637 7.001-15.637 15.637 7.001 15.637 15.637 15.637z" fill="url(#r)"/><path d="M669.928 193.875a7.843 7.843 0 1 0 0-15.686 7.843 7.843 0 0 0 0 15.686z" fill="url(#s)"/><path d="M457.021 223.609a7.842 7.842 0 0 0 7.842-7.842 7.842 7.842 0 1 0-15.685 0 7.842 7.842 0 0 0 7.843 7.842z" fill="url(#t)"/><path d="M46.843 87.685a7.843 7.843 0 1 0 0-15.685 7.843 7.843 0 0 0 0 15.685z" fill="url(#u)"/><path d="M1158.2 161.926c4.33 0 7.84-3.511 7.84-7.843 0-4.331-3.51-7.842-7.84-7.842s-7.85 3.511-7.85 7.842c0 4.332 3.52 7.843 7.85 7.843z" fill="url(#v)"/><path d="M1404.4 223.609c4.33 0 7.84-3.511 7.84-7.842a7.841 7.841 0 1 0-15.68 0 7.841 7.841 0 0 0 7.84 7.842z" fill="url(#w)"/><path d="M1229.07 248.1c2.15 0 3.9-1.745 3.9-3.897 0-2.153-1.75-3.898-3.9-3.898s-3.9 1.745-3.9 3.898a3.901 3.901 0 0 0 3.9 3.897z" fill="url(#x)"/><path d="M582.167 205.903a3.897 3.897 0 1 0 0-7.795 3.897 3.897 0 0 0 0 7.795z" fill="url(#y)"/><path d="M603.482 105.921a3.898 3.898 0 1 0-.001-7.795 3.898 3.898 0 0 0 .001 7.795z" fill="url(#z)"/><path d="M65.752 142.199a3.897 3.897 0 1 0 0-7.795 3.897 3.897 0 0 0 0 7.795z" fill="url(#A)"/><path d="M459.773 262.289s-8.451-8.888-28.825-11.013c17.674.196 47.175 9.914 47.175 9.914-3.471-5.738-9.191-9.816-14.815-13.625 10.733 3.223 16.518 8.204 21.724 13.405 0 0 16.517-10.402 36.988-13.967-25.869 10.817-26.384 13.821-26.384 13.821S509.455 251.252 561 244c-51.963 12.844-50.099 14.797-50.099 14.797 15.039-5.006 29.757-8.058 43.8-7.057-15.232 1.954-28.439 4.981-37.887 10.011l-2.089 3.248L447.98 266c-15.94-7.765-42.483-10.304-72.98-10.89 28.311-1.954 61.989.781 84.773 7.179zM768.931 261.276s-4.18-11.312-14.258-14.015c8.742.248 23.334 12.617 23.334 12.617-1.717-7.303-4.546-12.493-7.328-17.341 5.309 4.102 8.17 10.442 10.745 17.061 0 0 8.17-13.238 18.295-17.776-12.795 13.767-13.049 17.59-13.049 17.59S793.504 247.23 819 238c-25.702 16.346-24.78 18.832-24.78 18.832 7.439-6.37 14.718-10.255 21.665-8.981-7.535 2.486-14.067 6.34-18.741 12.742l-1.033 4.133L763.097 266c-7.883-9.882-21.013-13.114-36.097-13.86 14.003-2.486 30.661.994 41.931 9.136zM1085.93 263.951s-4.18-9.696-14.26-12.013c8.75.213 23.34 10.815 23.34 10.815-1.72-6.26-4.55-10.709-7.33-14.864 5.31 3.516 8.17 8.95 10.74 14.624 0 0 8.17-11.348 18.3-15.237-12.8 11.801-13.05 15.077-13.05 15.077S1110.5 251.911 1136 244c-25.7 14.011-24.78 16.142-24.78 16.142 7.44-5.461 14.72-8.79 21.66-7.698-7.53 2.131-14.06 5.434-18.74 10.921l-1.03 3.543L1080.1 268c-7.89-8.471-21.02-11.241-36.1-11.88 14-2.131 30.66.852 41.93 7.831z" fill="#101615"/><ellipse cx="567" cy="268" fill="#101615" rx="43" ry="12"/></g></svg>