<svg xmlns="http://www.w3.org/2000/svg" fill="none" height="246" viewBox="0 0 558 246" width="558" class="injected-svg" data-src="/assets/img/big-logo.3f3095.svg" xmlns:xlink="http://www.w3.org/1999/xlink"><defs><linearGradient id="a-36" gradientUnits="userSpaceOnUse" x1="279.064" x2="279.064" y1="21.16" y2="227.18" fill="none"><stop offset="0" stop-color="#0d3834" fill="none"></stop><stop offset=".06" stop-color="#1a4946" fill="none"></stop><stop offset=".12" stop-color="#245755" fill="none"></stop><stop offset=".17" stop-color="#285c5b" fill="none"></stop><stop offset=".35" stop-color="#1a765b" fill="none"></stop><stop offset=".54" stop-color="#42955b" fill="none"></stop><stop offset=".72" stop-color="#65a55b" fill="none"></stop><stop offset=".87" stop-color="#84b45b" fill="none"></stop><stop offset="1" stop-color="#c7e55a" fill="none"></stop></linearGradient></defs><linearGradient id="a-36" gradientUnits="userSpaceOnUse" x1="279.064" x2="279.064" y1="21.16" y2="227.18" fill="none"><stop offset="0" stop-color="#0d3834" fill="none"></stop><stop offset=".06" stop-color="#1a4946" fill="none"></stop><stop offset=".12" stop-color="#245755" fill="none"></stop><stop offset=".17" stop-color="#285c5b" fill="none"></stop><stop offset=".35" stop-color="#1a765b" fill="none"></stop><stop offset=".54" stop-color="#42955b" fill="none"></stop><stop offset=".72" stop-color="#65a55b" fill="none"></stop><stop offset=".87" stop-color="#84b45b" fill="none"></stop><stop offset="1" stop-color="#c7e55a" fill="none"></stop></linearGradient><clipPath id="b-35" fill="none"><path d="M0 0h558v246H0z" fill="none"></path></clipPath><g clip-path="url(#b-35)" fill="none"><path d="M397.167 245.993c-19.549.081-37.71-13.784-42.933-33.471-3.012.948-6.199 1.539-9.515 1.775v.121h-6.718v-.115c-5.566-.349-11.132-1.768-15.802-4.074-4.367 15.532-29.631 21.093-43.566 14.046-13.174 7.309-37.939 3.537-43.445-10.819-5.674 1.587-11.543 2.3-17.143.579-9.616 2.703-20.85 2.824-29.691-2.313-6.004 11.107-24.3 17.192-36.12 13.125-8.315-2.865-51.281-51.781-43.774-58.438-30.507 27.037-79.24 30.305-97.395-11.914-9.542-7.894-13.936-22.028-9.057-33.324-8.612-35.98 16.416-55.015 50.655-61.846 3.221-6.973 10.23-12.762 17.69-13.529-3.296-11.612-3.761-24.777 7.641-31.999C96.795-6.287 133.878-6.24 138.279 25.853c13.423-1.613 27.851-1.217 38.107 7.975-.566-18.155 17.042-27.89 33.518-24.75 8.296.598 15.944.645 22.845 5.103 11.557-6.684 26.867-4.694 39.805-.794 6.348-7.638 16.645-9.165 26.248-8.216 7.702.672 15.452.625 22.157 4.666 10.364-2.058 21.065 1.244 29.509 7.853 19.838-9.527 45.985-2.077 54.833 18.552.552-24.57 19.461-35.664 42.238-28.032 24.259 3.792 29.462 27.158 20.506 46.946 8.531 4.189 18.605 12.318 24.502 19.17 5.263-13.522 10.068-20.367 27.11-21.517 10.957.652 22.905 2.986 31.463 12.406 6.941 9.259 9.495 24.186 3.592 33.202-1.961 3.685-5.209 5.595-7.42 8.795-2.217 3.221-.451 9.252-1.078 12.944-1.031 6.112-4.05 12.365-6.146 18.168-8.066 22.283-17.298 61.005-47.669 58.86-9.118-.645-18.572-4.384-25.21-10.751-1.826-1.748-14.946-23.796-8.599-24.71-2.554.37-4.959.336-7.783.141-1.273-.088-5.593 30.856-5.829 33.061-.431 4.088-1.624 8.049-2.938 11.942-7.5 22.189-18.956 39.005-44.873 39.119z" fill="#042421"></path><path d="M397.975 82.401c-.101-.995-.478-1.99-.896-2.911-.424-.935-1.354-1.506-2.325-1.21-.62.188-1.26.914-1.529 1.553-.445 1.076-.654 2.266-.863 3.422-.364 1.964-1.381 3.584-2.554 5.191-.229-.894-.242-1.728-.222-2.569.148-7.557.384-15.115.424-22.672.021-5.13-.613-10.227-2.176-15.143-.795-2.487-2.008-4.686-3.558-6.535-4.071-4.875-10.405-7.35-17.231-6.462-7.345.955-13.484 4.19-18.842 9.131-.404.37-.849.7-1.354 1.096-.054.047-.115.088-.169.135-.289-.471-.519-.78-.68-1.123-2.177-4.6-5.566-8.076-9.778-10.779 0-.006-.007-.006-.007-.006-.168-.115-.344-.222-.519-.33-3.706-2.286-7.668-3.227-12.008-2.118-3.093.794-5.944 2.091-8.659 3.739-.587.356-1.187.685-2.251 1.29 0-1.627.047-2.716-.007-3.805-.108-2.179-1.112-3.766-3.268-4.424-.398-.121-.748-.229-1.159-.316h-.054a15.136 15.136 0 0 0-1.55-.243c-3.059-.309-6.119-.625-9.185-.813-2.204-.135-4.427-.202-6.624-.074-2.419.148-3.929 1.56-4.38 3.92-.196.988-.115 2.024-.115 3.04 0 1.095.175 2.211.054 3.294-.27 2.501-.728 4.982-1.018 7.477-.438 3.678-.929 7.349-1.152 11.04-.182 3.06-.269 6.12-.357 9.179-.067 2.057-.128 4.108-.222 6.159-.135 2.918-.371 5.87-2.433 8.216-2.958 3.369-3.262 7.006-1.301 10.933.068.141.128.29.182.437.856 2.24 1.166 4.519.883 6.946-.33 2.878-.552 5.789-.559 8.694-.007 2.279.856 4.35 2.897 5.655 4.953 3.16 10.371 4.989 16.254 5.265 3.114.141 3.531-.316 4.623-3.208 2.722-7.221 5.297-14.51 9.913-20.85.775-1.07 1.374-2.32 1.799-3.57 1.28-3.807 2.372-7.673 3.673-11.472.741-2.151 1.718-4.23 2.661-6.3.661-1.446 1.894-1.721 3.376-1.452 1.759.316 3.067 1.318 4.023 2.703a112.249 112.249 0 0 1 4.3 6.764c.795 1.358 1.745 2.104 3.403 2.03 1.408-.06 2.864-.006 4.232.29 1.543.33 2.506-.135 3.477-1.298 1.516-1.809 3.127-3.557 4.865-5.144 1.078-.988 2.392-1.87 3.76-2.353 2.608-.942 4.542.296 4.926 3.039.398 2.804.661 5.628.883 8.452.438 5.574.809 11.155 3.349 16.312.445.908.667 1.93.944 2.911 1.503 5.232 2.662 10.544 3.18 15.963.149 1.546.883 2.192 2.292 2.508 3.174.719 6.374 1.015 9.629.995 4.286-.027 5.87-.282 7.527-5.762.088-.303.155-.612.216-.921.607-3.483 1.314-6.953 1.779-10.463.404-3.032 1.692-5.318 4.414-6.831 1.55-.86 2.749-2.132 3.349-3.853 1.435-4.135 2.177-8.385 1.718-12.769zM94.982 137.423c-.593-1.251-1.455-3.12-2.641-5.494-1.16-2.427-1.988-4.081-2.44-5.076-.916-1.762-1.597-2.757-2.17-2.992-.485-.094-2.358.282-5.66 1.002-2.635.733-5.795 2.205-9.475 4.35-.121.047-.707.262-1.826.753-1.085.444-1.826.854-2.15 1.19a2.775 2.775 0 0 0-.182.962c.034.343.054.645.142.881.101.275.27.611.472 1.028.249.444.35.72.39.841.722.981 1.389 2.427 1.935 4.283.559 1.889.62 3.382.134 4.626-.694 1.277-1.738 2.192-3.153 2.71-1.416.517-2.965.685-4.657.457a21.924 21.924 0 0 1-4.899-1.063c-1.563-.497-2.817-1.109-3.78-1.781-2.507-1.843-4.623-4.815-6.308-8.916-1.684-4.109-2.763-7.639-3.255-10.57-.033-.081-.222-.592-.485-1.56-.296-.921-.472-1.526-.478-1.789-.06-.289-.236-.894-.533-1.808-.249-.935-.404-1.594-.451-1.977-.014-.397-.115-1.029-.256-1.91-.148-.881-.21-1.526-.196-1.977-.04-.477 0-1.075 0-1.829-.006-.753.081-1.364.155-1.882.135-.491.29-1.042.553-1.668.236-.578.485-1.116.802-1.587.72-1.069 1.914-1.949 3.49-2.655.432-.162.991-.458 1.732-.989.755-.504 1.368-.773 1.928-.84 1.523-.337 2.628-.249 3.369.195.762.477 1.557 1.432 2.433 2.851.188.154.397.477.626.974.23.498.385.794.492.848.081.101.256.215.445.37.23.134.512.168.775.161.25-.047.674-.114 1.213-.222.357 0 .782-.061 1.307-.208.54-.108.977-.269 1.328-.397.357-.128.802-.249 1.327-.397.526-.148.95-.215 1.308-.208 5.094-1.197 8.76-2.535 10.984-4.021.835-.525 1.401-.915 1.678-1.143.242-.182.471-.531.66-1.002.182-.464.175-1.09 0-1.822-.775-2.838-1.206-4.37-1.206-4.734-.034-.7.108-1.419.337-2.125.27-.72.573-1.365.876-1.876.344-.53.694-1.15 1.058-1.862.377-.673.66-1.352.91-2.024.417-2.024-.27-5.601-2.096-10.812-1.483-4.404-3.632-6.96-6.436-7.672-.377-.08-.849.215-1.448.962l-.02.02c-.587.706-.904 1.31-.985 1.829-.087.611.284 1.365 1.106 2.266.195.201.377.39.532.564.532.579.836.982.923 1.224 1.065 2.28 1.274 5.904.721 10.96-.31-.242-.728-.531-1.193-.941-.505-.397-.923-.693-1.314-.901-.35-.229-.754-.484-1.246-.84-.485-.357-.89-.606-1.24-.835-.391-.215-.822-.416-1.348-.625a8.777 8.777 0 0 0-1.577-.403 17.36 17.36 0 0 0-2.257-.384c-2.467-.255-5.182-.06-8.201.599-6.523 1.445-13.437 3.886-20.857 7.268-6.82 3.208-11.071 7.43-12.81 12.789-1.766 5.278-1.685 11.707.175 19.318.506 1.997.768 3.55.789 4.7.013.692-.135 1.392-.432 2.105a8.006 8.006 0 0 1-.768 1.452l-.02.033c-1.873 2.737-1.975 5.702-.35 8.923.404.74.95 1.479 1.644 2.158.72.632 1.455 1.298 2.27 1.937a10.776 10.776 0 0 1 1.941 1.869c.21.316.438.686.674 1.123.007 0 .007.007.007.014.526.948 1.112 2.178 1.752 3.677.944 2.199 1.651 3.766 2.264 4.7 3.646 5.924 8.525 10.201 14.596 12.883 6.032 2.697 12.46 3.288 19.165 1.856 5.89-1.345 12.46-3.886 19.684-7.678 8.201-4.163 12.312-8.647 12.359-13.522.034-1.836-.842-4.727-2.662-8.694zm83.688-26.876c-.229-1.788-.431-2.985-.552-3.604-.741-6.461-1.409-11.02-1.941-13.69a133.44 133.44 0 0 1-.606-2.353c-.277-1.392-.182-2.393.37-3.06.263-.396.762-.88 1.483-1.532.775-.626 1.327-1.291 1.631-1.91 1.61-2.407 2.27-5.271 1.893-8.653-.505-5.272-1.085-9.212-1.685-11.74l-2.062-3.678c-.694-1.09-1.28-1.883-1.772-2.374-.876-.9-1.422-.82-1.651.242-.222 1.03-.357 3.1-.344 6.173.027 3.106-.283 5.386-.822 6.946-.006-.007-.006-.014-.006-.02-.897-1.695-1.813-4.109-2.77-7.188a441.76 441.76 0 0 0-2.446-7.7c-.701-1.996-1.988-3.912-3.814-5.768a12.284 12.284 0 0 0-4.023-2.65c-.007 0-.007-.006-.014-.006a15.612 15.612 0 0 0-3.093-.901c-4.488-.854-10.337-.787-17.527.228-6.854 1.03-12.11 3.577-15.702 7.625 0-.006-.006-.006-.006-.013a46.916 46.916 0 0 1-1.213-3.073c-.351-1.123-.674-2.084-.883-2.891-.236-.767-.458-1.876-.667-3.322-.249-1.445-.411-2.481-.526-3.052-.121-.579-.256-1.702-.465-3.362-.168-1.675-.29-2.717-.384-3.167-.081-.41-.202-1.453-.37-3.127-.169-1.674-.324-2.878-.465-3.577-.128-.66-.418-1.668-.85-2.945-.438-1.318-.923-2.246-1.455-2.777-.586-.565-1.334-1.103-2.332-1.587a7.537 7.537 0 0 0-2.493-.8h-.013a7.464 7.464 0 0 0-.964-.08c-3.538.026-6.961.887-10.263 2.527-3.336 1.695-6.16 3.84-8.477 6.523-.169.242-.695.605-1.53 1.116-.842.51-1.307.941-1.456 1.27-.182.377-.215.854-.141 1.44.087.618.229 1.317.438 2.171.209.814.35 1.298.37 1.419.513 3.18 1.314 7.16 2.4 11.894.835 4.142 2.21 11.633 4.17 22.418.17.921.33 1.822.5 2.71.073.437.154.867.235 1.29.081.444.162.882.243 1.312.094.51.188 1.015.283 1.513 0 .006 0 .013.007.02.1.544.208 1.082.303 1.614.074.37.141.733.215 1.089.054.296.108.585.169.874.114.578.222 1.143.33 1.694.054.283.108.558.162.827.108.532.215 1.056.317 1.574 0 .013.006.02.006.033 0 .007 0 .02.007.027.809 4.041 1.557 7.484 2.23 10.315.432 2.131 1.355 5.661 2.824 10.61 1.415 4.922 2.453 8.768 3.127 11.491.135.659.404 2.226.781 4.747.385 2.528.728 4.465 1.018 5.904.29 1.432.95 3.005 1.927 4.686 1.011 1.634 2.238 2.838 3.707 3.524 1.981.928 5.202 1.008 9.67.242 4.373-.794 7.796-1.822 10.323-3.093a14.925 14.925 0 0 0 1.779-1.338 3.833 3.833 0 0 0 1.166-1.648c.256-.645.519-1.25.708-1.802.236-.517.35-1.223.357-2.037.013-.807-.041-1.479-.054-1.99a28.679 28.679 0 0 0-.35-2.152c-.189-.941-.331-1.641-.411-2.051-.095-.45-.283-1.176-.54-2.239-.289-1.008-.417-1.661-.458-1.869-1.105-4.431-2.695-11.874-4.683-22.397-.068-.33-.283-1.399-.654-3.241-.37-1.85-.627-3.12-.748-3.732-.135-.659-.31-1.728-.499-3.315a30.812 30.812 0 0 1-.323-3.732c-.061-.927-.027-2.044.067-3.294.075-1.298.223-2.481.445-3.503.944-4.035 2.851-5.823 5.735-5.292 2.392.417 4.245 2.609 5.492 6.663.943 3.013 2.608 10.402 4.973 22.169 2.493 11.962 3.882 19.708 4.151 23.15-.034 1.54.182 3.033.634 4.438.451 1.405 1.394 2.454 2.857 3.14 2.392 1.271 5.303 1.923 8.841 1.856 3.747-.074 7.406-1.231 11.004-3.53 3.565-2.253 5.432-5.097 5.634-8.553.114-1.13.128-2.333.047-3.591-.115-1.217-.249-2.729-.526-4.505zm88.648-7.329c-.384-1.27-.889-2.703-1.516-4.35-.586-1.607-.923-2.918-1.024-3.92-.438-3.906-.202-9.427.707-16.514.91-7.127 1.375-11.76 1.436-13.938-.041-1.507-.148-3.725-.317-6.704-.128-3.012-.148-5.231-.108-6.737.014-.337.074-2.677.277-6.98.161-4.31.188-6.65.114-6.986-.094-1.298-.445-2.273-1.051-2.958-.62-.612-1.213-1.043-1.766-1.23h-.013c-.034-.014-.047-.028-.074-.035-.587-.181-1.631-.336-3.174-.463-6.557-1.063-11.119-1.4-13.606-1.043-4.461.626-6.954 2.777-7.513 6.442-.142 2.172-.236 6.939-.23 14.261-.02.881.061 2.266.223 4.149.155 1.89.242 3.315.303 4.236v.148c-.007.72-.108 1.694-.33 2.918 0 .02-.007.04-.007.06-.06.316-.128.653-.202 1.002-.222.626-.748 1.365-1.523 2.138-.782.814-1.294 1.345-1.516 1.675-1.004 1.472-1.233 3.563-.674 6.3.236.424.424 1.224.687 2.273.223 1.096.411 1.855.526 2.32.074.416.094 1.008.074 1.761-.02.746-.168 1.5-.519 2.199a15.663 15.663 0 0 1-1.361 2.138c-3.477 4.344-6.092 5.023-7.857 2.044-.438-.767-.789-1.694-1.139-2.79a12.288 12.288 0 0 1-.674-2.784 103.42 103.42 0 0 1-.249-3.308 32.343 32.343 0 0 0-.209-3.02c-.101-.84-.277-2.104-.486-3.657-.208-1.594-.417-2.938-.518-4.075-.135-1.13-.27-2.387-.398-3.819-.121-1.425-.128-2.723.027-3.886.593-9.192.283-17.738-.923-25.679.013-.417-.061-.8-.304-1.136a8.678 8.678 0 0 0-.525-.814c-.162-.208-.404-.383-.822-.524-.142-.034-.277-.074-.391-.108l-.014-.007a2.555 2.555 0 0 1-.471-.16c-.209-.048-.627-.102-1.207-.203-.586-.053-1.004-.148-1.212-.242-2.379-.396-5.142-.638-8.282-.726-.418-.013-1.213-.08-2.345-.235-1.126-.114-2.089-.222-2.925-.249-.795-.02-1.718.04-2.77.094-1.01.094-1.9.323-2.702.68-.768.356-1.327.84-1.637 1.458-.263.33-.398.7-.452 1.157-.054.424-.108.88-.121 1.378l-.041 1.385c-.006.417.021.874.048 1.338.026.505.06.922.053 1.258.102 3.765.155 6.488.108 8.075-.087 6.28-.451 11.747-1.125 16.373-.465-1.607-1.112-2.643-1.941-3.093a2.233 2.233 0 0 0-1.361-.262c-.209 0-.465.074-.674.154a1.887 1.887 0 0 0-.559.484c-.175.202-.304.41-.357.619-.048.249-.135.498-.189.834-.047.33-.142.578-.189.787a4.161 4.161 0 0 0-.108.833c-.006.296-.013.545-.013.626-.505 3.47-.115 7.006 1.152 10.583v.013c.425 1.19.944 2.387 1.557 3.584.707 1.567 1.294 3.174 1.712 4.855.451 1.688.862 3.624 1.219 5.856.398 2.226.728 3.907 1.038 5.003 1.233 5.433 3.127 9.797 5.634 13.132 2.83 3.839 6.482 6.495 10.977 7.914 4.528 1.425 9.178 1.593 13.99.558 2.196-.612 4.69-1.298 7.52-2.058.472-.235 1.449-.753 2.985-1.627 1.53-.881 2.675-1.311 3.43-1.291.465-.114.923-.013 1.463.296.532.262.99.571 1.273.827.33.303.775.733 1.348 1.338.573.598.977.988 1.186 1.076.249.215.694.686 1.435 1.338.735.686 1.348 1.21 1.759 1.593.404.39.984.828 1.678 1.265.66.437 1.28.746 1.826.887 1.004.027 1.712.088 2.258.182.539.141 1.26-.047 2.156-.565s1.577-.921 2.049-1.244c.512-.316 1.152-.841 1.927-1.661.782-.773 1.381-1.385 1.772-1.788.391-.451.91-1.022 1.557-1.762a23.6 23.6 0 0 0 1.388-1.594c.863-.934 1.314-2.138 1.355-3.597.04-1.466-.129-2.81-.513-4.075zm216.778 18.276a22.549 22.549 0 0 0-1.462-.72c-.822-.342-.991-.86-.451-1.627-.068-.578.033-1.459.242-2.615.256-1.184.411-1.796.445-1.917.384-3.355.559-6.414.505-9.238-.141-6.038-1.61-10.947-4.461-14.692a47.283 47.283 0 0 0-3.12-3.61c-2.884-3.04-6.388-6.005-10.472-8.876-2.823-1.97-5.155-3.342-6.994-4.108-.29-.209-1.052-.619-2.352-1.291a36.172 36.172 0 0 0-2.696-1.291c-.519-.175-1.273-.283-2.257-.316-1.618.611-3.477 2.696-5.62 6.36-.014.034-.034.06-.054.095-1.375 2.326-2.433 4.43-3.147 6.36-.054.202-.155.437-.209.64-.223.893-.27 1.747-.095 2.568.182.995.452 1.795.823 2.366.323.599 1.105 1.271 2.237 2.078 1.132.807 1.914 1.311 2.379 1.513.417.242 1.421.713 2.884 1.425 1.887.915 3.396 1.775 4.515 2.488 1.071.706 2.197 1.728 3.335 3.013 1.092 1.311 1.982 2.75 2.561 4.363.991 2.717 1.328 5.305 1.078 7.787-.215 2.535-1.354 4.794-3.308 6.845.134-1.049.121-2.004-.054-2.825-.169-.86-.573-1.485-1.24-1.909-.701-.484-1.617-.283-2.824.531-.99.652-1.94 2.011-2.911 4.095-.964 2.084-1.88 3.449-2.716 4.014-1.32.787-3.632.841-6.934.215-.404-.101-1.644-.329-3.659-.753-2.015-.39-3.632-.672-4.811-.8-1.22-.134-2.42-.182-3.673-.202 1.456-8.216 2.52-13.73 3.248-16.567.58-1.755 2.493-7.524 5.768-17.267a77.618 77.618 0 0 0 1.133-3.598c1.004-3.415 2.089-7.8 3.254-13.205 1.651-7.477 3.073-13.031 4.347-16.635.337-.82.997-2.549 2.042-5.265.99-2.683 1.563-4.438 1.725-5.218.162-.82.498-2.635 1.024-5.52.155-2.152-.256-3.927-1.233-5.325-1.28-1.836-3.524-3.026-6.746-3.57-.552-.055-1.981-.377-4.285-1.01-2.305-.625-4.246-.994-5.903-1.115-1.665-.074-3.114.161-4.387.74-1.038.517-1.847 1.304-2.453 2.312-.566 1.022-.944 2.004-1.072 3.006-.155.955-.256 2.185-.377 3.664-.074 1.493-.216 2.535-.371 3.14-.586 3.651-2.17 9.165-4.67 16.555-2.5 7.396-4.043 13.091-4.636 17.085-1.402 8.277-2.527 13.912-3.416 16.924-.021.047-.034.094-.048.141l-.04.135c-.02.053-.04.107-.054.161-.027.08-.054.161-.074.235-.007.014-.007.02-.014.034-.983 2.992-2.217 5.265-3.605 6.811-.31.357-.889.942-1.799 1.789-.869.854-1.577 1.58-2.008 2.252a11.518 11.518 0 0 0-1.173 2.374c-1.624 4.512-2.082 10.005-1.422 16.561.169 2.373.081 4.902-.262 7.618-.021.081-.189.901-.546 2.454-.344 1.506-.492 2.764-.512 3.712-.027.941.229 1.613.829 1.977.303.168.653.342 1.037.524.391.148.883.269 1.422.363.546.054.91.148 1.119.202.505.215 1.253.491 2.291.84 1.044.31 1.799.585 2.305.8 1.671.559 3.834 1.07 6.496 1.486.33.081 1.011.296 2.055.606.991.343 1.941.538 2.702.605.748.107 1.348-.047 1.739-.377.296-.141.472-.316.559-.504.108-.235.236-.417.351-.686.101-.235.276-.41.539-.424.424-.457 1.449-.759 3.086-.901.66-.047 2.756.229 6.301.915.343 0 1.664.249 4.083.78 2.366.558 4.178.935 5.459 1.177.121.026 1.091.107 2.945.316 1.846.215 2.944.322 3.295.322.29.034 1.226.094 2.79.236 1.536.087 2.655.114 3.335-.014.715-.08 1.618-.235 2.696-.39a12.4 12.4 0 0 0 2.965-.76c4.043-1.432 8.74-4.552 14.023-9.467.573-.544 1.611-1.23 3.14-2.131 1.49-.921 2.561-1.722 3.228-2.461.155-.262.438-.706.809-1.305.397-.544.782-1.183 1.166-1.862.39-.679.653-1.345.768-1.964.081-.672-.027-1.082-.452-1.277zm43.088-11.693c-.081-.444-.6-.935-1.436-1.466a42.43 42.43 0 0 0-1.752-1.156c0-.007-.006-.007-.006-.007h-.007c-6.314-4.034-11.57-5.809-15.829-5.271-1.132.107-2.143.464-3.013 1.089-.923.645-1.664 1.277-2.304 1.95-.634.672-1.281 1.587-1.88 2.81-.641 1.217-1.119 2.239-1.429 3.04-.31.793-.728 1.882-1.274 3.294a543.09 543.09 0 0 0-1.084 2.791c-2.002 4.854-4.381 11.309-7.164 19.358-.229.625-.458 1.23-.674 1.835-3.376 9.172-5.626 15.062-6.786 17.745-.181.47-.593 1.318-1.192 2.541-.64 1.211-1.092 2.165-1.341 2.818-.256.652-.607 1.56-.984 2.743-.425 1.21-.593 2.192-.62 3.012.02.8.128 1.715.33 2.71.196.988.627 1.822 1.253 2.481 1.928 2.239 4.448 3.92 7.568 5.036 3.167 1.09 6.166 1.54 9.037 1.352 3.666-.303 5.984-1.533 6.92-3.631.391-1.015.903-2.649 1.537-4.821.633-2.172 1.058-3.591 1.307-4.25 1.415-3.866 2.682-7.463 3.888-10.785 1.779-5.231 3.019-8.546 3.659-9.884.438-.914.998-1.822 1.598-2.716a45.594 45.594 0 0 1 2.23-2.845 60.197 60.197 0 0 0 2.015-2.393c.869-1.708 1.402-2.878 1.557-3.483.202-.632.431-1.876.64-3.712.229-1.869.418-3.126.6-3.806.444-2.333 1.381-5.506 2.762-9.601.108-.289.243-.74.445-1.372.162-.645.337-1.197.512-1.755.128-.538.31-1.008.492-1.479.405-1.049.512-1.762.425-2.172zm10.499-22.7c-.175-.396-.58-.76-1.193-1.123-.62-.322-.97-.833-1.038-1.52.074-.725.25-1.283.573-1.7.33-.41.492-.935.505-1.513.014-.578-.289-1.19-.862-1.87-.674-.813-1.813-1.58-3.417-2.292-.006 0-.006-.007-.013-.007h-.007c-1.759-.787-4.084-1.506-6.981-2.172-5.263-1.19-8.7-.928-10.337.693-1.705 1.714-3.235 5.339-4.495 10.852-.586 2.273-.613 4.176-.216 5.742.431 1.58 1.591 2.784 3.525 3.611 5.269 2.353 9.131 3.59 11.684 3.698.877.007 1.638-.033 2.278-.168.634-.128 1.213-.444 1.719-.874.478-.484.876-.874 1.192-1.25.31-.384.694-.942 1.166-1.722.479-.814.829-1.385 1.085-1.829.263-.356.762-.787 1.53-1.365a39.81 39.81 0 0 0 1.887-1.526c.512-.47.95-1.05 1.388-1.755.424-.673.438-1.332.027-1.91zm-358.554 65.061c-.27-.417-.802-.868-1.53-1.359-3.646-2.145-7.17-3.066-10.62-2.763-2.399.154-4.003.874-4.845 2.084a3.713 3.713 0 0 0-.371.814c-.074.323-.162.585-.216.874-.06.255-.06.531-.027.861 0 .302.027.571.041.786-.014.195.013.498.067.901.041.377.047.679.007.908.054.262.054.565.007.881a7.666 7.666 0 0 0-.074.921 4.173 4.173 0 0 1-.203.948c-.094.35-.209.646-.276.854-.04.229-.141.551-.236.928-.121.356-.175.666-.215.867-.546 2.34-1.207 4.062-1.982 5.205-.613.975-1.017 2.017-1.26 3.193-.249 1.15-.377 2.468-.424 3.968-.014 1.492-.088 2.662-.243 3.462-1.152-1.983-2.702-4.854-4.596-8.626-1.913-3.773-3.241-6.328-3.996-7.672a38.485 38.485 0 0 0-1.186-2.118c-.505-.922-.835-1.466-.95-1.634-.094-.202-.256-.478-.404-.834-.189-.377-.357-.679-.458-.935-.135-.248-.304-.544-.546-.8-.223-.289-.438-.551-.62-.793a3.17 3.17 0 0 0-1.254-.612c-.492-.128-1.044-.135-1.657-.014a10.85 10.85 0 0 0-1.53.404c-.411.161-.923.37-1.59.632-.668.269-1.126.437-1.395.491-2.75.941-4.994 2.198-6.685 3.732-1.227 1.089-1.894 2.185-2.035 3.314-.142 1.13.222 2.441 1.091 3.927.391.612 1.139 1.762 2.204 3.409 1.065 1.641 1.867 2.952 2.419 3.92.33.572.688 1.271 1.092 2.078.404.834.788 1.533 1.125 2.098.303.578.681 1.25 1.072 1.977.391.753.748 1.452 1.098 2.104.93 1.533 1.981 2.979 3.147 4.411 1.179 1.405 2.669 3.1 4.515 5.063 1.84 1.963 3.086 3.268 3.713 3.947 2.48 2.804 3.875 5.157 4.252 7.1.047.263.115.747.196 1.453.054.706.121 1.217.188 1.56.068.343.202.759.411 1.244.182.517.499.867.903 1.122.411.256.876.384 1.463.411 1.179.074 3.645-.148 7.466-.686 3.558-.464 5.87-1.648 6.934-3.564.31-.558.519-1.177.667-1.835.095-.653.149-1.52.135-2.589a26.82 26.82 0 0 1-.013-1.93c.074-.787.236-1.647.532-2.555.29-.914.58-1.849.896-2.79.344-.948.539-1.789.593-2.515.041-.229.142-1.54.317-3.92.175-2.374.324-3.893.418-4.572.067-.646.216-1.863.397-3.658.209-1.782.412-3.308.661-4.566.29-1.244.593-2.514.977-3.799.121-.524.391-1.425.829-2.723.445-1.298.755-2.407.957-3.355a22.91 22.91 0 0 0 .478-2.817c.054-.431.115-.962.155-1.634.068-.646.115-1.258.189-1.856.061-.558.114-1.123.155-1.627.081-.733-.027-1.291-.33-1.701zm59.159 30.392c-.067-.121-.148-.404-.189-.801-.822-2.118-1.59-2.864-2.271-2.239a23.465 23.465 0 0 0-2.392 2.892c-.445-4.465-.768-7.928-.937-10.375-.047-.478-.128-1.823-.235-3.981-.115-2.192-.277-3.819-.439-4.888-.128-.464-.202-1.177-.215-2.152-.047-.948-.115-1.634-.209-2.024-.007-.127-.128-.753-.29-1.876a36.896 36.896 0 0 1-.37-2.588 11.585 11.585 0 0 1-.081-1.372 24.352 24.352 0 0 1-.021-1.748 20.162 20.162 0 0 0-.067-1.479c.061-.216.142-.7.276-1.486.068-.135.128-.33.209-.572.081-.249.142-.471.223-.686.087-.222.121-.383.107-.518-.026-.289-.188-.564-.485-.88-.323-.31-1.071-.901-2.25-1.735-1.496-1.15-2.743-1.923-3.734-2.306-.647-.33-1.32-.424-1.967-.249-.674.168-1.186.356-1.537.598-.37.256-.869.592-1.516 1.029-.62.437-1.173.753-1.631.935-1.536.578-3.558 1.096-6.031 1.58-2.5.491-4.758 1.062-6.793 1.714-2.028.652-3.82 1.627-5.411 2.952-2.844 2.407-4.939 5.083-6.314 8.028-.788 1.675-1.375 3.53-1.799 5.642-.034.188-.081.511-.148.921-.061.43-.108.8-.155 1.103-.048.322-.095.645-.169.995a5.746 5.746 0 0 1-.296 1.008c-.155.31-.31.592-.499.821-.209-.242-.384-.653-.519-1.197a10.335 10.335 0 0 1-.27-1.614c-.053-.524-.175-.961-.343-1.291-.452-.511-.89-.679-1.321-.477-.438.174-.795.585-1.071 1.217-.438.948-.708 2.272-.715 4-.047 1.702.095 3.067.405 4.068.283.922 1.037 2.118 2.244 3.564 1.213 1.473 1.967 2.616 2.264 3.483.364.975.754 2.501 1.125 4.559.391 2.051.721 3.53 1.031 4.478.95 2.851 2.696 4.875 5.182 6.112 2.487 1.21 5.297 1.647 8.417 1.251 6.597-.713 11.449-2.683 14.556-5.884.384 2.508.822 3.974 1.266 4.411.634.753 1.982.941 4.064.518 1.28-.209 2.837-.599 4.636-1.177.135-.013.519-.108 1.146-.276a25.333 25.333 0 0 0 1.651-.484c.465-.121.842-.322 1.085-.558a1.91 1.91 0 0 0 .519-.928c.094-.376.175-.887.215-1.506.047-.639.088-1.015.128-1.15.27-2.071.647-3.59 1.112-4.538a5.88 5.88 0 0 1 .324-.747c.175-.363.256-.585.303-.692.013-.108.074-.33.168-.686.095-.35.128-.592.034-.719zm-18.127-14.329c-.162.491-.499 1.109-.984 1.849-.505.74-.822 1.298-.91 1.735-.269.766-.121 2.239.438 4.384.007.054.054.255.169.591.081.337.168.619.242.848.047.235.101.497.162.807.081.309.074.497 0 .558-.04.08-.788.316-2.183.746-1.395.403-3.073.894-5.007 1.432-.263.027-.728.155-1.402.377-.66.255-1.26.417-1.799.551a7.268 7.268 0 0 1-1.53.155c-1.22-.014-2.089-.693-2.567-2.051-.485-1.358-.634-3.093-.411-5.157.188-2.085.431-3.86.734-5.319.31-1.466.6-2.763.917-3.886.896-3.241 1.887-5.279 2.978-6.072 1.469-1.237 4.097-2.004 7.918-2.333 1.631-.162 2.453-.195 2.46-.141.141.067.269.585.37 1.607.29 2.306.459 4.014.513 5.09.114 1.902.067 3.308-.108 4.229zm50.877 11.565c-.283-1.809-.431-2.932-.458-3.409-.29-5.11-1.004-11.249-2.15-18.423-.31-1.675-.667-4.747-1.051-9.219-.384-4.438-.842-7.826-1.395-10.119-.168-.653-.35-1.09-.573-1.238-.215-.141-.62-.255-1.26-.295-.135.006-.236.013-.344.02-.101.007-1.57-.175-4.4-.572-4.212-.504-7.028-.134-8.464 1.11-.384.282-.68.645-.869 1.076-.189.41-.297.813-.377 1.237-.081.43-.081.907-.027 1.479.06.578.114 1.056.188 1.419.047.396.128.867.243 1.439.081.578.189.995.256 1.257.647 4.001.856 7.269.654 9.79-1.052-1.762-1.705-3.026-1.961-3.772a11.188 11.188 0 0 0-.122-1.21c-.06-.632-.161-1.049-.31-1.332-.235-.383-.566-.598-.963-.605-.425 0-.87.074-1.335.235l-.289.014c-.472.081-.802.417-.977.982-.068.269.047.84.31 1.728.229.854.363 1.378.37 1.506.095.262.256 1.257.492 2.985.229 1.735.485 3.039.721 3.9.283 1.224 1.018 3.032 2.217 5.473 1.193 2.414 1.914 4.33 2.123 5.776.256 2.098.418 3.618.472 4.566s.087 2.508.101 4.646c.02 2.165.054 3.725.108 4.673.289 6.058.485 10.482.646 13.28.021.39.358 2.568.971 6.495.013.134.02.343.034.605.02.289.033.524.02.767-.041.242-.027.477.04.685a.839.839 0 0 0 .263.484c.007.081.384.189 1.159.33a29.39 29.39 0 0 0 3.012.814c.91.181 2.062.383 3.477.571 1.416.208 2.635.242 3.66.108a13.61 13.61 0 0 0 2.924-.72c.93-.37 1.611-1.015 2.008-1.963.371-.942.465-2.138.25-3.55-.418-2.777-.647-4.882-.647-6.307-.034-.552-.149-1.628-.29-3.261-.168-1.628-.209-2.737-.081-3.268.02-.639.196-1.305.499-2.038s.606-1.459.91-2.165c.276-.679.451-1.318.505-1.849.074-.955-.027-2.353-.29-4.135zm36.524-31.918c-.222-.552-.566-.861-1.044-.908h-.317a4.283 4.283 0 0 0-1.328-.134c-.418.033-.707.275-.909.672-.128.296-.203.719-.25 1.351-.013.606-.033 1.002-.033 1.217-.176.767-.735 2.065-1.692 3.9-.35-2.501-.371-5.776-.034-9.817.075-.262.149-.685.196-1.264.067-.585.114-1.062.135-1.452.02-.37.04-.847.087-1.425.014-.585-.02-1.056-.128-1.48a5.401 5.401 0 0 0-.492-1.203c-.195-.424-.519-.76-.916-1.016-1.523-1.143-4.38-1.311-8.518-.511-2.797.592-4.245.881-4.353.881s-.209 0-.371.007c-.606.087-.997.222-1.206.383-.209.162-.364.612-.512 1.271-.364 2.333-.58 5.735-.647 10.193-.094 4.492-.209 7.578-.391 9.266-.64 7.242-.916 13.414-.842 18.531 0 .477-.088 1.614-.216 3.436-.162 1.795-.141 3.194.007 4.142.06.524.283 1.156.633 1.808.357.686.708 1.392 1.065 2.098.35.706.573 1.365.633 1.997.142.525.209 1.634.155 3.268-.027 1.634-.067 2.717-.06 3.275.101 1.418.027 3.53-.196 6.334-.141 1.425.034 2.608.499 3.523.465.921 1.159 1.513 2.116 1.815.984.276 1.961.451 2.992.511 1.031.068 2.251-.053 3.646-.369a42.217 42.217 0 0 0 3.396-.814 29.19 29.19 0 0 0 2.972-1.015c.734-.195 1.105-.337 1.105-.411a.746.746 0 0 0 .256-.511c.027-.208.02-.443-.007-.685-.027-.236-.06-.471-.06-.76-.007-.262-.007-.478-.014-.605.364-3.967.519-6.159.512-6.556-.04-2.791-.128-7.222-.269-13.286-.014-.955-.088-2.509-.229-4.667-.135-2.138-.209-3.691-.223-4.639-.013-.955.041-2.481.142-4.593.114-1.452.694-3.415 1.711-5.91 1.025-2.522 1.631-4.377 1.8-5.621.195-.874.363-2.192.471-3.934.108-1.741.196-2.75.25-3.012 0-.134.094-.659.289-1.533.203-.901.243-1.486.189-1.748zm25.917 23.056c.128-.054.256-.114.411-.148.135-.054.29-.061.506-.067.209-.007.343-.014.397-.014 2.399-.168 4.616-.329 6.645-.45 1.031-.041 5.027-.081 12.008-.148 3.619-.047 6.294-.699 8.026-1.923 1.213-.861 2.015-1.977 2.439-3.362.196-.538.243-1.432.122-2.643-.128-1.237-.155-2.084-.095-2.561.121-.343.074-.922-.168-1.735-.243-.807-.364-1.278-.371-1.439-.256-1.889-.627-3.483-1.071-4.761-.182-.605-.526-1.385-1.065-2.313-.559-.927-.903-1.526-1.045-1.808-.451-.854-1.01-1.601-1.718-2.186-.35-.248-.896-.706-1.631-1.311a34.443 34.443 0 0 0-1.745-1.392c-.438-.275-.977-.625-1.624-1.048a29.322 29.322 0 0 0-1.948-1.117c-2.709-1.062-5.687-1.486-8.962-1.311-3.747.262-7.035.78-9.839 1.54-2.83.74-5.188 2.118-7.102 4.081a18.101 18.101 0 0 0-2.541 3.524 20.126 20.126 0 0 0-1.671 4.263c-.418 1.546-.768 2.904-.991 4.074a54.606 54.606 0 0 0-.653 4.505c-.6-1.082-1.126-2.568-1.591-4.424 0-.054-.101-.551-.262-1.419a13.45 13.45 0 0 0-.58-2.145c-.236-.517-.485-.827-.775-.894a.798.798 0 0 0-.552.074c-.155.108-.31.303-.432.545a5.291 5.291 0 0 0-.343.672 9.8 9.8 0 0 0-.297.72c-.067.268-.168.43-.222.43a14.5 14.5 0 0 0-.283.934 4.966 4.966 0 0 0-.074.875c.013.289.02.551.027.766.006.182.074.498.141.888.094.423.135.739.142.921.006.208.047.632.148 1.237.074.605.141.995.202 1.15.034.188.094.551.168 1.076.102.551.196.948.257 1.183.087.235.202.572.35 1.015.148.417.323.78.492 1.036.195.289.418.571.667.901.249.336.499.645.795.894 1.348 1.244 2.103 2.38 2.271 3.402.101.74.121 1.291.108 1.634-.014.343-.047.874-.094 1.641-.027.74-.061 1.324-.048 1.741-.02 3.013.748 5.964 2.332 8.869 1.59 2.898 3.659 5.278 6.267 7.08 2.581 1.89 5.795 3.04 9.596 3.457 3.821.389 7.251.107 10.283-.895 2.905-.847 4.556-1.331 4.973-1.398 1.025-.168 2.595-.041 4.724.437 1.523.423 2.864.107 3.963-.962.276-.349.478-.625.606-.84.121-.215.169-.451.128-.713a3.45 3.45 0 0 0-.182-.605c-.081-.155-.222-.357-.444-.666-.223-.282-.391-.544-.533-.746-.229-.652-.33-1.15-.31-1.419.014-.262.128-.766.31-1.486.162-.719.303-1.224.344-1.493.074-.289.175-1.089.337-2.44.161-1.325.283-2.334.391-3.019.337-2.394-1.072-4.136-4.178-5.158-.836-.316-1.82-.571-2.965-.739a14.842 14.842 0 0 0-3.626 0c-1.287.154-2.176.551-2.621 1.257a4.53 4.53 0 0 0-.371.881 5.112 5.112 0 0 0-.276 1.096c-.068.343-.101.74-.115 1.19-.013.424-.047.793-.121 1.062-.411 1.728-.95 2.912-1.617 3.544-.634.706-1.55 1.056-2.716 1.022-1.166-.04-2.224-.215-3.221-.545a13.272 13.272 0 0 1-2.689-1.304c-.492-.377-.957-.78-1.341-1.163a7.87 7.87 0 0 1-1.085-1.493c-.31-.625-.566-1.116-.714-1.506-.148-.417-.357-.989-.62-1.775a34.19 34.19 0 0 0-.613-1.668c-.56-1.479-.775-2.32-.728-2.528.067-.215.168-.35.303-.437zm-1.934-10.859c.741-3.644 2.049-6.3 3.922-7.928.33-.275.748-.551 1.24-.806.519-.256.937-.485 1.328-.659.363-.195.855-.37 1.462-.525.6-.155 1.071-.249 1.361-.316.317-.034.815-.107 1.53-.242.707-.128 1.206-.202 1.496-.208 2.284-.424 4.279.477 5.943 2.743.202.336.654 1.217 1.314 2.616.142.208.364.544.647 1.008.31.464.506.854.674 1.19.148.336.216.726.229 1.123-1.085.04-2.803.074-5.128.081-2.305.033-4.178.047-5.633.101-1.422.047-3.141.215-5.115.497-1.975.283-3.727.72-5.27 1.325zm99.039-.525a2.427 2.427 0 0 0-.573-.665 5.793 5.793 0 0 0-1.017-.552c-.404-.161-.762-.295-1.085-.416-.33-.128-.721-.216-1.186-.33-.465-.094-.775-.168-.903-.188-2.588-.767-4.987-1.17-7.184-1.137-.694-.02-1.745.068-3.167.29-.215.026-.755.026-1.658.006-.876-.02-1.469.027-1.779.115-.431.208-.734.665-.862 1.371-.128.7-.182 1.601-.128 2.723.027 1.096.04 1.769.013 1.95-.155 1.628-.835 3.934-2.001 6.852-.762 1.943-2.103 6.576-3.983 13.905-.404-.141-.923-.269-1.59-.444-.674-.175-1.213-.309-1.644-.45-.438-.115-.917-.316-1.422-.552a3.695 3.695 0 0 1-1.267-1.008 5.326 5.326 0 0 1-.741-1.52c-.236-.78-.337-1.728-.344-2.817.027-1.116.02-2.159-.054-3.127s-.323-1.829-.775-2.588c-.283-.444-.478-.948-.613-1.527-.101-.578-.155-1.116-.101-1.667a7.195 7.195 0 0 1 .216-1.513c.094-.471.229-1.036.404-1.701.148-.673.263-1.244.33-1.715.02-.128.108-.78.283-1.983.169-1.177.297-2.038.344-2.562.027-.558-.034-1.258-.175-2.105-.149-.847-.425-1.499-.863-1.99-1.429-1.594-4.4-2.259-8.929-2.004-1.813.168-3.416.363-4.845.639-.775.182-1.321.45-1.61.807-.297.383-.546.988-.748 1.869-.546 2.481-.903 6.078-1.032 10.859-.155 4.747-.35 8.156-.646 10.194-.088-.31-.182-.962-.304-1.964-.094-1.029-.343-1.701-.775-2.03-.626-.491-1.199-.572-1.725-.249-.532.349-.856.914-.97 1.728-.067.47-.088.975-.014 1.546.054.565.128 1.164.243 1.843.121.659.182 1.17.182 1.519.155 1.89.559 3.335 1.247 4.31a15.847 15.847 0 0 0 1.846 2.024c.755.72 1.449 1.459 2.116 2.172a13.45 13.45 0 0 1 1.638 2.179c1.691 3.281 4.023 5.641 7.068 7.113 1.025.498 2.089.888 3.201 1.13a54.4 54.4 0 0 0 4.185.814c1.671.262 2.79.45 3.342.531.25.114.405.168.479.175a.43.43 0 0 1 .249.141c.095.094.135.154.155.235.041.061.068.256.081.518.067.094.041 1.049-.094 2.891-.142 2.461-.506 4.25-1.099 5.413-.674 1.345-1.745 2.098-3.214 2.286-1.469.161-2.642-.403-3.497-1.701-.452-.76-.856-1.271-1.274-1.513-.418-.276-1.119-.592-2.082-.941a3.11 3.11 0 0 1-.876-.417 3.37 3.37 0 0 1-.782-.7c-.276-.282-.465-.47-.58-.591-.141-.128-.343-.397-.66-.814-.337-.423-.519-.632-.6-.645-2.028-2.582-4.717-2.676-8.019-.323-4.07 2.851-5.519 5.493-4.346 7.927 3.349 6.96 7.924 11.693 13.787 14.188 6.382 2.622 13.006 2.427 19.866-.666a120.618 120.618 0 0 0 3.174-1.466c.687-.329 1.597-.887 2.668-1.667 1.079-.78 1.914-1.567 2.507-2.387.371-.504.714-1.231 1.072-2.219.33-.988.613-1.641.788-1.963.391-.827.607-1.406.654-1.749.027-1.116.094-1.929.168-2.454.081-.202.229-1.029.445-2.521.216-1.486.391-2.529.505-3.147.142-.599.384-1.385.775-2.421.391-1.015.816-1.775 1.328-2.346.168-.242.505-.538 1.011-.915a7.095 7.095 0 0 0 1.206-1.136c.296-.356.438-.794.424-1.271-.033-.141-.114-.309-.215-.511-.135-.182-.169-.316-.162-.37-.067-.087-.054-.383.027-.928.074-.551.121-.833.128-.914.061-.39.115-.968.148-1.742.027-.739.054-1.297.021-1.647.411-5.641 1.084-9.918 2.062-12.816 1.28-4.081 1.947-6.273 1.987-6.535.257-.868.506-1.849.722-2.986.02-.161.121-.464.242-.954.155-.511.236-.875.27-1.11.033-.235.027-.551-.074-.995.02-.128.155-.699.417-1.755.256-1.029.398-1.856.411-2.495a5.938 5.938 0 0 0-.148-1.728z" fill="#42955B"></path><path d="M397.975 82.401c-.101-.995-.478-1.99-.896-2.911-.424-.935-1.354-1.506-2.325-1.21-.62.188-1.26.914-1.529 1.553-.445 1.076-.654 2.266-.863 3.422-.364 1.964-1.381 3.584-2.554 5.191-.229-.894-.242-1.728-.222-2.569.148-7.557.384-15.115.424-22.672.021-5.13-.613-10.227-2.176-15.143-.795-2.487-2.008-4.686-3.558-6.535-4.071-4.875-10.405-7.35-17.231-6.462-7.345.955-13.484 4.19-18.842 9.131-.404.37-.849.7-1.354 1.096-.054.047-.115.088-.169.135-.289-.471-.519-.78-.68-1.123-2.177-4.6-5.566-8.076-9.778-10.779 0-.006-.007-.006-.007-.006-.168-.115-.344-.222-.519-.33-3.706-2.286-7.668-3.227-12.008-2.118-3.093.794-5.944 2.091-8.659 3.739-.587.356-1.187.685-2.251 1.29 0-1.627.047-2.716-.007-3.805-.108-2.179-1.112-3.766-3.268-4.424-.398-.121-.748-.229-1.159-.316h-.054a15.136 15.136 0 0 0-1.55-.243c-3.059-.309-6.119-.625-9.185-.813-2.204-.135-4.427-.202-6.624-.074-2.419.148-3.929 1.56-4.38 3.92-.196.988-.115 2.024-.115 3.04 0 1.095.175 2.211.054 3.294-.27 2.501-.728 4.982-1.018 7.477-.438 3.678-.929 7.349-1.152 11.04-.182 3.06-.269 6.12-.357 9.179-.067 2.057-.128 4.108-.222 6.159-.135 2.918-.371 5.87-2.433 8.216-2.958 3.369-3.262 7.006-1.301 10.933.068.141.128.29.182.437.856 2.24 1.166 4.519.883 6.946-.33 2.878-.552 5.789-.559 8.694-.007 2.279.856 4.35 2.897 5.655 4.953 3.16 10.371 4.989 16.254 5.265 3.114.141 3.531-.316 4.623-3.208 2.722-7.221 5.297-14.51 9.913-20.85.775-1.07 1.374-2.32 1.799-3.57 1.28-3.807 2.372-7.673 3.673-11.472.741-2.151 1.718-4.23 2.661-6.3.661-1.446 1.894-1.721 3.376-1.452 1.759.316 3.067 1.318 4.023 2.703a112.249 112.249 0 0 1 4.3 6.764c.795 1.358 1.745 2.104 3.403 2.03 1.408-.06 2.864-.006 4.232.29 1.543.33 2.506-.135 3.477-1.298 1.516-1.809 3.127-3.557 4.865-5.144 1.078-.988 2.392-1.87 3.76-2.353 2.608-.942 4.542.296 4.926 3.039.398 2.804.661 5.628.883 8.452.438 5.574.809 11.155 3.349 16.312.445.908.667 1.93.944 2.911 1.503 5.232 2.662 10.544 3.18 15.963.149 1.546.883 2.192 2.292 2.508 3.174.719 6.374 1.015 9.629.995 4.286-.027 5.87-.282 7.527-5.762.088-.303.155-.612.216-.921.607-3.483 1.314-6.953 1.779-10.463.404-3.032 1.692-5.318 4.414-6.831 1.55-.86 2.749-2.132 3.349-3.853 1.435-4.135 2.177-8.385 1.718-12.769zM94.982 137.423c-.593-1.251-1.455-3.12-2.641-5.494-1.16-2.427-1.988-4.081-2.44-5.076-.916-1.762-1.597-2.757-2.17-2.992-.485-.094-2.358.282-5.66 1.002-2.635.733-5.795 2.205-9.475 4.35-.121.047-.707.262-1.826.753-1.085.444-1.826.854-2.15 1.19a2.775 2.775 0 0 0-.182.962c.034.343.054.645.142.881.101.275.27.611.472 1.028.249.444.35.72.39.841.722.981 1.389 2.427 1.935 4.283.559 1.889.62 3.382.134 4.626-.694 1.277-1.738 2.192-3.153 2.71-1.416.517-2.965.685-4.657.457a21.924 21.924 0 0 1-4.899-1.063c-1.563-.497-2.817-1.109-3.78-1.781-2.507-1.843-4.623-4.815-6.308-8.916-1.684-4.109-2.763-7.639-3.255-10.57-.033-.081-.222-.592-.485-1.56-.296-.921-.472-1.526-.478-1.789-.06-.289-.236-.894-.533-1.808-.249-.935-.404-1.594-.451-1.977-.014-.397-.115-1.029-.256-1.91-.148-.881-.21-1.526-.196-1.977-.04-.477 0-1.075 0-1.829-.006-.753.081-1.364.155-1.882.135-.491.29-1.042.553-1.668.236-.578.485-1.116.802-1.587.72-1.069 1.914-1.949 3.49-2.655.432-.162.991-.458 1.732-.989.755-.504 1.368-.773 1.928-.84 1.523-.337 2.628-.249 3.369.195.762.477 1.557 1.432 2.433 2.851.188.154.397.477.626.974.23.498.385.794.492.848.081.101.256.215.445.37.23.134.512.168.775.161.25-.047.674-.114 1.213-.222.357 0 .782-.061 1.307-.208.54-.108.977-.269 1.328-.397.357-.128.802-.249 1.327-.397.526-.148.95-.215 1.308-.208 5.094-1.197 8.76-2.535 10.984-4.021.835-.525 1.401-.915 1.678-1.143.242-.182.471-.531.66-1.002.182-.464.175-1.09 0-1.822-.775-2.838-1.206-4.37-1.206-4.734-.034-.7.108-1.419.337-2.125.27-.72.573-1.365.876-1.876.344-.53.694-1.15 1.058-1.862.377-.673.66-1.352.91-2.024.417-2.024-.27-5.601-2.096-10.812-1.483-4.404-3.632-6.96-6.436-7.672-.377-.08-.849.215-1.448.962l-.02.02c-.587.706-.904 1.31-.985 1.829-.087.611.284 1.365 1.106 2.266.195.201.377.39.532.564.532.579.836.982.923 1.224 1.065 2.28 1.274 5.904.721 10.96-.31-.242-.728-.531-1.193-.941-.505-.397-.923-.693-1.314-.901-.35-.229-.754-.484-1.246-.84-.485-.357-.89-.606-1.24-.835-.391-.215-.822-.416-1.348-.625a8.777 8.777 0 0 0-1.577-.403 17.36 17.36 0 0 0-2.257-.384c-2.467-.255-5.182-.06-8.201.599-6.523 1.445-13.437 3.886-20.857 7.268-6.82 3.208-11.071 7.43-12.81 12.789-1.766 5.278-1.685 11.707.175 19.318.506 1.997.768 3.55.789 4.7.013.692-.135 1.392-.432 2.105a8.006 8.006 0 0 1-.768 1.452l-.02.033c-1.873 2.737-1.975 5.702-.35 8.923.404.74.95 1.479 1.644 2.158.72.632 1.455 1.298 2.27 1.937a10.776 10.776 0 0 1 1.941 1.869c.21.316.438.686.674 1.123.007 0 .007.007.007.014.526.948 1.112 2.178 1.752 3.677.944 2.199 1.651 3.766 2.264 4.7 3.646 5.924 8.525 10.201 14.596 12.883 6.032 2.697 12.46 3.288 19.165 1.856 5.89-1.345 12.46-3.886 19.684-7.678 8.201-4.163 12.312-8.647 12.359-13.522.034-1.836-.842-4.727-2.662-8.694zm83.688-26.876c-.229-1.788-.431-2.985-.552-3.604-.741-6.461-1.409-11.02-1.941-13.69a133.44 133.44 0 0 1-.606-2.353c-.277-1.392-.182-2.393.37-3.06.263-.396.762-.88 1.483-1.532.775-.626 1.327-1.291 1.631-1.91 1.61-2.407 2.27-5.271 1.893-8.653-.505-5.272-1.085-9.212-1.685-11.74l-2.062-3.678c-.694-1.09-1.28-1.883-1.772-2.374-.876-.9-1.422-.82-1.651.242-.222 1.03-.357 3.1-.344 6.173.027 3.106-.283 5.386-.822 6.946-.006-.007-.006-.014-.006-.02-.897-1.695-1.813-4.109-2.77-7.188a441.76 441.76 0 0 0-2.446-7.7c-.701-1.996-1.988-3.912-3.814-5.768a12.284 12.284 0 0 0-4.023-2.65c-.007 0-.007-.006-.014-.006a15.612 15.612 0 0 0-3.093-.901c-4.488-.854-10.337-.787-17.527.228-6.854 1.03-12.11 3.577-15.702 7.625 0-.006-.006-.006-.006-.013a46.916 46.916 0 0 1-1.213-3.073c-.351-1.123-.674-2.084-.883-2.891-.236-.767-.458-1.876-.667-3.322-.249-1.445-.411-2.481-.526-3.052-.121-.579-.256-1.702-.465-3.362-.168-1.675-.29-2.717-.384-3.167-.081-.41-.202-1.453-.37-3.127-.169-1.674-.324-2.878-.465-3.577-.128-.66-.418-1.668-.85-2.945-.438-1.318-.923-2.246-1.455-2.777-.586-.565-1.334-1.103-2.332-1.587a7.537 7.537 0 0 0-2.493-.8h-.013a7.464 7.464 0 0 0-.964-.08c-3.538.026-6.961.887-10.263 2.527-3.336 1.695-6.16 3.84-8.477 6.523-.169.242-.695.605-1.53 1.116-.842.51-1.307.941-1.456 1.27-.182.377-.215.854-.141 1.44.087.618.229 1.317.438 2.171.209.814.35 1.298.37 1.419.513 3.18 1.314 7.16 2.4 11.894.835 4.142 2.21 11.633 4.17 22.418.17.921.33 1.822.5 2.71.073.437.154.867.235 1.29.081.444.162.882.243 1.312.094.51.188 1.015.283 1.513 0 .006 0 .013.007.02.1.544.208 1.082.303 1.614.074.37.141.733.215 1.089.054.296.108.585.169.874.114.578.222 1.143.33 1.694.054.283.108.558.162.827.108.532.215 1.056.317 1.574 0 .013.006.02.006.033 0 .007 0 .02.007.027.809 4.041 1.557 7.484 2.23 10.315.432 2.131 1.355 5.661 2.824 10.61 1.415 4.922 2.453 8.768 3.127 11.491.135.659.404 2.226.781 4.747.385 2.528.728 4.465 1.018 5.904.29 1.432.95 3.005 1.927 4.686 1.011 1.634 2.238 2.838 3.707 3.524 1.981.928 5.202 1.008 9.67.242 4.373-.794 7.796-1.822 10.323-3.093a14.925 14.925 0 0 0 1.779-1.338 3.833 3.833 0 0 0 1.166-1.648c.256-.645.519-1.25.708-1.802.236-.517.35-1.223.357-2.037.013-.807-.041-1.479-.054-1.99a28.679 28.679 0 0 0-.35-2.152c-.189-.941-.331-1.641-.411-2.051-.095-.45-.283-1.176-.54-2.239-.289-1.008-.417-1.661-.458-1.869-1.105-4.431-2.695-11.874-4.683-22.397-.068-.33-.283-1.399-.654-3.241-.37-1.85-.627-3.12-.748-3.732-.135-.659-.31-1.728-.499-3.315a30.812 30.812 0 0 1-.323-3.732c-.061-.927-.027-2.044.067-3.294.075-1.298.223-2.481.445-3.503.944-4.035 2.851-5.823 5.735-5.292 2.392.417 4.245 2.609 5.492 6.663.943 3.013 2.608 10.402 4.973 22.169 2.493 11.962 3.882 19.708 4.151 23.15-.034 1.54.182 3.033.634 4.438.451 1.405 1.394 2.454 2.857 3.14 2.392 1.271 5.303 1.923 8.841 1.856 3.747-.074 7.406-1.231 11.004-3.53 3.565-2.253 5.432-5.097 5.634-8.553.114-1.13.128-2.333.047-3.591-.115-1.217-.249-2.729-.526-4.505zm88.648-7.329c-.384-1.27-.889-2.703-1.516-4.35-.586-1.607-.923-2.918-1.024-3.92-.438-3.906-.202-9.427.707-16.514.91-7.127 1.375-11.76 1.436-13.938-.041-1.507-.148-3.725-.317-6.704-.128-3.012-.148-5.231-.108-6.737.014-.337.074-2.677.277-6.98.161-4.31.188-6.65.114-6.986-.094-1.298-.445-2.273-1.051-2.958-.62-.612-1.213-1.043-1.766-1.23h-.013c-.034-.014-.047-.028-.074-.035-.587-.181-1.631-.336-3.174-.463-6.557-1.063-11.119-1.4-13.606-1.043-4.461.626-6.954 2.777-7.513 6.442-.142 2.172-.236 6.939-.23 14.261-.02.881.061 2.266.223 4.149.155 1.89.242 3.315.303 4.236v.148c-.007.72-.108 1.694-.33 2.918 0 .02-.007.04-.007.06-.06.316-.128.653-.202 1.002-.222.626-.748 1.365-1.523 2.138-.782.814-1.294 1.345-1.516 1.675-1.004 1.472-1.233 3.563-.674 6.3.236.424.424 1.224.687 2.273.223 1.096.411 1.855.526 2.32.074.416.094 1.008.074 1.761-.02.746-.168 1.5-.519 2.199a15.663 15.663 0 0 1-1.361 2.138c-3.477 4.344-6.092 5.023-7.857 2.044-.438-.767-.789-1.694-1.139-2.79a12.288 12.288 0 0 1-.674-2.784 103.42 103.42 0 0 1-.249-3.308 32.343 32.343 0 0 0-.209-3.02c-.101-.84-.277-2.104-.486-3.657-.208-1.594-.417-2.938-.518-4.075-.135-1.13-.27-2.387-.398-3.819-.121-1.425-.128-2.723.027-3.886.593-9.192.283-17.738-.923-25.679.013-.417-.061-.8-.304-1.136a8.678 8.678 0 0 0-.525-.814c-.162-.208-.404-.383-.822-.524-.142-.034-.277-.074-.391-.108l-.014-.007a2.555 2.555 0 0 1-.471-.16c-.209-.048-.627-.102-1.207-.203-.586-.053-1.004-.148-1.212-.242-2.379-.396-5.142-.638-8.282-.726-.418-.013-1.213-.08-2.345-.235-1.126-.114-2.089-.222-2.925-.249-.795-.02-1.718.04-2.77.094-1.01.094-1.9.323-2.702.68-.768.356-1.327.84-1.637 1.458-.263.33-.398.7-.452 1.157-.054.424-.108.88-.121 1.378l-.041 1.385c-.006.417.021.874.048 1.338.026.505.06.922.053 1.258.102 3.765.155 6.488.108 8.075-.087 6.28-.451 11.747-1.125 16.373-.465-1.607-1.112-2.643-1.941-3.093a2.233 2.233 0 0 0-1.361-.262c-.209 0-.465.074-.674.154a1.887 1.887 0 0 0-.559.484c-.175.202-.304.41-.357.619-.048.249-.135.498-.189.834-.047.33-.142.578-.189.787a4.161 4.161 0 0 0-.108.833c-.006.296-.013.545-.013.626-.505 3.47-.115 7.006 1.152 10.583v.013c.425 1.19.944 2.387 1.557 3.584.707 1.567 1.294 3.174 1.712 4.855.451 1.688.862 3.624 1.219 5.856.398 2.226.728 3.907 1.038 5.003 1.233 5.433 3.127 9.797 5.634 13.132 2.83 3.839 6.482 6.495 10.977 7.914 4.528 1.425 9.178 1.593 13.99.558 2.196-.612 4.69-1.298 7.52-2.058.472-.235 1.449-.753 2.985-1.627 1.53-.881 2.675-1.311 3.43-1.291.465-.114.923-.013 1.463.296.532.262.99.571 1.273.827.33.303.775.733 1.348 1.338.573.598.977.988 1.186 1.076.249.215.694.686 1.435 1.338.735.686 1.348 1.21 1.759 1.593.404.39.984.828 1.678 1.265.66.437 1.28.746 1.826.887 1.004.027 1.712.088 2.258.182.539.141 1.26-.047 2.156-.565s1.577-.921 2.049-1.244c.512-.316 1.152-.841 1.927-1.661.782-.773 1.381-1.385 1.772-1.788.391-.451.91-1.022 1.557-1.762a23.6 23.6 0 0 0 1.388-1.594c.863-.934 1.314-2.138 1.355-3.597.04-1.466-.129-2.81-.513-4.075zm216.778 18.276a22.549 22.549 0 0 0-1.462-.72c-.822-.342-.991-.86-.451-1.627-.068-.578.033-1.459.242-2.615.256-1.184.411-1.796.445-1.917.384-3.355.559-6.414.505-9.238-.141-6.038-1.61-10.947-4.461-14.692a47.283 47.283 0 0 0-3.12-3.61c-2.884-3.04-6.388-6.005-10.472-8.876-2.823-1.97-5.155-3.342-6.994-4.108-.29-.209-1.052-.619-2.352-1.291a36.172 36.172 0 0 0-2.696-1.291c-.519-.175-1.273-.283-2.257-.316-1.618.611-3.477 2.696-5.62 6.36-.014.034-.034.06-.054.095-1.375 2.326-2.433 4.43-3.147 6.36-.054.202-.155.437-.209.64-.223.893-.27 1.747-.095 2.568.182.995.452 1.795.823 2.366.323.599 1.105 1.271 2.237 2.078 1.132.807 1.914 1.311 2.379 1.513.417.242 1.421.713 2.884 1.425 1.887.915 3.396 1.775 4.515 2.488 1.071.706 2.197 1.728 3.335 3.013 1.092 1.311 1.982 2.75 2.561 4.363.991 2.717 1.328 5.305 1.078 7.787-.215 2.535-1.354 4.794-3.308 6.845.134-1.049.121-2.004-.054-2.825-.169-.86-.573-1.485-1.24-1.909-.701-.484-1.617-.283-2.824.531-.99.652-1.94 2.011-2.911 4.095-.964 2.084-1.88 3.449-2.716 4.014-1.32.787-3.632.841-6.934.215-.404-.101-1.644-.329-3.659-.753-2.015-.39-3.632-.672-4.811-.8-1.22-.134-2.42-.182-3.673-.202 1.456-8.216 2.52-13.73 3.248-16.567.58-1.755 2.493-7.524 5.768-17.267a77.618 77.618 0 0 0 1.133-3.598c1.004-3.415 2.089-7.8 3.254-13.205 1.651-7.477 3.073-13.031 4.347-16.635.337-.82.997-2.549 2.042-5.265.99-2.683 1.563-4.438 1.725-5.218.162-.82.498-2.635 1.024-5.52.155-2.152-.256-3.927-1.233-5.325-1.28-1.836-3.524-3.026-6.746-3.57-.552-.055-1.981-.377-4.285-1.01-2.305-.625-4.246-.994-5.903-1.115-1.665-.074-3.114.161-4.387.74-1.038.517-1.847 1.304-2.453 2.312-.566 1.022-.944 2.004-1.072 3.006-.155.955-.256 2.185-.377 3.664-.074 1.493-.216 2.535-.371 3.14-.586 3.651-2.17 9.165-4.67 16.555-2.5 7.396-4.043 13.091-4.636 17.085-1.402 8.277-2.527 13.912-3.416 16.924-.021.047-.034.094-.048.141l-.04.135c-.02.053-.04.107-.054.161-.027.08-.054.161-.074.235-.007.014-.007.02-.014.034-.983 2.992-2.217 5.265-3.605 6.811-.31.357-.889.942-1.799 1.789-.869.854-1.577 1.58-2.008 2.252a11.518 11.518 0 0 0-1.173 2.374c-1.624 4.512-2.082 10.005-1.422 16.561.169 2.373.081 4.902-.262 7.618-.021.081-.189.901-.546 2.454-.344 1.506-.492 2.764-.512 3.712-.027.941.229 1.613.829 1.977.303.168.653.342 1.037.524.391.148.883.269 1.422.363.546.054.91.148 1.119.202.505.215 1.253.491 2.291.84 1.044.31 1.799.585 2.305.8 1.671.559 3.834 1.07 6.496 1.486.33.081 1.011.296 2.055.606.991.343 1.941.538 2.702.605.748.107 1.348-.047 1.739-.377.296-.141.472-.316.559-.504.108-.235.236-.417.351-.686.101-.235.276-.41.539-.424.424-.457 1.449-.759 3.086-.901.66-.047 2.756.229 6.301.915.343 0 1.664.249 4.083.78 2.366.558 4.178.935 5.459 1.177.121.026 1.091.107 2.945.316 1.846.215 2.944.322 3.295.322.29.034 1.226.094 2.79.236 1.536.087 2.655.114 3.335-.014.715-.08 1.618-.235 2.696-.39a12.4 12.4 0 0 0 2.965-.76c4.043-1.432 8.74-4.552 14.023-9.467.573-.544 1.611-1.23 3.14-2.131 1.49-.921 2.561-1.722 3.228-2.461.155-.262.438-.706.809-1.305.397-.544.782-1.183 1.166-1.862.39-.679.653-1.345.768-1.964.081-.672-.027-1.082-.452-1.277zm43.088-11.693c-.081-.444-.6-.935-1.436-1.466a42.43 42.43 0 0 0-1.752-1.156c0-.007-.006-.007-.006-.007h-.007c-6.314-4.034-11.57-5.809-15.829-5.271-1.132.107-2.143.464-3.013 1.089-.923.645-1.664 1.277-2.304 1.95-.634.672-1.281 1.587-1.88 2.81-.641 1.217-1.119 2.239-1.429 3.04-.31.793-.728 1.882-1.274 3.294a543.09 543.09 0 0 0-1.084 2.791c-2.002 4.854-4.381 11.309-7.164 19.358-.229.625-.458 1.23-.674 1.835-3.376 9.172-5.626 15.062-6.786 17.745-.181.47-.593 1.318-1.192 2.541-.64 1.211-1.092 2.165-1.341 2.818-.256.652-.607 1.56-.984 2.743-.425 1.21-.593 2.192-.62 3.012.02.8.128 1.715.33 2.71.196.988.627 1.822 1.253 2.481 1.928 2.239 4.448 3.92 7.568 5.036 3.167 1.09 6.166 1.54 9.037 1.352 3.666-.303 5.984-1.533 6.92-3.631.391-1.015.903-2.649 1.537-4.821.633-2.172 1.058-3.591 1.307-4.25 1.415-3.866 2.682-7.463 3.888-10.785 1.779-5.231 3.019-8.546 3.659-9.884.438-.914.998-1.822 1.598-2.716a45.594 45.594 0 0 1 2.23-2.845 60.197 60.197 0 0 0 2.015-2.393c.869-1.708 1.402-2.878 1.557-3.483.202-.632.431-1.876.64-3.712.229-1.869.418-3.126.6-3.806.444-2.333 1.381-5.506 2.762-9.601.108-.289.243-.74.445-1.372.162-.645.337-1.197.512-1.755.128-.538.31-1.008.492-1.479.405-1.049.512-1.762.425-2.172zm10.499-22.7c-.175-.396-.58-.76-1.193-1.123-.62-.322-.97-.833-1.038-1.52.074-.725.25-1.283.573-1.7.33-.41.492-.935.505-1.513.014-.578-.289-1.19-.862-1.87-.674-.813-1.813-1.58-3.417-2.292-.006 0-.006-.007-.013-.007h-.007c-1.759-.787-4.084-1.506-6.981-2.172-5.263-1.19-8.7-.928-10.337.693-1.705 1.714-3.235 5.339-4.495 10.852-.586 2.273-.613 4.176-.216 5.742.431 1.58 1.591 2.784 3.525 3.611 5.269 2.353 9.131 3.59 11.684 3.698.877.007 1.638-.033 2.278-.168.634-.128 1.213-.444 1.719-.874.478-.484.876-.874 1.192-1.25.31-.384.694-.942 1.166-1.722.479-.814.829-1.385 1.085-1.829.263-.356.762-.787 1.53-1.365a39.81 39.81 0 0 0 1.887-1.526c.512-.47.95-1.05 1.388-1.755.424-.673.438-1.332.027-1.91zm-358.554 65.061c-.27-.417-.802-.868-1.53-1.359-3.646-2.145-7.17-3.066-10.62-2.763-2.399.154-4.003.874-4.845 2.084a3.713 3.713 0 0 0-.371.814c-.074.323-.162.585-.216.874-.06.255-.06.531-.027.861 0 .302.027.571.041.786-.014.195.013.498.067.901.041.377.047.679.007.908.054.262.054.565.007.881a7.666 7.666 0 0 0-.074.921 4.173 4.173 0 0 1-.203.948c-.094.35-.209.646-.276.854-.04.229-.141.551-.236.928-.121.356-.175.666-.215.867-.546 2.34-1.207 4.062-1.982 5.205-.613.975-1.017 2.017-1.26 3.193-.249 1.15-.377 2.468-.424 3.968-.014 1.492-.088 2.662-.243 3.462-1.152-1.983-2.702-4.854-4.596-8.626-1.913-3.773-3.241-6.328-3.996-7.672a38.485 38.485 0 0 0-1.186-2.118c-.505-.922-.835-1.466-.95-1.634-.094-.202-.256-.478-.404-.834-.189-.377-.357-.679-.458-.935-.135-.248-.304-.544-.546-.8-.223-.289-.438-.551-.62-.793a3.17 3.17 0 0 0-1.254-.612c-.492-.128-1.044-.135-1.657-.014a10.85 10.85 0 0 0-1.53.404c-.411.161-.923.37-1.59.632-.668.269-1.126.437-1.395.491-2.75.941-4.994 2.198-6.685 3.732-1.227 1.089-1.894 2.185-2.035 3.314-.142 1.13.222 2.441 1.091 3.927.391.612 1.139 1.762 2.204 3.409 1.065 1.641 1.867 2.952 2.419 3.92.33.572.688 1.271 1.092 2.078.404.834.788 1.533 1.125 2.098.303.578.681 1.25 1.072 1.977.391.753.748 1.452 1.098 2.104.93 1.533 1.981 2.979 3.147 4.411 1.179 1.405 2.669 3.1 4.515 5.063 1.84 1.963 3.086 3.268 3.713 3.947 2.48 2.804 3.875 5.157 4.252 7.1.047.263.115.747.196 1.453.054.706.121 1.217.188 1.56.068.343.202.759.411 1.244.182.517.499.867.903 1.122.411.256.876.384 1.463.411 1.179.074 3.645-.148 7.466-.686 3.558-.464 5.87-1.648 6.934-3.564.31-.558.519-1.177.667-1.835.095-.653.149-1.52.135-2.589a26.82 26.82 0 0 1-.013-1.93c.074-.787.236-1.647.532-2.555.29-.914.58-1.849.896-2.79.344-.948.539-1.789.593-2.515.041-.229.142-1.54.317-3.92.175-2.374.324-3.893.418-4.572.067-.646.216-1.863.397-3.658.209-1.782.412-3.308.661-4.566.29-1.244.593-2.514.977-3.799.121-.524.391-1.425.829-2.723.445-1.298.755-2.407.957-3.355a22.91 22.91 0 0 0 .478-2.817c.054-.431.115-.962.155-1.634.068-.646.115-1.258.189-1.856.061-.558.114-1.123.155-1.627.081-.733-.027-1.291-.33-1.701zm59.159 30.392c-.067-.121-.148-.404-.189-.801-.822-2.118-1.59-2.864-2.271-2.239a23.465 23.465 0 0 0-2.392 2.892c-.445-4.465-.768-7.928-.937-10.375-.047-.478-.128-1.823-.235-3.981-.115-2.192-.277-3.819-.439-4.888-.128-.464-.202-1.177-.215-2.152-.047-.948-.115-1.634-.209-2.024-.007-.127-.128-.753-.29-1.876a36.896 36.896 0 0 1-.37-2.588 11.585 11.585 0 0 1-.081-1.372 24.352 24.352 0 0 1-.021-1.748 20.162 20.162 0 0 0-.067-1.479c.061-.216.142-.7.276-1.486.068-.135.128-.33.209-.572.081-.249.142-.471.223-.686.087-.222.121-.383.107-.518-.026-.289-.188-.564-.485-.88-.323-.31-1.071-.901-2.25-1.735-1.496-1.15-2.743-1.923-3.734-2.306-.647-.33-1.32-.424-1.967-.249-.674.168-1.186.356-1.537.598-.37.256-.869.592-1.516 1.029-.62.437-1.173.753-1.631.935-1.536.578-3.558 1.096-6.031 1.58-2.5.491-4.758 1.062-6.793 1.714-2.028.652-3.82 1.627-5.411 2.952-2.844 2.407-4.939 5.083-6.314 8.028-.788 1.675-1.375 3.53-1.799 5.642-.034.188-.081.511-.148.921-.061.43-.108.8-.155 1.103-.048.322-.095.645-.169.995a5.746 5.746 0 0 1-.296 1.008c-.155.31-.31.592-.499.821-.209-.242-.384-.653-.519-1.197a10.335 10.335 0 0 1-.27-1.614c-.053-.524-.175-.961-.343-1.291-.452-.511-.89-.679-1.321-.477-.438.174-.795.585-1.071 1.217-.438.948-.708 2.272-.715 4-.047 1.702.095 3.067.405 4.068.283.922 1.037 2.118 2.244 3.564 1.213 1.473 1.967 2.616 2.264 3.483.364.975.754 2.501 1.125 4.559.391 2.051.721 3.53 1.031 4.478.95 2.851 2.696 4.875 5.182 6.112 2.487 1.21 5.297 1.647 8.417 1.251 6.597-.713 11.449-2.683 14.556-5.884.384 2.508.822 3.974 1.266 4.411.634.753 1.982.941 4.064.518 1.28-.209 2.837-.599 4.636-1.177.135-.013.519-.108 1.146-.276a25.333 25.333 0 0 0 1.651-.484c.465-.121.842-.322 1.085-.558a1.91 1.91 0 0 0 .519-.928c.094-.376.175-.887.215-1.506.047-.639.088-1.015.128-1.15.27-2.071.647-3.59 1.112-4.538a5.88 5.88 0 0 1 .324-.747c.175-.363.256-.585.303-.692.013-.108.074-.33.168-.686.095-.35.128-.592.034-.719zm-18.127-14.329c-.162.491-.499 1.109-.984 1.849-.505.74-.822 1.298-.91 1.735-.269.766-.121 2.239.438 4.384.007.054.054.255.169.591.081.337.168.619.242.848.047.235.101.497.162.807.081.309.074.497 0 .558-.04.08-.788.316-2.183.746-1.395.403-3.073.894-5.007 1.432-.263.027-.728.155-1.402.377-.66.255-1.26.417-1.799.551a7.268 7.268 0 0 1-1.53.155c-1.22-.014-2.089-.693-2.567-2.051-.485-1.358-.634-3.093-.411-5.157.188-2.085.431-3.86.734-5.319.31-1.466.6-2.763.917-3.886.896-3.241 1.887-5.279 2.978-6.072 1.469-1.237 4.097-2.004 7.918-2.333 1.631-.162 2.453-.195 2.46-.141.141.067.269.585.37 1.607.29 2.306.459 4.014.513 5.09.114 1.902.067 3.308-.108 4.229zm50.877 11.565c-.283-1.809-.431-2.932-.458-3.409-.29-5.11-1.004-11.249-2.15-18.423-.31-1.675-.667-4.747-1.051-9.219-.384-4.438-.842-7.826-1.395-10.119-.168-.653-.35-1.09-.573-1.238-.215-.141-.62-.255-1.26-.295-.135.006-.236.013-.344.02-.101.007-1.57-.175-4.4-.572-4.212-.504-7.028-.134-8.464 1.11-.384.282-.68.645-.869 1.076-.189.41-.297.813-.377 1.237-.081.43-.081.907-.027 1.479.06.578.114 1.056.188 1.419.047.396.128.867.243 1.439.081.578.189.995.256 1.257.647 4.001.856 7.269.654 9.79-1.052-1.762-1.705-3.026-1.961-3.772a11.188 11.188 0 0 0-.122-1.21c-.06-.632-.161-1.049-.31-1.332-.235-.383-.566-.598-.963-.605-.425 0-.87.074-1.335.235l-.289.014c-.472.081-.802.417-.977.982-.068.269.047.84.31 1.728.229.854.363 1.378.37 1.506.095.262.256 1.257.492 2.985.229 1.735.485 3.039.721 3.9.283 1.224 1.018 3.032 2.217 5.473 1.193 2.414 1.914 4.33 2.123 5.776.256 2.098.418 3.618.472 4.566s.087 2.508.101 4.646c.02 2.165.054 3.725.108 4.673.289 6.058.485 10.482.646 13.28.021.39.358 2.568.971 6.495.013.134.02.343.034.605.02.289.033.524.02.767-.041.242-.027.477.04.685a.839.839 0 0 0 .263.484c.007.081.384.189 1.159.33a29.39 29.39 0 0 0 3.012.814c.91.181 2.062.383 3.477.571 1.416.208 2.635.242 3.66.108a13.61 13.61 0 0 0 2.924-.72c.93-.37 1.611-1.015 2.008-1.963.371-.942.465-2.138.25-3.55-.418-2.777-.647-4.882-.647-6.307-.034-.552-.149-1.628-.29-3.261-.168-1.628-.209-2.737-.081-3.268.02-.639.196-1.305.499-2.038s.606-1.459.91-2.165c.276-.679.451-1.318.505-1.849.074-.955-.027-2.353-.29-4.135zm36.524-31.918c-.222-.552-.566-.861-1.044-.908h-.317a4.283 4.283 0 0 0-1.328-.134c-.418.033-.707.275-.909.672-.128.296-.203.719-.25 1.351-.013.606-.033 1.002-.033 1.217-.176.767-.735 2.065-1.692 3.9-.35-2.501-.371-5.776-.034-9.817.075-.262.149-.685.196-1.264.067-.585.114-1.062.135-1.452.02-.37.04-.847.087-1.425.014-.585-.02-1.056-.128-1.48a5.401 5.401 0 0 0-.492-1.203c-.195-.424-.519-.76-.916-1.016-1.523-1.143-4.38-1.311-8.518-.511-2.797.592-4.245.881-4.353.881s-.209 0-.371.007c-.606.087-.997.222-1.206.383-.209.162-.364.612-.512 1.271-.364 2.333-.58 5.735-.647 10.193-.094 4.492-.209 7.578-.391 9.266-.64 7.242-.916 13.414-.842 18.531 0 .477-.088 1.614-.216 3.436-.162 1.795-.141 3.194.007 4.142.06.524.283 1.156.633 1.808.357.686.708 1.392 1.065 2.098.35.706.573 1.365.633 1.997.142.525.209 1.634.155 3.268-.027 1.634-.067 2.717-.06 3.275.101 1.418.027 3.53-.196 6.334-.141 1.425.034 2.608.499 3.523.465.921 1.159 1.513 2.116 1.815.984.276 1.961.451 2.992.511 1.031.068 2.251-.053 3.646-.369a42.217 42.217 0 0 0 3.396-.814 29.19 29.19 0 0 0 2.972-1.015c.734-.195 1.105-.337 1.105-.411a.746.746 0 0 0 .256-.511c.027-.208.02-.443-.007-.685-.027-.236-.06-.471-.06-.76-.007-.262-.007-.478-.014-.605.364-3.967.519-6.159.512-6.556-.04-2.791-.128-7.222-.269-13.286-.014-.955-.088-2.509-.229-4.667-.135-2.138-.209-3.691-.223-4.639-.013-.955.041-2.481.142-4.593.114-1.452.694-3.415 1.711-5.91 1.025-2.522 1.631-4.377 1.8-5.621.195-.874.363-2.192.471-3.934.108-1.741.196-2.75.25-3.012 0-.134.094-.659.289-1.533.203-.901.243-1.486.189-1.748zm25.917 23.056c.128-.054.256-.114.411-.148.135-.054.29-.061.506-.067.209-.007.343-.014.397-.014 2.399-.168 4.616-.329 6.645-.45 1.031-.041 5.027-.081 12.008-.148 3.619-.047 6.294-.699 8.026-1.923 1.213-.861 2.015-1.977 2.439-3.362.196-.538.243-1.432.122-2.643-.128-1.237-.155-2.084-.095-2.561.121-.343.074-.922-.168-1.735-.243-.807-.364-1.278-.371-1.439-.256-1.889-.627-3.483-1.071-4.761-.182-.605-.526-1.385-1.065-2.313-.559-.927-.903-1.526-1.045-1.808-.451-.854-1.01-1.601-1.718-2.186-.35-.248-.896-.706-1.631-1.311a34.443 34.443 0 0 0-1.745-1.392c-.438-.275-.977-.625-1.624-1.048a29.322 29.322 0 0 0-1.948-1.117c-2.709-1.062-5.687-1.486-8.962-1.311-3.747.262-7.035.78-9.839 1.54-2.83.74-5.188 2.118-7.102 4.081a18.101 18.101 0 0 0-2.541 3.524 20.126 20.126 0 0 0-1.671 4.263c-.418 1.546-.768 2.904-.991 4.074a54.606 54.606 0 0 0-.653 4.505c-.6-1.082-1.126-2.568-1.591-4.424 0-.054-.101-.551-.262-1.419a13.45 13.45 0 0 0-.58-2.145c-.236-.517-.485-.827-.775-.894a.798.798 0 0 0-.552.074c-.155.108-.31.303-.432.545a5.291 5.291 0 0 0-.343.672 9.8 9.8 0 0 0-.297.72c-.067.268-.168.43-.222.43a14.5 14.5 0 0 0-.283.934 4.966 4.966 0 0 0-.074.875c.013.289.02.551.027.766.006.182.074.498.141.888.094.423.135.739.142.921.006.208.047.632.148 1.237.074.605.141.995.202 1.15.034.188.094.551.168 1.076.102.551.196.948.257 1.183.087.235.202.572.35 1.015.148.417.323.78.492 1.036.195.289.418.571.667.901.249.336.499.645.795.894 1.348 1.244 2.103 2.38 2.271 3.402.101.74.121 1.291.108 1.634-.014.343-.047.874-.094 1.641-.027.74-.061 1.324-.048 1.741-.02 3.013.748 5.964 2.332 8.869 1.59 2.898 3.659 5.278 6.267 7.08 2.581 1.89 5.795 3.04 9.596 3.457 3.821.389 7.251.107 10.283-.895 2.905-.847 4.556-1.331 4.973-1.398 1.025-.168 2.595-.041 4.724.437 1.523.423 2.864.107 3.963-.962.276-.349.478-.625.606-.84.121-.215.169-.451.128-.713a3.45 3.45 0 0 0-.182-.605c-.081-.155-.222-.357-.444-.666-.223-.282-.391-.544-.533-.746-.229-.652-.33-1.15-.31-1.419.014-.262.128-.766.31-1.486.162-.719.303-1.224.344-1.493.074-.289.175-1.089.337-2.44.161-1.325.283-2.334.391-3.019.337-2.394-1.072-4.136-4.178-5.158-.836-.316-1.82-.571-2.965-.739a14.842 14.842 0 0 0-3.626 0c-1.287.154-2.176.551-2.621 1.257a4.53 4.53 0 0 0-.371.881 5.112 5.112 0 0 0-.276 1.096c-.068.343-.101.74-.115 1.19-.013.424-.047.793-.121 1.062-.411 1.728-.95 2.912-1.617 3.544-.634.706-1.55 1.056-2.716 1.022-1.166-.04-2.224-.215-3.221-.545a13.272 13.272 0 0 1-2.689-1.304c-.492-.377-.957-.78-1.341-1.163a7.87 7.87 0 0 1-1.085-1.493c-.31-.625-.566-1.116-.714-1.506-.148-.417-.357-.989-.62-1.775a34.19 34.19 0 0 0-.613-1.668c-.56-1.479-.775-2.32-.728-2.528.067-.215.168-.35.303-.437zm-1.934-10.859c.741-3.644 2.049-6.3 3.922-7.928.33-.275.748-.551 1.24-.806.519-.256.937-.485 1.328-.659.363-.195.855-.37 1.462-.525.6-.155 1.071-.249 1.361-.316.317-.034.815-.107 1.53-.242.707-.128 1.206-.202 1.496-.208 2.284-.424 4.279.477 5.943 2.743.202.336.654 1.217 1.314 2.616.142.208.364.544.647 1.008.31.464.506.854.674 1.19.148.336.216.726.229 1.123-1.085.04-2.803.074-5.128.081-2.305.033-4.178.047-5.633.101-1.422.047-3.141.215-5.115.497-1.975.283-3.727.72-5.27 1.325zm99.039-.525a2.427 2.427 0 0 0-.573-.665 5.793 5.793 0 0 0-1.017-.552c-.404-.161-.762-.295-1.085-.416-.33-.128-.721-.216-1.186-.33-.465-.094-.775-.168-.903-.188-2.588-.767-4.987-1.17-7.184-1.137-.694-.02-1.745.068-3.167.29-.215.026-.755.026-1.658.006-.876-.02-1.469.027-1.779.115-.431.208-.734.665-.862 1.371-.128.7-.182 1.601-.128 2.723.027 1.096.04 1.769.013 1.95-.155 1.628-.835 3.934-2.001 6.852-.762 1.943-2.103 6.576-3.983 13.905-.404-.141-.923-.269-1.59-.444-.674-.175-1.213-.309-1.644-.45-.438-.115-.917-.316-1.422-.552a3.695 3.695 0 0 1-1.267-1.008 5.326 5.326 0 0 1-.741-1.52c-.236-.78-.337-1.728-.344-2.817.027-1.116.02-2.159-.054-3.127s-.323-1.829-.775-2.588c-.283-.444-.478-.948-.613-1.527-.101-.578-.155-1.116-.101-1.667a7.195 7.195 0 0 1 .216-1.513c.094-.471.229-1.036.404-1.701.148-.673.263-1.244.33-1.715.02-.128.108-.78.283-1.983.169-1.177.297-2.038.344-2.562.027-.558-.034-1.258-.175-2.105-.149-.847-.425-1.499-.863-1.99-1.429-1.594-4.4-2.259-8.929-2.004-1.813.168-3.416.363-4.845.639-.775.182-1.321.45-1.61.807-.297.383-.546.988-.748 1.869-.546 2.481-.903 6.078-1.032 10.859-.155 4.747-.35 8.156-.646 10.194-.088-.31-.182-.962-.304-1.964-.094-1.029-.343-1.701-.775-2.03-.626-.491-1.199-.572-1.725-.249-.532.349-.856.914-.97 1.728-.067.47-.088.975-.014 1.546.054.565.128 1.164.243 1.843.121.659.182 1.17.182 1.519.155 1.89.559 3.335 1.247 4.31a15.847 15.847 0 0 0 1.846 2.024c.755.72 1.449 1.459 2.116 2.172a13.45 13.45 0 0 1 1.638 2.179c1.691 3.281 4.023 5.641 7.068 7.113 1.025.498 2.089.888 3.201 1.13a54.4 54.4 0 0 0 4.185.814c1.671.262 2.79.45 3.342.531.25.114.405.168.479.175a.43.43 0 0 1 .249.141c.095.094.135.154.155.235.041.061.068.256.081.518.067.094.041 1.049-.094 2.891-.142 2.461-.506 4.25-1.099 5.413-.674 1.345-1.745 2.098-3.214 2.286-1.469.161-2.642-.403-3.497-1.701-.452-.76-.856-1.271-1.274-1.513-.418-.276-1.119-.592-2.082-.941a3.11 3.11 0 0 1-.876-.417 3.37 3.37 0 0 1-.782-.7c-.276-.282-.465-.47-.58-.591-.141-.128-.343-.397-.66-.814-.337-.423-.519-.632-.6-.645-2.028-2.582-4.717-2.676-8.019-.323-4.07 2.851-5.519 5.493-4.346 7.927 3.349 6.96 7.924 11.693 13.787 14.188 6.382 2.622 13.006 2.427 19.866-.666a120.618 120.618 0 0 0 3.174-1.466c.687-.329 1.597-.887 2.668-1.667 1.079-.78 1.914-1.567 2.507-2.387.371-.504.714-1.231 1.072-2.219.33-.988.613-1.641.788-1.963.391-.827.607-1.406.654-1.749.027-1.116.094-1.929.168-2.454.081-.202.229-1.029.445-2.521.216-1.486.391-2.529.505-3.147.142-.599.384-1.385.775-2.421.391-1.015.816-1.775 1.328-2.346.168-.242.505-.538 1.011-.915a7.095 7.095 0 0 0 1.206-1.136c.296-.356.438-.794.424-1.271-.033-.141-.114-.309-.215-.511-.135-.182-.169-.316-.162-.37-.067-.087-.054-.383.027-.928.074-.551.121-.833.128-.914.061-.39.115-.968.148-1.742.027-.739.054-1.297.021-1.647.411-5.641 1.084-9.918 2.062-12.816 1.28-4.081 1.947-6.273 1.987-6.535.257-.868.506-1.849.722-2.986.02-.161.121-.464.242-.954.155-.511.236-.875.27-1.11.033-.235.027-.551-.074-.995.02-.128.155-.699.417-1.755.256-1.029.398-1.856.411-2.495a5.938 5.938 0 0 0-.148-1.728z" fill="url(&quot;#a-36&quot;)"></path><g fill="#C7E55A"><path d="M22.09 125.918s-.149.464-.297 1.224l-.95-.881zM30.23 94.289c-6.793 6.576-6.678 19.748-5.33 24.354 1.057 3.59-1.362 6.804-2.474 8.048.297-.712.445-1.412.432-2.104-.02-1.15-.283-2.703-.789-4.7-1.86-7.612-1.94-14.04-.175-19.318 1.739-5.359 5.99-9.581 12.81-12.789 7.42-3.382 14.334-5.823 20.857-7.268 3.019-.66 5.734-.854 8.2-.599-9.022.84-24.279 5.426-33.531 14.376z" fill="#C7E55A"></path><path d="m21.793 127.142-.95-.881 1.246-.343s-.148.464-.296 1.224zM27.817 144.187a14.56 14.56 0 0 0-.674-1.123 10.776 10.776 0 0 0-1.94-1.869c-.816-.639-1.55-1.305-2.271-1.937a9.215 9.215 0 0 1-1.644-2.158c-1.625-3.221-1.523-6.186.35-8.923-.256 2.065-.202 5.164 1.685 7.605 2.082 2.696 3.497 6.422 4.494 8.405zM93.035 40.377c.68 4.297 5.236 44.848 5.377 46.112a759.975 759.975 0 0 1-2.77-14.55c-1.96-10.785-3.335-18.276-4.17-22.417-1.085-4.734-1.887-8.715-2.4-11.895-.02-.121-.161-.605-.37-1.419a22.449 22.449 0 0 1-.438-2.172c-.074-.585-.04-1.062.141-1.438.148-.33.613-.76 1.456-1.271.835-.511 1.361-.874 1.53-1.116 2.318-2.683 5.141-4.828 8.477-6.523 3.302-1.64 6.725-2.5 10.263-2.528.33.007.654.034.964.08-11.113 2.986-15.223 9.018-16.814 12.084-1.53 2.945-1.934 2.69-1.246 7.053zM450.888 32.86c-9.906-3.826-13.767-1.977-16.166-1.453-3.875.84-3.855 1.85-4.926 5.904-.991 3.765-15.223 47.188-17.224 53.28.889-3.012 2.014-8.647 3.416-16.924.593-3.994 2.136-9.69 4.636-17.085 2.5-7.39 4.084-12.904 4.67-16.555.155-.605.297-1.647.371-3.14.121-1.479.222-2.71.377-3.664.128-1.002.506-1.984 1.072-3.006.606-1.008 1.415-1.795 2.453-2.313 1.273-.578 2.722-.813 4.386-.74 1.658.122 3.599.491 5.904 1.117 2.304.632 3.733.955 4.285 1.008 3.222.545 5.466 1.735 6.746 3.57zM523.983 107.172c-5.425-1.546-10.149-2.474-12.292-2.024-2.446.518-6.152 1.775-7.534 4.707-.876 1.856-8.996 17.22-14.825 28.213.216-.605.445-1.21.674-1.835 2.783-8.049 5.162-14.504 7.163-19.358.182-.471.533-1.379 1.085-2.791.546-1.412.964-2.501 1.274-3.294.31-.801.788-1.823 1.429-3.04.599-1.223 1.246-2.138 1.88-2.81.64-.673 1.381-1.305 2.304-1.95.87-.626 1.88-.982 3.013-1.089 4.258-.538 9.515 1.237 15.829 5.271zM508.915 94.215l.02.363s-.013-.128-.02-.363zM532.231 77.076c-7.251-2.037-12.938-.128-14.96.76-1.867.82-5.074 4.552-6.853 8.613 1.26-5.514 2.79-9.138 4.494-10.852 1.638-1.62 5.075-1.883 10.338-.693 2.897.666 5.222 1.385 6.981 2.172zM159.539 47.982c-24.704-3.046-34.738 11.228-34.738 11.228l-1.583-4.276c3.591-4.048 8.847-6.596 15.701-7.625 7.19-1.015 13.039-1.082 17.527-.228 1.105.208 2.136.504 3.093.9zM174.054 74.675l-1.442-3.361c.539-1.56.849-3.84.822-6.946-.013-3.073.122-5.144.344-6.173.229-1.062.775-1.143 1.651-.242 1.274 9.837-1.375 16.722-1.375 16.722zM220.659 31.817c-12.662-1.324-19.913 1.453-20.526 3.934-1.422 5.742-2.742 31.253-2.742 31.253l-1.813-3.806c.674-4.626 1.038-10.093 1.125-16.373.047-1.587-.007-4.31-.108-8.075.007-.336-.027-.753-.053-1.258-.027-.463-.054-.92-.048-1.338l.041-1.385c.013-.497.067-.954.121-1.378.054-.457.189-.827.452-1.157.31-.618.869-1.102 1.637-1.459.802-.356 1.691-.585 2.702-.679 1.052-.054 1.975-.114 2.77-.094.836.027 1.799.135 2.925.249 1.132.155 1.927.222 2.345.235 3.14.088 5.903.33 8.281.726.209.095.627.189 1.213.242.58.101.998.155 1.207.202.128.06.283.114.471.162zM191.339 74.763c-1.267-3.577-1.658-7.114-1.152-10.583 0-.081.007-.33.013-.626.007-.336.061-.625.108-.833.047-.209.142-.458.189-.787.054-.336.141-.585.189-.834.053-.208.181-.417.357-.619.168-.201.343-.37.559-.484.209-.08.465-.154.674-.154.499-.054.95.033 1.361.262-.081.168-2.729 6.233-2.298 14.658zM264.057 32.893c-7.804-.45-18.613.948-20.129 4.377-1.482 3.362-3.221 17.166-3.942 23.319v-.141c-.061-.921-.148-2.347-.303-4.236-.162-1.883-.243-3.268-.223-4.15-.006-7.321.088-12.089.229-14.26.56-3.665 3.053-5.817 7.514-6.442 2.487-.356 7.049-.02 13.606 1.042 1.543.128 2.587.283 3.174.464.026.007.04.02.074.027zM308.29 27.555c-5.31.04-14.192.296-15.472 1.573-1.847 1.836-1.847.915-2.763 7.35-.64 4.47-4.07 19.304-6.092 27.897.087-3.06.175-6.119.357-9.178.222-3.692.714-7.363 1.152-11.041.29-2.494.748-4.976 1.018-7.477.121-1.082-.054-2.199-.054-3.295 0-1.015-.081-2.05.115-3.039.451-2.36 1.961-3.772 4.38-3.92 2.197-.128 4.42-.06 6.624.074 3.066.188 6.125.504 9.185.814.519.054 1.038.134 1.55.242zM336.215 33.519c-12.137-2.555-23.855 7.255-23.855 7.255l.418-4.673c1.064-.605 1.664-.935 2.25-1.291 2.716-1.648 5.567-2.945 8.66-3.739 4.339-1.11 8.302-.168 12.008 2.118.175.108.35.215.519.33zM384.275 41.527c-16.247-10.126-34.785 8.035-34.785 8.035l-2.641-4.27c.505-.397.95-.726 1.354-1.096 5.357-4.942 11.496-8.176 18.842-9.13 6.826-.888 13.16 1.586 17.23 6.46zM475.794 87.074c-9.69-7.12-19.333-10.987-22.79-12.298-2.507-.955-5.506.969-7.601 2.777 2.143-3.664 4.002-5.749 5.62-6.36.984.033 1.738.14 2.257.315.506.216 1.402.612 2.696 1.291 1.3.673 2.062 1.083 2.351 1.291 1.84.767 4.172 2.139 6.995 4.109 4.084 2.87 7.588 5.836 10.472 8.875zM71.66 67.978l.842.666s3.194 3.275 3.544 8.459c.243 3.617-.822 8.922-.822 8.922l-1.287-1.183zM328.675 105.636c.272-3.182-1.145-5.9-3.166-6.073s-3.88 2.268-4.153 5.45c-.272 3.182 1.146 5.901 3.167 6.073s3.88-2.268 4.152-5.45zM351.978 107.618c.272-3.183-1.145-5.902-3.166-6.074s-3.88 2.268-4.152 5.45c-.273 3.182 1.145 5.901 3.166 6.073 2.021.173 3.88-2.267 4.152-5.449z" fill="#C7E55A"></path></g></g></svg>