<svg xmlns="http://www.w3.org/2000/svg" fill="none" height="40" viewBox="0 0 90 40" width="90" class="injected-svg" data-src="/assets/img/main-logo.a9402e.svg" xmlns:xlink="http://www.w3.org/1999/xlink"><clipPath id="a-1" fill="none"><path d="M0 0h90v40H0z" fill="none"></path></clipPath><g clip-path="url(#a-1)" fill="#FFFFFF"><path d="M35.446 25.632c-.017-.167-.038-.25-.06-.262 0-.008-.134-.003-.397.023-.616.054-1.041.178-1.278.38-.176.13-.336.46-.48.988-.05.181-.098.394-.147.63-.049.238-.09.527-.12.867-.034.335-.01.618.067.838.078.221.217.332.415.334.077 0 .162-.008.245-.025a2.57 2.57 0 0 0 .292-.09c.107-.037.182-.057.225-.061.313-.088.583-.166.808-.233.224-.07.345-.108.352-.121.012-.01.014-.04 0-.091-.01-.05-.017-.093-.026-.131a2.865 2.865 0 0 1-.039-.138.675.675 0 0 1-.027-.096c-.09-.35-.114-.589-.07-.713a.884.884 0 0 1 .147-.282c.079-.12.133-.22.159-.301a3.08 3.08 0 0 0 .017-.687 13.074 13.074 0 0 0-.082-.827zM56.74 25.119a4.016 4.016 0 0 0-.104-.164 6.3 6.3 0 0 0-.212-.425c-.27-.368-.59-.515-.959-.446a1.96 1.96 0 0 0-.242.034 3.87 3.87 0 0 1-.246.04 4.57 4.57 0 0 0-.22.051 1.03 1.03 0 0 0-.235.087c-.063.028-.13.064-.214.106-.08.041-.147.086-.2.13-.303.266-.513.697-.633 1.29.248-.1.532-.17.85-.215.318-.046.595-.074.825-.082.235-.01.537-.011.909-.017.375 0 .652-.006.827-.013a.512.512 0 0 0-.037-.184 1.71 1.71 0 0 0-.11-.193z" fill="#FFFFFF"></path><path d="M88.89 10.605c-1.38-1.53-3.307-1.91-5.074-2.017-2.75.187-3.524 1.3-4.373 3.499-.951-1.116-2.575-2.437-3.952-3.117 1.443-3.218.605-7.017-3.307-7.634-3.675-1.242-6.724.563-6.813 4.558-1.426-3.354-5.644-4.566-8.844-3.016-1.362-1.076-3.088-1.613-4.76-1.277-1.081-.656-2.33-.65-3.573-.76-1.549-.152-3.21.095-4.234 1.337-2.085-.634-4.556-.958-6.42.129-1.113-.725-2.347-.734-3.685-.83-2.657-.512-5.497 1.073-5.406 4.025-1.654-1.495-3.98-1.56-6.146-1.297-.71-5.219-6.692-5.226-9.723-1.96-1.84 1.174-1.764 3.315-1.233 5.203-1.203.124-2.333 1.067-2.853 2.2-5.522 1.11-9.56 4.205-8.17 10.056-.787 1.837-.078 4.135 1.46 5.418 2.929 6.865 10.79 6.334 15.71 1.937-1.211 1.083 5.719 9.037 7.06 9.502 1.905.662 4.857-.327 5.825-2.134 1.427.836 3.237.816 4.788.377.904.28 1.85.164 2.765-.095.888 2.335 4.883 2.948 7.008 1.76 2.247 1.147 6.322.241 7.026-2.284a6.776 6.776 0 0 0 2.55.662v.019h1.083v-.02a6.687 6.687 0 0 0 1.534-.288c.843 3.202 3.772 5.456 6.925 5.442 4.18-.019 6.028-2.753 7.238-6.36.212-.634.403-1.279.473-1.943.039-.358.735-5.39.94-5.375.455.031.844.037 1.256-.023-1.024.15 1.093 3.733 1.387 4.018 1.07 1.035 2.595 1.643 4.066 1.748 4.899.349 6.388-5.948 7.689-9.571.339-.944.825-1.962.99-2.954.102-.6-.184-1.581.175-2.105.355-.52.88-.832 1.196-1.43.953-1.467.54-3.893-.579-5.399zM13.756 25.751c-1.166.618-2.225 1.03-3.175 1.25-1.082.231-2.119.135-3.091-.302-.98-.437-1.766-1.132-2.354-2.095-.1-.152-.214-.407-.366-.764a6.839 6.839 0 0 0-.282-.598 2.408 2.408 0 0 0-.111-.185c-.08-.1-.184-.208-.313-.305-.132-.104-.25-.212-.366-.314a1.51 1.51 0 0 1-.266-.352c-.262-.524-.245-1.006.057-1.45a1.441 1.441 0 0 0 .13-.244.868.868 0 0 0 .067-.34 3.532 3.532 0 0 0-.128-.764c-.298-1.236-.313-2.283-.027-3.14.28-.872.967-1.559 2.065-2.08 1.197-.55 2.313-.947 3.365-1.182a4.102 4.102 0 0 1 1.32-.096c.127.013.249.034.367.062a1.34 1.34 0 0 1 .472.167c.056.037.122.078.201.136.078.058.145.1.201.135.063.035.13.082.212.147.075.067.142.114.192.153.09-.822.055-1.412-.116-1.782-.018-.052-.097-.146-.236-.29-.132-.146-.191-.27-.177-.37a.64.64 0 0 1 .158-.297l.003-.003c.098-.12.172-.17.234-.156.452.115.798.53 1.038 1.247.294.847.405 1.43.338 1.76-.04.107-.086.219-.147.328a3.278 3.278 0 0 1-.17.302 2.06 2.06 0 0 0-.142.305.985.985 0 0 0-.054.346c0 .057.07.308.193.768a.5.5 0 0 1 0 .298.364.364 0 0 1-.106.162c-.044.039-.136.101-.271.187-.359.24-.949.458-1.772.653a.778.778 0 0 0-.21.034c-.085.024-.157.044-.215.064-.056.021-.127.048-.214.065a.734.734 0 0 1-.21.034l-.196.036a.235.235 0 0 1-.125-.026c-.03-.025-.059-.044-.073-.06-.017-.008-.042-.057-.08-.138a.466.466 0 0 0-.1-.159c-.142-.23-.27-.386-.393-.463-.12-.072-.298-.087-.544-.032a.738.738 0 0 0-.311.137c-.12.087-.21.135-.28.16-.253.115-.445.258-.563.432a1.984 1.984 0 0 0-.217.53c-.012.084-.027.183-.025.306.001.122-.007.22 0 .297-.002.073.008.178.03.321.024.144.04.246.042.31a2.9 2.9 0 0 0 .074.321c.046.149.076.247.086.294 0 .043.029.141.077.291.043.159.074.24.078.254.08.478.253 1.05.525 1.718.272.669.613 1.15 1.017 1.451.156.11.357.21.61.29.255.088.513.144.79.173.273.037.523.01.751-.075a.919.919 0 0 0 .509-.44c.077-.202.068-.445-.022-.752a2.339 2.339 0 0 0-.31-.697.749.749 0 0 0-.065-.135c-.031-.068-.059-.124-.075-.168-.014-.038-.017-.087-.024-.143 0-.058.012-.106.03-.156.052-.056.171-.122.346-.194.18-.08.275-.116.294-.122.593-.349 1.103-.588 1.528-.709.534-.117.836-.177.913-.163.093.039.202.2.35.487.073.162.207.43.394.825.192.386.33.69.426.894.293.645.435 1.115.429 1.413-.007.792-.67 1.522-1.994 2.198zm15.19-.94a9.575 9.575 0 0 1-.025.265c-.013.096-.02.197-.032.302a3.333 3.333 0 0 1-.025.265 4.814 4.814 0 0 1-.232 1.004 5.59 5.59 0 0 0-.133.442 9.824 9.824 0 0 0-.157.618 9.585 9.585 0 0 0-.108.742c-.028.292-.053.49-.064.595-.014.11-.038.357-.066.743-.029.387-.046.6-.051.638-.01.118-.04.255-.096.409-.051.153-.098.306-.145.453a1.862 1.862 0 0 0-.084.416c-.003.036-.005.14.002.314a2.8 2.8 0 0 1-.022.42 1.092 1.092 0 0 1-.108.299c-.171.312-.544.504-1.118.58-.616.087-1.014.124-1.204.111a.468.468 0 0 1-.236-.067.344.344 0 0 1-.147-.182 1.089 1.089 0 0 1-.065-.203 2.286 2.286 0 0 1-.03-.253 4.633 4.633 0 0 0-.032-.236c-.06-.316-.286-.698-.685-1.155-.1-.11-.302-.322-.6-.642-.298-.319-.538-.595-.728-.823a6.529 6.529 0 0 1-.508-.718l-.177-.342-.173-.32a6.197 6.197 0 0 1-.181-.342 6.815 6.815 0 0 0-.176-.338 12.79 12.79 0 0 0-.39-.637l-.356-.554c-.14-.242-.199-.455-.176-.639.023-.184.132-.362.33-.539.272-.25.634-.455 1.078-.607.043-.008.117-.036.225-.08l.256-.103c.063-.021.147-.046.246-.066a.608.608 0 0 1 .267.002c.08.02.144.053.202.1.03.039.066.082.1.129.04.041.067.09.087.13.018.042.045.09.074.153.025.058.051.103.067.135.018.028.071.116.153.266.086.144.148.258.191.345.122.218.336.634.645 1.247.304.613.555 1.08.741 1.404.024-.13.037-.32.04-.563.006-.244.027-.458.068-.645.039-.192.104-.361.203-.52.125-.185.231-.465.318-.846.008-.033.015-.083.036-.14.015-.062.032-.115.038-.152.011-.034.03-.082.045-.139a.67.67 0 0 0 .032-.154c0-.045.005-.095.011-.15a.452.452 0 0 0 0-.143.523.523 0 0 0-.002-.147.803.803 0 0 1-.01-.147c-.002-.035-.006-.08-.006-.129a.424.424 0 0 1 .004-.14c.009-.047.023-.09.035-.14a.557.557 0 0 1 .06-.133c.135-.197.394-.314.781-.34.557-.048 1.125.101 1.713.45.117.08.203.153.248.221.049.067.066.158.053.277zm-.065-11.294a.97.97 0 0 1-.262.309 1.698 1.698 0 0 0-.24.25c-.09.108-.105.27-.06.497.004.02.036.145.097.382.087.433.193 1.176.313 2.226.02.101.052.296.089.586.043.29.065.535.083.733.013.205.011.4-.007.584-.033.562-.334 1.024-.909 1.39-.58.374-1.17.563-1.775.574-.57.011-1.04-.095-1.426-.301a.83.83 0 0 1-.46-.51 2.215 2.215 0 0 1-.103-.722c-.042-.56-.266-1.82-.668-3.764-.383-1.913-.65-3.116-.803-3.604-.201-.66-.5-1.016-.886-1.084-.465-.086-.773.205-.925.86-.036.167-.06.358-.073.57-.014.204-.02.385-.01.535.004.152.017.357.052.607.03.257.06.432.08.539a307.129 307.129 0 0 0 .227 1.134c.32 1.71.577 2.922.755 3.641.007.033.029.14.075.304.042.172.072.291.086.364l.066.334c.031.153.048.274.057.35.002.083.01.192.01.323a.845.845 0 0 1-.058.332c-.03.09-.073.188-.114.293a.63.63 0 0 1-.188.266 2.421 2.421 0 0 1-.288.218c-.407.207-.96.374-1.665.503-.72.125-1.24.111-1.56-.038-.236-.112-.433-.308-.597-.573a2.58 2.58 0 0 1-.31-.763 20.368 20.368 0 0 1-.164-.96c-.061-.41-.106-.665-.127-.771a52.495 52.495 0 0 0-.504-1.869c-.237-.805-.386-1.378-.455-1.725-.109-.46-.23-1.02-.361-1.676-.137-.686-.287-1.476-.448-2.371a247.763 247.763 0 0 0-.673-3.645 31.82 31.82 0 0 1-.386-1.935c-.004-.02-.026-.098-.06-.23a3.094 3.094 0 0 1-.07-.353.431.431 0 0 1 .022-.234c.024-.054.1-.125.235-.207.134-.082.22-.141.246-.181a4.44 4.44 0 0 1 1.368-1.061 3.725 3.725 0 0 1 1.656-.411 1.218 1.218 0 0 1 .56.143c.16.079.281.165.375.257.086.086.164.237.234.452.07.207.116.371.137.478.023.114.048.31.075.582.028.272.047.442.06.509.015.073.035.242.062.514.034.272.057.454.075.547s.046.261.085.496c.034.237.07.417.108.54.033.133.084.288.142.472.065.188.131.347.197.502.579-.659 1.427-1.073 2.531-1.24 1.16-.165 2.103-.175 2.827-.037.182.034.35.084.506.15.246.103.46.245.645.43.295.3.502.612.615.936.107.326.238.742.395 1.252.155.503.303.896.448 1.172.086-.254.136-.624.132-1.13-.003-.5.02-.837.054-1.003.037-.173.125-.185.268-.04.078.081.173.21.285.386l.333.6c.096.41.19 1.05.271 1.908.06.55-.046 1.016-.305 1.408zm9.548 16.077c-.015.058-.025.093-.027.11a1.4 1.4 0 0 1-.049.113 1.03 1.03 0 0 0-.052.121c-.075.154-.136.402-.18.738a1.22 1.22 0 0 0-.019.187c-.008.1-.02.183-.036.245a.309.309 0 0 1-.084.15c-.039.04-.1.07-.175.092a4.971 4.971 0 0 1-.45.123c-.29.094-.54.159-.747.192-.336.068-.554.038-.656-.086-.071-.07-.142-.31-.204-.716-.501.52-1.284.84-2.348.957-.503.063-.956-.007-1.357-.203-.401-.202-.683-.53-.836-.994a6.788 6.788 0 0 1-.167-.73 4.488 4.488 0 0 0-.18-.74c-.049-.142-.17-.328-.366-.566-.195-.235-.317-.43-.362-.58a2.161 2.161 0 0 1-.066-.661c.002-.28.044-.496.115-.65.046-.103.103-.169.173-.198.07-.033.141-.006.213.077a.607.607 0 0 1 .055.21c.009.09.022.18.044.263.021.088.05.154.083.194a.776.776 0 0 0 .082-.133c.02-.054.036-.107.048-.164.012-.057.02-.11.027-.162l.025-.18.024-.148c.068-.343.163-.646.29-.917.222-.48.56-.914 1.018-1.306.257-.215.546-.374.874-.48a9.636 9.636 0 0 1 1.096-.278c.399-.08.725-.164.973-.259.073-.03.163-.08.263-.151l.244-.168a.77.77 0 0 1 .248-.098.436.436 0 0 1 .317.041c.161.062.362.188.604.375.189.136.31.232.361.282.048.052.074.097.079.144.002.022-.005.048-.018.084s-.022.07-.036.111c-.013.04-.022.071-.033.094-.022.127-.035.207-.045.242.006.056.009.132.011.24a4.082 4.082 0 0 0 .016.508c.01.098.029.238.06.42.026.183.045.285.047.306.015.063.026.174.033.329.003.16.014.274.034.35.026.174.052.438.071.795.017.352.031.57.04.647.026.398.077.962.15 1.687.104-.153.235-.313.386-.47.11-.102.234.02.366.364.007.064.02.11.03.13.016.02.01.059-.005.117zm.949-11.618a.911.911 0 0 0-.207-.134c-.086-.05-.16-.066-.235-.047-.122-.003-.307.067-.554.209-.247.143-.405.227-.48.265-.457.124-.859.235-1.213.334a4.306 4.306 0 0 1-2.256-.09 3.443 3.443 0 0 1-1.77-1.288c-.405-.542-.71-1.25-.91-2.134a10.557 10.557 0 0 1-.167-.814 9.613 9.613 0 0 0-.197-.952 4.54 4.54 0 0 0-.276-.79 4.887 4.887 0 0 1-.25-.583 3.596 3.596 0 0 1-.187-1.723c0-.013.001-.055.004-.102a.679.679 0 0 1 .017-.135c.008-.034.023-.075.03-.128.01-.055.023-.095.03-.136a.262.262 0 0 1 .057-.1.321.321 0 0 1 .09-.079.3.3 0 0 1 .11-.024.362.362 0 0 1 .218.043c.134.074.24.239.314.501.109-.752.167-1.642.181-2.662.008-.258 0-.7-.018-1.314.001-.055-.003-.122-.008-.204-.004-.076-.01-.15-.007-.218l.006-.224c.002-.082.011-.156.02-.224a.352.352 0 0 1 .073-.188c.05-.1.14-.18.263-.238.13-.057.272-.094.435-.11.17-.009.319-.019.447-.015.135.003.29.022.473.04.181.025.31.036.378.037.507.015.952.054 1.336.12.034.014.101.029.196.039.094.016.162.025.195.033.02.008.045.017.073.025.02.006.042.013.067.018a.25.25 0 0 1 .133.086c.026.035.052.076.085.13.039.057.051.118.049.186.194 1.29.244 2.68.149 4.175-.025.19-.024.401-.005.633.021.232.043.436.064.621.016.184.05.402.084.663.034.252.062.458.078.593.011.089.028.253.034.491.014.239.03.416.04.54.015.13.046.28.109.452.055.178.113.33.184.454.284.484.706.374 1.267-.333.091-.12.162-.24.22-.347a.834.834 0 0 0 .083-.36c.003-.122 0-.217-.012-.286-.018-.075-.049-.198-.085-.376-.042-.171-.072-.301-.111-.37-.09-.445-.054-.784.108-1.025.035-.053.119-.14.245-.272a1.05 1.05 0 0 0 .246-.346 4.26 4.26 0 0 0 .032-.164v-.004c.037-.2.053-.36.054-.478v-.026c-.01-.15-.022-.381-.049-.689a7.563 7.563 0 0 1-.035-.674c-.002-1.19.013-1.966.037-2.32.09-.595.492-.945 1.212-1.048.402-.056 1.137-.002 2.194.17.25.02.418.046.512.075.003 0 .006.004.01.005.09.031.188.1.289.2.097.112.155.27.17.482.011.055.008.436-.018 1.136-.033.7-.044 1.08-.045 1.135-.006.245-.003.605.018 1.095.027.485.044.845.05 1.09-.009.353-.084 1.107-.23 2.267-.147 1.152-.186 2.05-.115 2.684.016.164.07.376.165.637.101.268.183.502.245.708.062.205.09.424.084.662s-.08.433-.22.586c-.042.054-.112.14-.224.26-.104.118-.188.211-.25.285-.064.066-.16.166-.286.292a1.66 1.66 0 0 1-.312.27c-.076.052-.186.117-.33.202-.145.084-.26.115-.348.092a2.389 2.389 0 0 0-.364-.031 1.027 1.027 0 0 1-.293-.144 1.812 1.812 0 0 1-.272-.205c-.066-.063-.165-.147-.284-.259-.118-.105-.191-.182-.23-.217a.95.95 0 0 1-.192-.175 4.175 4.175 0 0 0-.217-.217zM43.762 29.7a1.05 1.05 0 0 1-.081.3c-.049.115-.098.233-.147.353s-.077.227-.08.33c-.02.088-.014.268.014.533.024.265.041.44.047.53 0 .232.036.575.104 1.026.035.23.02.424-.04.578a.566.566 0 0 1-.324.32c-.151.055-.307.095-.472.117s-.362.016-.59-.019a7.487 7.487 0 0 1-.56-.093 4.943 4.943 0 0 1-.487-.131c-.125-.023-.186-.042-.187-.054a.145.145 0 0 1-.043-.078.238.238 0 0 1-.007-.112c.003-.038 0-.078-.002-.125l-.005-.098c-.1-.638-.154-.993-.158-1.056-.025-.454-.057-1.174-.104-2.16a18.66 18.66 0 0 1-.018-.76 17.176 17.176 0 0 0-.016-.755 14.588 14.588 0 0 0-.076-.743c-.035-.234-.15-.546-.343-.938-.194-.397-.312-.691-.358-.891a5.053 5.053 0 0 1-.116-.633 4.263 4.263 0 0 0-.14-.732c-.042-.143-.06-.237-.05-.28.03-.093.082-.147.158-.16l.047-.003a.654.654 0 0 1 .215-.038c.064 0 .118.036.156.099.024.046.04.113.05.216.014.099.017.162.02.197.04.122.146.327.316.613.032-.41-.002-.94-.107-1.592a2.02 2.02 0 0 1-.041-.203 4.045 4.045 0 0 1-.04-.234c-.011-.059-.02-.137-.03-.23a.823.823 0 0 1 .065-.442.436.436 0 0 1 .14-.175c.232-.202.685-.263 1.365-.18.456.064.693.093.71.092l.055-.003a.443.443 0 0 1 .203.048c.036.024.065.095.092.201.09.373.163.923.225 1.646.062.727.12 1.225.17 1.498.185 1.166.301 2.164.347 2.995.004.078.027.26.073.555.043.29.06.516.046.67zm5.815-5.578a2.023 2.023 0 0 0-.047.25 6.959 6.959 0 0 0-.04.489 4.42 4.42 0 0 1-.077.64c-.027.203-.125.505-.29.915-.165.405-.259.724-.276.96-.016.344-.026.593-.024.747.002.154.014.408.037.755.022.35.035.604.037.759.023.986.037 1.706.043 2.161 0 .065-.023.42-.082 1.065l.001.098c0 .047.005.085.01.125a.422.422 0 0 1 0 .111.125.125 0 0 1-.04.082c0 .013-.06.035-.179.067a5.12 5.12 0 0 1-.479.166 7.23 7.23 0 0 1-.548.133c-.225.05-.42.07-.588.06a2.32 2.32 0 0 1-.483-.083c-.155-.05-.267-.147-.342-.296s-.103-.342-.08-.574c.036-.454.048-.798.032-1.03 0-.09.005-.265.01-.532.009-.266-.002-.446-.025-.531-.01-.103-.045-.21-.103-.325s-.114-.23-.172-.341a.868.868 0 0 1-.102-.294 2.95 2.95 0 0 1-.001-.674c.022-.296.036-.48.035-.558-.012-.832.033-1.837.136-3.014.03-.275.049-.777.063-1.506.01-.725.045-1.28.104-1.658.024-.107.049-.18.083-.206a.453.453 0 0 1 .195-.064h.06c.017 0 .251-.047.701-.144.667-.13 1.128-.102 1.374.083a.4.4 0 0 1 .148.165.844.844 0 0 1 .079.196.81.81 0 0 1 .02.24c-.007.093-.01.171-.013.231-.004.065-.011.142-.022.236a1.095 1.095 0 0 1-.032.207c-.054.657-.05 1.19.006 1.595.153-.298.244-.51.272-.634 0-.034.004-.098.006-.198a.689.689 0 0 1 .04-.22c.033-.064.078-.104.147-.109a.62.62 0 0 1 .213.023h.051c.077.006.133.057.168.146a.833.833 0 0 1-.03.284zm9.12 2.47a1.019 1.019 0 0 1-.395.547c-.278.2-.71.305-1.295.313-1.126.011-1.77.018-1.935.023-.329.02-.686.046-1.073.073l-.064.002a.207.207 0 0 0-.08.012.306.306 0 0 0-.068.024.13.13 0 0 0-.049.07c-.008.036.027.171.117.413.023.054.057.144.1.27l.1.29c.023.063.064.143.114.244.055.096.114.176.176.243.061.062.136.128.216.19.136.084.278.157.434.211.16.055.332.082.52.089.188.006.335-.05.438-.166.108-.103.195-.294.261-.577a.879.879 0 0 0 .02-.172 1.218 1.218 0 0 1 .121-.515c.073-.114.216-.18.424-.205a2.38 2.38 0 0 1 .585 0c.185.028.343.07.478.12.501.167.728.451.675.84-.017.112-.037.275-.063.491-.026.22-.043.349-.054.397-.007.044-.03.126-.056.243-.03.117-.049.199-.05.242a.663.663 0 0 0 .05.23c.023.034.05.075.086.121.036.05.059.085.072.11.01.02.018.054.03.097a.18.18 0 0 1-.022.117c-.021.035-.053.079-.098.137a.622.622 0 0 1-.64.156c-.344-.078-.596-.098-.761-.071-.068.01-.334.09-.803.226-.489.164-1.042.21-1.658.147-.613-.068-1.131-.255-1.548-.562a3.292 3.292 0 0 1-1.01-1.152 2.947 2.947 0 0 1-.376-1.441c-.002-.07.003-.163.007-.284.009-.124.014-.21.016-.266.002-.056 0-.146-.018-.266-.027-.166-.15-.351-.365-.553a.88.88 0 0 1-.13-.146c-.04-.054-.076-.1-.107-.146a.815.815 0 0 1-.079-.169 5.474 5.474 0 0 0-.057-.165 2.79 2.79 0 0 1-.042-.191c-.012-.085-.022-.145-.027-.175-.01-.025-.02-.09-.032-.188a1.673 1.673 0 0 1-.024-.201.91.91 0 0 0-.023-.15c-.01-.064-.022-.115-.023-.145l-.004-.125c-.002-.051.005-.098.012-.142.01-.048.026-.095.045-.152.01 0 .025-.026.036-.07a1.725 1.725 0 0 1 .102-.227c.02-.04.045-.07.07-.089a.127.127 0 0 1 .09-.012c.047.01.087.061.124.145.033.089.068.204.094.35.026.14.042.221.042.23.075.302.16.543.256.72.032-.301.07-.543.106-.733.036-.19.092-.411.16-.663a2.872 2.872 0 0 1 .68-1.265 2.4 2.4 0 0 1 1.146-.663 8.289 8.289 0 0 1 1.587-.25 3.405 3.405 0 0 1 1.445.212c.1.053.204.113.314.182.104.069.192.126.262.17.066.05.162.123.282.227.118.098.206.173.264.213.114.094.204.215.277.354.023.046.078.143.168.294.087.151.143.278.172.376.072.208.132.467.173.776 0 .026.02.102.06.234s.046.226.027.282c-.01.077-.006.214.015.415.02.197.012.343-.018.43zm-6.868-9.724c.044-.517.344-.914.67-.886.326.029.554.47.51.987-.043.518-.343.914-.669.886-.326-.028-.554-.47-.51-.987zm3.759.322c.043-.517.343-.914.67-.885.325.028.554.47.51.987-.043.517-.343.914-.67.885-.325-.028-.554-.47-.51-.987zm3.614 2.034a14.498 14.498 0 0 0-.513-2.597c-.046-.16-.082-.326-.153-.473-.41-.839-.47-1.745-.54-2.653-.037-.459-.079-.918-.142-1.373-.063-.446-.374-.647-.794-.495-.221.08-.433.223-.607.383-.28.258-.54.543-.785.837-.157.19-.313.265-.56.211a2.691 2.691 0 0 0-.683-.047c-.267.012-.42-.11-.549-.33a17.6 17.6 0 0 0-.693-1.1.986.986 0 0 0-.65-.44c-.238-.043-.437.002-.544.237-.152.336-.31.674-.43 1.024-.21.618-.385 1.248-.593 1.865a2.213 2.213 0 0 1-.29.58c-.743 1.032-1.16 2.217-1.599 3.391-.176.47-.243.545-.745.522a5.23 5.23 0 0 1-2.622-.856c-.33-.212-.468-.55-.467-.92 0-.471.036-.944.09-1.414a2.36 2.36 0 0 0-.172-1.2c-.316-.638-.267-1.23.21-1.778.333-.381.37-.861.393-1.336.015-.333.025-.668.034-1.001.016-.498.03-.995.059-1.493.036-.6.115-1.197.185-1.794.048-.406.12-.81.165-1.217.02-.176-.01-.356-.01-.534 0-.165-.012-.335.019-.494.073-.385.316-.615.706-.638.354-.02.713-.01 1.069.012.494.03.987.082 1.481.133a2.3 2.3 0 0 1 .446.09c.347.107.51.365.527.72.008.177 0 .355 0 .618.171-.099.27-.152.363-.21a5.129 5.129 0 0 1 1.396-.607c.7-.18 1.34-.028 1.937.344.027.016.052.035.08.053.681.439 1.232 1.004 1.583 1.754.026.056.063.106.11.183l.027-.022c.082-.066.153-.118.217-.178.865-.804 1.855-1.329 3.04-1.484 1.097-.144 2.116.258 2.772 1.046.251.302.451.66.58 1.066.253.8.355 1.628.352 2.463-.006 1.229-.045 2.457-.069 3.686-.002.136 0 .273.036.417.19-.261.354-.524.412-.843.035-.188.067-.382.14-.557.042-.103.146-.222.247-.252.156-.048.306.045.375.197.067.15.128.311.144.473.074.713-.045 1.404-.277 2.076-.097.28-.289.487-.539.627-.439.245-.648.617-.712 1.11-.075.57-.189 1.135-.288 1.702a1.2 1.2 0 0 1-.035.15c-.267.89-.522.932-1.214.937a6.745 6.745 0 0 1-1.553-.161c-.227-.052-.345-.158-.37-.408zm10.27 6.793c-.001.103-.025.239-.065.406-.042.172-.064.264-.067.286a.47.47 0 0 1 .011.161 1.296 1.296 0 0 1-.043.18c-.02.08-.036.13-.04.155a4.941 4.941 0 0 1-.116.485c-.006.043-.113.4-.32 1.063-.158.471-.267 1.167-.333 2.084.004.057 0 .148-.004.268a3.236 3.236 0 0 1-.023.283l-.022.149c-.013.09-.015.136-.004.15-.001.01.004.031.026.06.017.034.03.06.036.084a.309.309 0 0 1-.069.206 1.105 1.105 0 0 1-.194.184.798.798 0 0 0-.163.15 1.212 1.212 0 0 0-.214.38 3.18 3.18 0 0 0-.125.394c-.019.102-.048.27-.082.513s-.059.377-.072.41a3.63 3.63 0 0 0-.027.399c-.007.054-.043.15-.105.284-.03.053-.074.159-.127.32-.058.16-.113.278-.172.36a1.83 1.83 0 0 1-.405.388c-.172.127-.319.218-.43.271a19.38 19.38 0 0 1-.512.239c-1.105.503-2.175.534-3.203.108-.946-.406-1.685-1.175-2.225-2.307-.189-.396.045-.826.701-1.289.533-.383.967-.367 1.294.052.013.003.042.037.096.105.051.068.083.112.107.133l.093.096a.546.546 0 0 0 .268.181c.155.057.268.109.336.154.067.04.132.123.206.246.138.21.327.302.563.276a.639.639 0 0 0 .519-.372c.095-.19.154-.48.177-.88.021-.3.026-.456.015-.47-.002-.044-.007-.074-.014-.084-.002-.013-.01-.023-.025-.038a.07.07 0 0 0-.04-.023.367.367 0 0 1-.079-.029c-.089-.013-.27-.043-.539-.086-.274-.044-.5-.09-.675-.132a2.344 2.344 0 0 1-.516-.183c-.491-.24-.867-.624-1.14-1.157-.07-.118-.16-.24-.264-.354-.109-.116-.22-.235-.342-.353a2.59 2.59 0 0 1-.297-.33c-.111-.158-.176-.393-.201-.7 0-.057-.01-.14-.03-.247a4.176 4.176 0 0 1-.039-.3.878.878 0 0 1 .001-.252c.019-.131.07-.224.157-.281.084-.053.178-.04.278.04.07.054.11.163.125.33.02.163.035.27.049.32.048-.332.08-.886.103-1.658.02-.777.078-1.362.166-1.765a.818.818 0 0 1 .121-.303c.047-.058.135-.102.26-.131.23-.045.489-.077.781-.104.73-.042 1.21.066 1.44.325.071.08.116.186.14.324.023.138.032.252.028.342-.008.086-.028.226-.056.417a23.72 23.72 0 0 0-.045.322c-.011.077-.029.17-.054.28a5.23 5.23 0 0 0-.065.276c-.02.075-.03.156-.034.246-.01.09 0 .178.017.27.02.095.052.178.098.25a.955.955 0 0 1 .125.42c.012.157.013.327.008.508 0 .179.018.332.056.459.03.095.07.174.12.247.054.068.12.12.205.164.08.037.157.07.228.09.07.022.158.044.265.073.108.028.192.049.257.072.304-1.191.52-1.944.642-2.26.19-.476.298-.85.323-1.114.004-.03.002-.14-.002-.317-.009-.184 0-.33.02-.444.021-.114.071-.19.14-.222.05-.014.145-.022.287-.019.145.004.232.004.267 0 .23-.036.399-.05.51-.047.355-.005.742.06 1.16.185.02.003.071.014.146.03.075.02.137.032.19.053.054.02.111.042.175.069.061.026.118.056.164.089a.393.393 0 0 1 .093.108c.018.08.031.174.024.28zm4.95-3.14c-.14.055-.298.099-.479.122-.174.025-.32.051-.434.063-.11.021-.29.017-.538.003-.253-.023-.404-.034-.452-.039-.055 0-.232-.017-.531-.052s-.455-.047-.475-.052c-.206-.039-.498-.1-.88-.19-.39-.087-.602-.128-.658-.128-.572-.111-.91-.156-1.016-.148-.264.023-.43.072-.498.145-.042.003-.07.03-.087.069-.018.045-.04.074-.056.111a.183.183 0 0 1-.09.082c-.064.055-.16.08-.281.062a1.924 1.924 0 0 1-.436-.098l-.33-.1a6.607 6.607 0 0 1-1.05-.24 3.518 3.518 0 0 0-.37-.13 5.428 5.428 0 0 1-.37-.138 1.064 1.064 0 0 0-.18-.032 1.322 1.322 0 0 1-.23-.06 3.411 3.411 0 0 1-.168-.085c-.096-.06-.138-.17-.134-.322a3.22 3.22 0 0 1 .083-.604c.057-.252.084-.386.087-.399.057-.442.07-.853.043-1.239-.106-1.066-.033-1.96.23-2.692.051-.149.12-.278.19-.387.069-.109.183-.227.323-.367.147-.137.24-.233.29-.29.224-.252.423-.622.582-1.108.15-.453.343-1.407.589-2.868.096-.65.344-1.575.748-2.777.403-1.202.658-2.098.753-2.692.025-.098.047-.268.06-.51.02-.24.035-.44.06-.595.021-.163.082-.322.173-.489a.952.952 0 0 1 .396-.376c.205-.095.44-.133.708-.12.267.02.58.079.952.182s.602.155.69.164c.52.09.882.283 1.089.581.157.228.224.516.199.865-.085.47-.138.764-.165.899-.025.127-.119.412-.279.848-.168.442-.274.723-.329.856-.204.586-.434 1.49-.701 2.705a32.117 32.117 0 0 1-.524 2.147c-.063.222-.127.417-.184.585-.528 1.584-.835 2.524-.929 2.808-.117.461-.289 1.358-.524 2.694.202.002.396.01.593.033.19.02.45.066.777.129.324.069.524.106.59.123.532.102.905.092 1.118-.036.135-.092.283-.314.438-.653.156-.339.31-.56.47-.666.194-.132.342-.165.454-.086a.45.45 0 0 1 .2.312c.028.133.032.288.009.458.315-.334.499-.7.533-1.112a2.85 2.85 0 0 0-.173-1.266 2.353 2.353 0 0 0-.413-.71 2.835 2.835 0 0 0-.54-.49 7.137 7.137 0 0 0-.728-.404c-.236-.117-.398-.194-.464-.232-.075-.034-.2-.115-.384-.246s-.308-.24-.36-.338a1.056 1.056 0 0 1-.133-.384.895.895 0 0 1 .015-.418c.009-.033.025-.071.034-.104.115-.315.286-.657.508-1.035l.006-.011c.347-.598.648-.938.909-1.039.158.006.28.023.364.051.081.035.226.101.435.21.21.11.332.176.379.21.297.126.672.348 1.128.67a11.27 11.27 0 0 1 1.684 1.438c.184.196.355.393.508.592.46.609.697 1.407.72 2.389.009.458-.02.956-.082 1.502-.005.02-.03.118-.071.311a1.648 1.648 0 0 0-.038.426c-.087.124-.06.208.072.264.075.034.156.076.236.117.069.032.086.1.073.208-.018.1-.06.209-.123.32-.063.11-.124.213-.188.302l-.13.212c-.108.12-.28.252-.52.4-.247.148-.415.258-.507.348-.852.8-1.609 1.306-2.261 1.54zM84.962 18c-.03.077-.06.153-.08.24a4.87 4.87 0 0 0-.083.287c-.032.103-.054.176-.072.223-.221.666-.373 1.183-.444 1.562-.03.11-.061.315-.097.62-.034.298-.07.5-.103.603-.025.098-.11.289-.251.566a8.924 8.924 0 0 1-.325.39c-.137.164-.258.32-.36.463a3.617 3.617 0 0 0-.258.442c-.103.217-.304.755-.59 1.606-.194.541-.399 1.125-.627 1.755-.041.106-.11.336-.21.69-.102.353-.184.618-.249.784-.15.34-.524.54-1.115.59a3.684 3.684 0 0 1-1.457-.22 2.828 2.828 0 0 1-1.22-.819c-.1-.107-.17-.241-.203-.403s-.049-.31-.053-.44c.004-.134.031-.294.1-.49.06-.194.117-.34.157-.447.042-.106.115-.26.217-.458.096-.199.163-.337.192-.413.187-.436.55-1.394 1.093-2.883l.11-.3c.45-1.31.833-2.36 1.156-3.148l.174-.454.206-.537c.05-.13.127-.296.23-.493.097-.2.202-.349.305-.458a2.41 2.41 0 0 1 .37-.317.974.974 0 0 1 .486-.177c.688-.088 1.538.202 2.557.859.092.06.186.121.281.187.135.086.219.166.232.238.015.067-.003.182-.069.353zm1.757-3.733c-.071.115-.142.209-.224.285-.08.07-.18.153-.305.248a1.284 1.284 0 0 0-.246.222l-.175.298a2.45 2.45 0 0 1-.188.278c-.051.062-.116.125-.193.204a.627.627 0 0 1-.277.143c-.102.02-.226.027-.367.027-.411-.017-1.035-.218-1.884-.601-.312-.135-.5-.33-.57-.586-.064-.255-.06-.565.036-.935.204-.896.45-1.485.725-1.763.263-.264.819-.306 1.667-.113.474.108.852.227 1.137.356.254.115.435.239.544.37.092.11.141.21.14.304a.406.406 0 0 1-.082.246.51.51 0 0 0-.093.275c.011.113.067.195.168.249.099.059.164.118.192.182.065.093.064.201-.004.31z" fill="#FFFFFF"></path></g></svg>