<svg xmlns:xlink="http://www.w3.org/1999/xlink" xmlns="http://www.w3.org/2000/svg" width="1440" height="334" viewBox="0 0 1440 334" fill="none"><g clip-path="url(#clip0_883_13627)"><path fill="#101615" d="M0 212h1440v122H0z"/><path d="M-22.8 114.804s-13.642 6.368-14.622 9.416c-.98 3.047-2.724 17.204-2.724 17.204s22.637 2.553 34.927 3.43c11.644.813 42.898.847 48.193 3.502 5.295 2.656-21.436 17.489-21.436 17.489s29.494-12.648 33.604-15.847c4.11-3.199 16.014-6.825 17.787-10.175 1.773-3.351 14.696-9.705 14.696-9.705s-25.199-5.306-36.93-4.899c-16.068-2.562-26.635-5.879-35.76-8.603-10.62-3.164-19.448-8.871-26.37-10.478-5.653 5.697-6.574 7.049-11.365 8.666Z" fill="#111715"/><path d="M-.452 179.822s.353 6.574 6.412 21.604c4.527 11.267 29.76 22.383 31.94 27.875.048.127-34.11-.716-34.11-.716l-79.563-.396s11.786-24.372 11.962-35.997c.04-2.225 47.13 30.828 46.954 29.706-.177-1.121-26.032-25.635-26.6-27.762-3.057-11.399-10.64-34.64-10.385-38.525a56.321 56.321 0 0 1 1.24-8.533s7.94 6.133 13.201 4.335c3.057-1.043 9.126 6.996 14.353 9.798 1.205 5.472 9.538 9.925 14.862 12.193 5.325 2.268 10.38-.69 19.159-3.586 8.778-2.895 22.534-9.195 22.534-9.195s-27.79 15.221-30.293 17.759c-2.504 2.537-1.666 1.44-1.666 1.44ZM165.214 153.931s15.779 9.494 30.186 16.201c14.406 6.706 7.083 11.267 4.252 18.772-2.832 7.505-30.656 27.302-30.656 27.302s-11.566-12.551-18.938-7.251c-7.373 5.301-21.236 16.779-21.236 16.779l-53.527 4.35s42.775-23.338 46.831-25.768c4.056-2.43 30.959-31.906 32.008-36.075 1.048-4.169 8.116-16.818 8.116-16.818l2.964 2.508Z" fill="#111715"/><path d="M265.401 196.336s-11.653 11.17-29.984 16.559c-18.331 5.388-50.456-2.739-61.723 2.317-11.267 5.055-33.702 14.829-33.702 14.829s33.399-11.909 41.476-16.015c8.078-4.105 21.618-14.358 21.128-19.037-.49-4.678 7.755-5.531 7.755-5.531s7.372-4.899 10.605-6.633c3.233-1.734 43.108-21.315 46.576-26.488 3.469-5.173 19.316-20.13 21.789-22.28 2.474-2.151 18.223-20.194 22.255-22.251 4.031-2.058 16.165-33.744 16.165-33.744s-17.429 51.816-18.335 53.687c-.907 1.872-17.689 31.995-22.725 37.443-5.036 5.447-17.268 25.474-21.28 27.144Z" fill="#111715"/><path d="M-12.076 13.593s-6.505 21.772-5.402 31.45c-4.224 3.273-25.724-2.87-29.642-.442-12.832 7.982-12.485 25.684-17.327 36.233-.6 1.307 14.888 3.138 13.96 4.525-1.378 2.072-34.169 6.447-35.968 8.607-6.747 8.019-.34 13.476-.73 18.934-.565 7.887 68.124 113.364 86.908 136.572l630.304 83.491-13.069-20.153s1.884-16.536 4.347-22.302c2.048-4.805-3.478-27.406-5.685-53.308-2.608-2.519-12.905-7.964-14.405-10.342-9.183-14.563-19.597-33.914-19.597-33.914s-171.72-85.044-185.439-93.98c-13.72-8.936-65.344-.85-65.344-.85s-12.635 33.777-13.972 52.519c0 0-57.512-41.286-96.807-76.48-10.131-6.893-23.913-5.408-31.177-10.367-8.321-5.67-13.942-5.524-15.677-7.25-9.945-.733-24.156.02-31.242-3.178-4.159-1.874-1.609-7.306-5.611-9.356-7.58-3.872-15.531-6.1-18.707-8.798-15.499-3.167-86.98-15.638-129.718-21.611Z" fill="#101615"/><path d="M-46.792 43.756s39.575 23.412 62.378 41.37c22.803 17.958 72.288 53.732 88.519 76.049 16.231 22.317 35.579 51.029 35.579 51.029s-20.61-72.811-28.666-84.849c-8.057-12.037-17.243-24.072-16.799-30.203.445-6.13-20.245-18.198-26.941-24.41-11.213-3.648-25.434-8.592-38.373-12.591C15.501 56.127-4.783 49.64-4.783 49.64s-14.495-7.587-42.01-5.884Z" fill="#13221C"/><path d="M169.75 56.261s3.608 3.413 13.138 6.117c11.418 3.23 29.274 6.184 32.312 11.276-15.083 6.959-24.119 15.497-30.282 15.455-2.122-.016-4.249 89.055-11.853 84.142 9.882 9.408-32.619-41.492-50.104-93.913-4.389-8.357-2.339-10.074-3.165-11.414-.697-1.135-25.354-4.22-27.884-4.348-10.664-.505-34.195-5.073-48.143-7.612-1.698-.308 11.591-1.554 30.526-.479a194.397 194.397 0 0 1-6.905-3.178C50.828 44.266 22.263 28.23 14.1 23.839c-9.465-5.096-26.013-10.243-26.013-10.243 5.4-1.351 49.431-.21 71.602 5.418 26.698 3.027 56.881 11.964 56.881 11.964s9.298 7.497 15.599 11.823c-9.709-.05-36.726 7.172-35.455 7.67 15.078-.865 36.057-.112 42.27.716 11.153 1.46 23.768 2.363 30.766 5.074Z" fill="#13221C"/><path d="M125.515 64.708s18.87-1.403 24.221-2.106c1.282.657-22.287 4.672-20.781 5.88 2.744 2.22 3.444 4.644 6.185 9.507 7.74 28.751 30.456 84.571 42.659 100.869 12.203 16.299 50.52 49.153 57.334 53.613 6.814 4.459-39.382-67.283-39.35-80.052.033-12.769-19.529-55.008-9.104-63.502-.28-3.462-40.78-10.291-47.203-18.776-1.323-1.747 45.133-6.272 43.851-7.714-5.093-2.962-12.425-5.589-13.58-6.144-7.657.464-31.158 7.962-48.059 7.174-16.901-.79-52.978-4.341-52.978-4.341s62.035 7.284 56.805 5.592ZM286.462 138.344s56.176 37.437 69.704 48.302c14.484 11.636 21.044 12.202 18.714 19.965-2.331 7.763 39.347 70.611 45.239 75.44 5.893 4.83 25.657 27.578 25.657 27.578l81.173 9.466-14.533-2.885c-14.644-10.929-38.267-20.238-44.855-33.949-10.098-20.996-13.051-53.775-16.412-56.685-3.361-2.91 35.452 15.788 57.962 25.344 22.511 9.556 28.6 11.769 28.6 11.769s-38.708-32.315-70.545-48.711c-31.837-16.397-82.243-47.376-93.349-54.343-11.106-6.966-41.151-35.578-43.465-40.592-2.313-5.014-6.745-21.913-6.745-21.913s-39.059 23.392-37.145 41.214Z" fill="#101615"/><path d="M564.913 184.947s.496 15.452-25.191 12.711c-25.688-2.741-39.197-1.09-49.217 1.686-10.021 2.776-10.629 23.449-10.629 23.449s-96.675-57.666-108.211-70.855c-11.536-13.19-31.956-27.006-34.369-30.683-2.414-3.678-19.418-23.582-13.72-24.18 5.698-.598 30.918-3.645 38.936-3.494 8.018.151 24.101-.009 26.639 1.94.563.428.997 3.714 11.952 9.275 4.335 2.191 19.912 2.628 25.252 5.319 5.947 3.001 8.494 8.703 15.235 12.09 41.417 20.83 93.314 46.812 99.96 50.441 11.141 6.135 22.772 9.875 23.363 12.301Z" fill="#13221C"/><path d="M518.159 183.973s31.305-4.157 12.375-13.909c-18.93-9.751-45.25-40.341-91.533-44.403-6.292-.545-36.163 2.6-36.731-1.846-.568-4.445 21.474-14.506 21.474-14.506s-31.489-4.467-45.103-4.385c3.847-3.684 10.505-9.364 10.505-9.364s-26.099 2.948-36.084 5.3c-9.984 2.351-11.004 4.052-11.004 4.052s3.585-4.285 14.495-7.04 23.677-3.734 23.677-3.734-23.19-2.99-41.887.353a92.06 92.06 0 0 0-14.775 2.6s11.657 15.67 17.529 20.937c5.871 5.267 25.139 25.393 32.073 31.106 8.562 7.062 14.874 10.938 25.985 19.668 9.472 7.431 47.118 34.385 54.281 34.672-17.453-9.118-30.492-45.153-35.575-48.605-5.083-3.453 8.572 8.668 8.572 8.668s5.334 15.147 23.564 22.192c15.07 5.83 44.4 3.006 56.321 3-1.797 1.639-14.86 1.25-20.281 2.621-5.42 1.371-38.833 2.463-38.833 2.463s54.427 4.817 82.643 5.562c10.585 1.652 52.961 7.909 59.31 6.604-1.568-2.724-14.805-11.437-14.805-11.437s-20.861-2.515-30.653-2.787c-9.792-.271 12.873-8.958 20.015-8.883.017.042-38.164-2.349-45.555 1.101Z" fill="#13221C"/><path d="M672.554 217.402s.686-.95 5.917-3.919c5.232-2.969 35.795-8.446 35.795-8.446s-23.563.98-33.017.069c-9.454-.911-22.818-1.744-29.392-4.106-6.574-2.361-5.912-3.693-11.433-4.898-5.051.225-67.601 15.436-74.763 22.192l106.893-.892Z" fill="#101615"/><path d="m740.65 217.103.22-3.885c-1.386-4.507 1.622-3.326-1.661-4.644a53.232 53.232 0 0 0-11.536-3.233c-4.977-.877-9.993-1.2-9.993-1.2s-85.329-25.803-126.874 14.236l149.844-1.274Z" fill="#101615"/><path d="M740.336 209.299s-15.308-6.339-31.067-4.899c-15.759 1.441-42.417-1.636-51.798-3.625a151.323 151.323 0 0 1-17.042-4.688s48.427-1.47 54.575-1.372c6.148.098 28.495 3.87 31.782 4.899 3.287 1.029 11.404 8.167 13.55 9.685Z" fill="#0F1312"/><path fill-rule="evenodd" clip-rule="evenodd" d="M939.538 125.693s21.382 27.111 20.476 39.681c-.906 12.571-4.546 46.76-4.546 46.76H686.475s38.586-19.507 49.892-30.295c15.446-7.412 116.411-38.701 132.753-38.701-19.683 10.067 50-17.636 70.418-17.445Z" fill="#13221C"/><path fill-rule="evenodd" clip-rule="evenodd" d="M939.078 126.893s22.979 54.951 9.351 54.951c-6.819 0-46.414-17.748-49.084-16.225-12.247-4.12-58.191 13.261-60.914 16.225.441 17.328 16.165 30.315 16.165 30.315h159.034s-50.015-76.374-74.552-85.266Z" fill="#101615"/><path fill-rule="evenodd" clip-rule="evenodd" d="M905.057 168.803c-2.636-.357-16.891-6.711-24.327-8.141 0 0-8.656.431-21.377 6.368-43.368-9.768-118.596 12.409-118.596 12.409s65.935-25.278 94.396-30.138c8.181-3.709 25.223-6.501 25.223-6.501s8.127-8.548 19.487-12.502c0 0 21.456-8.651 26.002-7.912 4.546.74 33.668 3.297 33.668 3.297s-20.27 22.246-34.476 43.12Z" fill="#13221C"/><path fill-rule="evenodd" clip-rule="evenodd" d="M739.184 180.223s-.906 5.188 10.905 12.6c11.81 7.412 55.432 19.336 55.432 19.336H686.485s32.311-20.409 52.699-31.936ZM875 249.158s114.797-76.244 222.95-148.044c13.62-9.04 105.3.37 118.26-8.171 14.97-9.878 20.24-13.044 25.17-22.742 9.17-18.024 105.82-27.033 173.09-31.152 36.86-2.257 63.23 39.771 95.61 23.73 37.14-18.398 82.72-23.73 82.72-23.73v210.109H875Z" fill="#101615"/><path fill-rule="evenodd" clip-rule="evenodd" d="M1104.71 249.159s-9.11-18.552-.34-39.77c9.29-22.491 36.76-47.955 47.18-57.002 20.29-17.588 32.62-30.566 32.62-30.566s-77.38-19.653-83.72-20.685c-6.34-1.033-42.39 15.611-42.39 15.611l-109.85 74.391 42.175 58.021h114.325Z" fill="#101615"/><path fill-rule="evenodd" clip-rule="evenodd" d="M1338.95 147.689s21.57 28.966 27.91 43.449c6.34 14.483 32.99 58.021 32.99 58.021h-310.33s45.56-61.885 60.76-75.328c15.19-13.444 34.51-50.15 40.85-52.202 6.35-2.051 59.99 59.416 80.29 60.455 20.3 1.04 39.72-29.15 49.87-26.046 10.14 3.105 17.66-8.349 17.66-8.349Z" fill="#101615"/><path fill-rule="evenodd" clip-rule="evenodd" d="M1484.64 56.243s-105.13 15.1-106.4 40.96c-1.28 25.862-25.08 74.275-25.08 74.275s-17.94-33.267-21.74-36.371c-3.81-3.105-41.12-19.927-47.46-23.031-6.35-3.105-43.69-9.908-52.57-15.077-8.88-5.17-31.7-8.281-31.7-8.281s62.15-35.175 93.86-39.312c31.7-4.137 128.98-14.1 191.09 6.837Z" fill="#13221C"/><path fill-rule="evenodd" clip-rule="evenodd" d="M1164.34 86.304s41.37-2.68 66.74 7.665c25.36 10.346 86.53 48.496 86.53 48.496s-56.75-13.437-77.12-16.206c-33.84-4.596-62.05.683-62.05.683s-49.83-13.477-73.68-20.568c-7.29-2.168-46.56 12.11-49.83 12.11 0 0 35.85-24.754 45.6-27.674 15-4.5 53.04-5.135 63.81-4.506Z" fill="#13221C"/><path fill-rule="evenodd" clip-rule="evenodd" d="M1526.82 51.756s-40.96 6.392-63.46 22.013c-22.51 15.622-73.9 66.175-73.9 66.175s247.1 28.225 60.75-13.905c-80.26-18.146 21.64-8.375 21.64-8.375s12.56-27.917 117.49-59.292c6.65-3.705 48.08 1.68 51.27.968 0 0-40.37-16.355-50.52-17.081-15.63-1.124-52.89 6.538-63.27 9.497Z" fill="#101615"/><path fill-rule="evenodd" clip-rule="evenodd" d="M1100.44 91.418s-3.93 3.782 30.95 13.615c26.96 7.597 53.07 18.524 53.07 18.524-17.36 11.796-76.15 77.072-77.14 84.347-1.72-48.775 10.09-55.593 10.09-55.593s-60.62 23.202-101.16 30.135c-24.771 0-64.717 8.692-67.985 8.692 0 0 108.935-89.893 152.175-99.72Z" fill="#13221C"/><path fill-rule="evenodd" clip-rule="evenodd" d="M1251.42 166.246s32.82-6.77 45.97-3.684c13.15 3.086 20.17 7.961 20.17 7.961s53.13 12.737 54.19 20.036c-30.67-4.899-109.86 4.816-109.86 4.816s-61.72 6.079-96.79 16.783c0 0 58.32-38.378 86.32-45.912Z" fill="#101615"/></g><defs><clipPath id="clip0_883_13627"><path fill="#fff" d="M0 0h1440v334H0z"/></clipPath></defs></svg>