<svg xmlns="http://www.w3.org/2000/svg" fill="none" height="274" viewBox="0 0 1440 274" width="1440" class="injected-svg" data-src="/assets/img/palms-desktop.ad87fd.svg" xmlns:xlink="http://www.w3.org/1999/xlink"><filter id="a-3" color-interpolation-filters="sRGB" filterUnits="userSpaceOnUse" height="259" width="233" x="-39" y="-30" fill="none"><feFlood flood-opacity="0" result="BackgroundImageFix" fill="none"></feFlood><feBlend in="SourceGraphic" in2="BackgroundImageFix" result="shape" fill="none"></feBlend><feGaussianBlur result="effect1_foregroundBlur_600_5959" stdDeviation="6" fill="none"></feGaussianBlur></filter><filter id="b-4" color-interpolation-filters="sRGB" filterUnits="userSpaceOnUse" height="264" width="243" x="1237" y="-24" fill="none"><feFlood flood-opacity="0" result="BackgroundImageFix" fill="none"></feFlood><feBlend in="SourceGraphic" in2="BackgroundImageFix" result="shape" fill="none"></feBlend><feGaussianBlur result="effect1_foregroundBlur_600_5959" stdDeviation="6" fill="none"></feGaussianBlur></filter><clipPath id="c-2" fill="none"><path d="M0 0h1440v274H0z" fill="none"></path></clipPath><g clip-path="url(#c-2)" fill="none"><g filter="url(#a-3)" fill="none"><path d="M2.412 211.877c-2.14-.357-5.051-2.228-6.24-3.119H-27v-226.75c50.059.15 154.366.357 171.122 0C165.066-18.436 182-1.508 182 .719c0 2.228-11.586 12.474-34.313 13.366-22.728.89-21.391-1.783-24.51-4.901-3.119-3.118-3.565-7.573-9.358-7.573S79.951 2.946 75.94 4.283c-4.01 1.336-28.52 18.264-27.629 19.155s11.141-4.454 19.608-9.354c8.467-4.9 14.706-5.346 22.727-4.01 8.021 1.337 21.836 9.355 32.531 14.256s29.857 17.819 29.857 19.155c0 1.337-8.912 4.01-20.499 4.9-11.586.891-14.26-4.454-14.706-2.672-.445 1.782 8.022 5.79 7.576 7.127-.446 1.337-3.565 1.782-26.738.891-18.538-.712-30.897-13.364-34.759-19.6-2.228 0-4.01 3.118-3.565 6.681.446 3.564 9.359 8.465 9.359 9.801 0 1.336-11.587.89-12.924.89-1.337 0-3.12 1.783-2.673 4.901.445 3.119 1.782 5.346 14.26 3.564 12.477-1.782 15.151 2.673 18.27 5.791s15.597 16.928 15.597 19.156-22.727.445-23.172 5.791c-.446 5.346 8.021 6.682 10.695 7.573 2.674.891 7.576-.89 20.499-.89 12.923 0 22.727 31.628 26.737 39.647 4.011 8.019 6.685 20.492 5.348 21.383s-4.456.446-8.021-.891c-3.565-1.336-18.717-16.928-21.836-16.483-3.12.446-2.228 8.91-6.685 8.91-4.456 0-19.162-9.801-23.618-17.374s-2.228-13.81-1.782-17.819 2.673-6.237-1.783-8.91c-4.456-2.672-7.13 3.564-8.467 6.683-1.337 3.118.891 18.264.446 18.264-.446 0-22.282-17.819-22.727-18.264-.446-.446 0-8.464-1.337-8.464s0 3.118-2.674 4.454c-2.674 1.337-8.021-1.782-10.695-3.564-2.674-1.781-11.14-10.246-13.815-10.691s4.902 12.919 8.022 24.501c2.495 9.266 2.525 23.759 2.228 29.848-.446 2.079-1.248 6.86-.891 9.355.356 2.494 1.04 7.573 1.337 9.8-3.565-3.118-10.16-8.375-8.022-4.455 2.674 4.901 3.565 19.156 3.565 24.056 0 4.901-.891 4.901-1.337 6.683-.445 1.782-.89 9.355-1.782 11.137-.891 1.782-2.228 10.246-3.565 11.137s-3.12.891-4.01 0c-.892-.891-2.675-.891-4.457-.891-1.783 0-5.793-8.019-8.913-8.91s3.565 5.791.892 5.346z" fill="#101615"></path></g><g filter="url(#b-4)" fill="none"><path d="M1437.7 222.768c2.2-.364 5.2-2.275 6.43-3.185H1468V-11.994c-51.57.151-159.04.364-176.3 0-21.58-.455-42.7 26.388-42.7 28.663 0 2.274 10.1-6.828 33.52-5.918 23.41.91 27.54 8.192 30.76 5.008 3.21-3.185 3.67-7.735 9.64-7.735 3.67 0-5.54 7.735-5.54 15.218 0 8.31 6.92 2.981-4.1 7.986-11.02 5.004-30.76 18.198-30.76 19.563s9.18 4.095 21.12 5.005c11.93.91 14.69-4.55 15.15-2.73s-8.27 5.915-7.81 7.28 3.67 1.82 27.55.91c19.1-.729 31.83-13.65 35.81-20.02 2.3 0 4.13 3.186 3.67 6.825s-9.64 8.645-9.64 10.01 11.94.91 13.32.91c1.37 0 3.21 1.82 2.75 5.004-.46 3.185-1.84 5.46-14.69 3.64-12.86-1.82-15.61 2.73-18.83 5.914-3.21 3.185-16.06 17.289-16.06 19.564 0 2.275 8.88-1.715 9.34 3.745.46 5.459 6.27 8.994 3.51 9.904-2.75.91-7.8-.91-21.12-.91-13.31 0-23.41 32.302-27.55 40.492-4.13 8.189-6.88 20.928-5.51 21.838 1.38.91 4.6.455 8.27-.91s19.28-17.289 22.5-16.834c3.21.455 2.29 9.1 6.88 9.1s19.74-10.009 24.34-17.744c4.59-7.734 2.29-14.104 1.83-18.199-.46-4.094-2.75-6.369 1.84-9.099s4.19 5.915 5.57 9.099c1.37 3.185 2.23 16.379 2.69 16.379s22.96-18.198 23.42-18.653 0-8.645 1.38-8.645c1.37 0 0 3.185 2.75 4.55s7.23-31.931 9.98-33.751c2.76-1.82.26 34.235-1.79 36.134-8.72 8.102-9.11 14.906-12.32 26.735-2.57 9.463 18.52 5.611 18.82 11.829.46 2.123 1.29 7.006.92 9.554s-1.07 7.735-1.38 10.009c3.68-3.184 10.47-8.553 8.27-4.549-2.76 5.004-3.68 19.563-3.68 24.568 0 5.004.92 5.004 1.38 6.824s.92 9.555 1.84 11.374c.92 1.82 2.29 10.465 3.67 11.375 1.38.909 3.21.909 4.13 0 .92-.91 2.76-.91 4.59-.91 1.84 0 5.97-8.19 9.19-9.1 3.21-.91-3.68 5.915-.92 5.46z" fill="#101615"></path></g></g></svg>